<svg class="header__logo" xmlns="http://www.w3.org/2000/svg" xmlns:xlink="http://www.w3.org/1999/xlink" width="202.143" height="67.864" viewBox="0 0 202.143 67.864"> <path id="Path_757" data-name="Path 757" d="M67.688,30.447c-.012-.134-.027-.269-.043-.4l0-.029-.155-1.177v-.008c-.014-.09-.027-.179-.042-.269a33.635,33.635,0,0,0-8.855-17.943c-.217-.229-.438-.457-.662-.681s-.452-.445-.681-.662a34.092,34.092,0,0,0-5.524-4.255l-.02-.012A33.523,33.523,0,0,0,39.3.421L39.033.379h-.008L37.848.223l-.028,0c-.133-.016-.267-.031-.4-.043a34.514,34.514,0,0,0-6.971,0c-.134.012-.269.027-.4.043l-.029,0L28.84.377h-.008l-.269.042a33.523,33.523,0,0,0-12.4,4.588l-.02.012a34.092,34.092,0,0,0-5.524,4.255c-.229.217-.457.438-.681.662s-.445.452-.662.681A33.635,33.635,0,0,0,.421,28.563c-.015.09-.029.179-.042.269L.22,30.045c-.016.133-.031.267-.043.4a34.495,34.495,0,0,0,.358,9.535q.12.672.266,1.336a33.578,33.578,0,0,0,2.8,7.86q.364.723.766,1.429A35.528,35.528,0,0,0,20.932,65.449l.02.008c13.566,5.089,27.553,1.892,36.975-7.531A33.827,33.827,0,0,0,65.8,45.633q.234-.639.442-1.288a34.346,34.346,0,0,0,1.443-13.9m-3.21-1.469L49.538,31.065a.271.271,0,0,1-.3-.217,15.318,15.318,0,0,0-.509-1.9.271.271,0,0,1,.154-.34l13.992-5.664a.272.272,0,0,1,.358.157,30.81,30.81,0,0,1,1.48,5.558.273.273,0,0,1-.231.314M55.143,11.41,44.561,22.163a.271.271,0,0,1-.372.013,15.661,15.661,0,0,0-1.555-1.2.272.272,0,0,1-.084-.363L50.2,7.6a.271.271,0,0,1,.379-.093,31.218,31.218,0,0,1,4.555,3.508.272.272,0,0,1,.008.39m-21.211-8.7q1.448,0,2.874.13a.272.272,0,0,1,.245.3L35.2,18.117a.272.272,0,0,1-.288.237q-.487-.031-.981-.031t-.981.031a.272.272,0,0,1-.288-.237L30.814,3.149a.272.272,0,0,1,.245-.3q1.425-.129,2.874-.13M17.663,7.6l7.652,13.012a.271.271,0,0,1-.084.363,15.661,15.661,0,0,0-1.555,1.2.271.271,0,0,1-.373-.013L12.721,11.41a.272.272,0,0,1,.008-.39,31.227,31.227,0,0,1,4.555-3.508.271.271,0,0,1,.379.093M4.992,22.948l13.993,5.664a.271.271,0,0,1,.154.34,15.319,15.319,0,0,0-.509,1.9.271.271,0,0,1-.3.217L3.386,28.977a.273.273,0,0,1-.231-.314,30.8,30.8,0,0,1,1.48-5.558.272.272,0,0,1,.357-.157m28.94,42.2a31.006,31.006,0,0,1-22.074-9.144,31.55,31.55,0,0,1-3.825-4.628.272.272,0,0,1,.248-.424l14.733,1.3.1.008,6.917-1.374.043-.008,3.975-1.34h0l.06-.02,5.763-1.152h0l.713-.142a.273.273,0,0,1,.148.012l4.827,1.81a.272.272,0,0,1,.148.133l1.251,2.5a.271.271,0,0,0,.122.122L54.8,56.646a.272.272,0,0,1,.063.444A30.98,30.98,0,0,1,33.932,65.15M56.01,55.733,48.091,51.79a.271.271,0,0,1-.122-.122l-1.287-2.573a.272.272,0,0,0-.148-.133L42.03,47.273l-1.182-.444a.272.272,0,0,0-.148-.012l-1.231.245h-.005l-5.591,1.118h0l-.113.023-3,1.01h0l-1.018.343-.034.009-6.628,1.318a.27.27,0,0,1-.077,0L6.979,49.476a.274.274,0,0,1-.214-.137,30.8,30.8,0,0,1-3.172-8A.272.272,0,0,1,3.831,41l15.483-1.6.139-.014a.271.271,0,0,1,.16.033l1.569.872L25.516,42.7a.271.271,0,0,0,.08.029l4.2.816a.269.269,0,0,0,.091,0l5.589-.814a.272.272,0,0,0,.111-.043l3.866-2.578a.271.271,0,0,1,.177-.044l6.818.668.914.09a.275.275,0,0,1,.042.007l.463.121,15,3.911a.272.272,0,0,1,.186.361,31.1,31.1,0,0,1-6.726,10.451.273.273,0,0,1-.317.054m7.681-12.319a.273.273,0,0,1-.328.18L48.436,39.7l-.76-.2-.052-.014-.547-.053h0l-7.795-.763a.271.271,0,0,0-.177.044l-4.015,2.676a.271.271,0,0,1-.111.043l-5.057.738a.269.269,0,0,1-.091,0l-3.766-.732a.272.272,0,0,1-.08-.029l-5.624-3.124h0l-.464-.257a.272.272,0,0,0-.16-.033l-.854.089L3.495,39.675a.272.272,0,0,1-.3-.222,31.568,31.568,0,0,1-.484-5.52q0-1.448.13-2.874a.272.272,0,0,1,.3-.245l15.223,1.881,1.069.132a.272.272,0,0,0,.3-.246q.061-.654.183-1.291a13.87,13.87,0,0,1,.555-2.07q.216-.619.488-1.209a.272.272,0,0,0-.14-.365l-.991-.419L5.7,21.235a.272.272,0,0,1-.142-.364,31.129,31.129,0,0,1,5.46-8.142.272.272,0,0,1,.39-.008L22.346,23.484l.768.755a.272.272,0,0,0,.391-.011q.444-.478.932-.913a14.063,14.063,0,0,1,1.7-1.306q.543-.359,1.121-.665a.272.272,0,0,0,.111-.374l-.532-.939L19.265,6.675a.272.272,0,0,1,.109-.375,30.832,30.832,0,0,1,9.29-3.146.272.272,0,0,1,.314.231l2.124,15.2.15,1.068a.272.272,0,0,0,.316.229q.638-.108,1.295-.157.531-.041,1.071-.041T35,19.721c.437.032.869.085,1.294.157a.272.272,0,0,0,.316-.229l.15-1.068,2.123-15.2a.273.273,0,0,1,.314-.231A30.83,30.83,0,0,1,48.491,6.3a.272.272,0,0,1,.109.375l-7.57,13.357-.532.939a.272.272,0,0,0,.111.374q.578.306,1.121.665a14.063,14.063,0,0,1,1.7,1.306q.487.434.932.913a.272.272,0,0,0,.391.011l.768-.755L56.454,12.721a.273.273,0,0,1,.39.008,31.128,31.128,0,0,1,5.46,8.142.272.272,0,0,1-.142.364L48.025,27.226l-.991.419a.272.272,0,0,0-.14.365q.271.59.488,1.209a13.87,13.87,0,0,1,.555,2.07q.121.635.183,1.291a.272.272,0,0,0,.3.246l1.069-.132,15.223-1.881a.272.272,0,0,1,.3.245q.129,1.425.13,2.874a31.289,31.289,0,0,1-1.459,9.481" fill="#d51f2f"></path> <path id="Path_758" data-name="Path 758" d="M559.272,131.494V105.811c0-.832.476-1.248,1.367-1.248h10.879a1.147,1.147,0,0,1,1.308,1.248v23.661c0,4.28,2.021,7.312,5.826,7.312,3.745,0,5.885-3.032,5.885-7.312V105.811a1.147,1.147,0,0,1,1.308-1.248h10.879c.892,0,1.367.416,1.367,1.248v25.682c0,10.582-7.134,18.251-19.44,18.251-12.246,0-19.38-7.669-19.38-18.251" transform="translate(-483.363 -90.371)" fill="#004793"></path> <path id="Path_759" data-name="Path 759" d="M880.369,120.94a22.777,22.777,0,0,1,23.126-22.948,23.54,23.54,0,0,1,13.911,4.459,1.187,1.187,0,0,1,.238,1.843l-6.3,8.263a1.221,1.221,0,0,1-1.843.238,11.912,11.912,0,0,0-6-1.843c-4.934,0-9.393,4.4-9.393,10.047,0,6.421,4.518,10.7,9.393,10.7.773,0,1.486-.059,2.14-.119v-8.323c0-.892.416-1.367,1.308-1.367h10.582a1.208,1.208,0,0,1,1.308,1.367v15.279a1.2,1.2,0,0,1-.535,1.13,26.573,26.573,0,0,1-14.8,4.4,22.853,22.853,0,0,1-23.126-23.126" transform="translate(-760.878 -84.693)" fill="#004793"></path> <path id="Path_760" data-name="Path 760" d="M1211.93,147.426V105.871a1.164,1.164,0,0,1,1.308-1.308h18.489c9.274,0,15.814,6.3,15.814,15.278,0,5.648-2.437,9.393-6.183,11.652l8.026,15.695c.475.892.059,1.546-.951,1.546h-12.425a1.612,1.612,0,0,1-1.546-1.011l-6.183-13.079h-2.794v12.782a1.189,1.189,0,0,1-1.308,1.308h-10.939a1.19,1.19,0,0,1-1.308-1.308m18.37-23.364c2.2,0,3.567-1.308,3.567-3.686s-1.367-3.686-3.448-3.686h-4.934v7.372Z" transform="translate(-1047.437 -90.371)" fill="#004793"></path> </svg>