<svg width="165" height="149" viewBox="0 0 165 149" fill="none" xmlns="http://www.w3.org/2000/svg">
<path d="M82.5649 108.802C54.2736 108.802 31.2584 85.787 31.2584 57.4953C31.2584 29.2036 54.2736 6.18814 82.5649 6.18814C110.856 6.18814 133.871 29.2036 133.871 57.4953C133.882 85.787 110.856 108.802 82.5649 108.802Z" fill="white"/>
<path d="M82.565 7.13262C110.335 7.13262 132.927 29.7247 132.927 57.4953C132.927 85.2658 110.335 107.858 82.565 107.858C54.7948 107.858 32.203 85.2658 32.203 57.4953C32.203 29.7247 54.7948 7.13262 82.565 7.13262ZM82.565 5.24362C53.7092 5.24362 30.314 28.6391 30.314 57.4953C30.314 86.3515 53.7092 109.747 82.565 109.747C111.421 109.747 134.816 86.3515 134.816 57.4953C134.827 28.6391 111.432 5.24362 82.565 5.24362Z" fill="#FF914D"/>
<path d="M82.3696 113.927C51.2557 113.927 25.939 88.6096 25.939 57.4953C25.939 26.381 51.2557 1.06396 82.3696 1.06396C113.484 1.06396 138.8 26.381 138.8 57.4953C138.8 88.6096 113.484 113.927 82.3696 113.927Z" fill="white"/>
<path d="M82.3696 2.12787C112.897 2.12787 137.736 26.9672 137.736 57.4953C137.736 88.0234 112.897 112.863 82.3696 112.863C51.8419 112.863 27.0029 88.0234 27.0029 57.4953C27.0029 26.9672 51.8419 2.12787 82.3696 2.12787ZM82.3696 0C50.6152 0 24.8751 25.7404 24.8751 57.4953C24.8751 89.2501 50.6152 114.991 82.3696 114.991C114.124 114.991 139.864 89.2501 139.864 57.4953C139.864 25.7404 114.124 0 82.3696 0Z" fill="#2D2D2D"/>
<path d="M82.565 108.726C54.3172 108.726 31.3345 85.7435 31.3345 57.4953C31.3345 29.247 54.3172 6.26413 82.565 6.26413C110.813 6.26413 133.795 29.247 133.795 57.4953C133.795 85.7435 110.824 108.726 82.565 108.726Z" fill="white"/>
<path d="M82.5651 7.43665C110.205 7.43665 132.623 29.8442 132.623 57.4953C132.623 85.1356 110.216 107.554 82.5651 107.554C54.9143 107.554 32.5071 85.1464 32.5071 57.4953C32.5179 29.855 54.9252 7.43665 82.5651 7.43665ZM82.5651 5.08084C53.6658 5.08084 30.1512 28.5957 30.1512 57.4953C30.1512 86.3949 53.6658 109.91 82.5651 109.91C111.464 109.91 134.979 86.3949 134.979 57.4953C134.979 28.5957 111.475 5.08084 82.5651 5.08084Z" fill="#FF914D"/>
<path d="M48.5201 40.3314C49.356 38.8658 50.5067 37.715 51.9506 36.9008C53.4053 36.0757 55.0337 35.674 56.8359 35.674C58.942 35.674 60.7985 36.2168 62.3835 37.2916C63.9685 38.3773 65.0758 39.8755 65.7054 41.7862H61.3521C60.9178 40.8851 60.31 40.2119 59.5283 39.756C58.7467 39.3109 57.8348 39.0829 56.8143 39.0829C55.7178 39.0829 54.7407 39.3435 53.883 39.8537C53.0254 40.364 52.3632 41.0913 51.8855 42.0359C51.4078 42.9695 51.169 44.0768 51.169 45.3362C51.169 46.5846 51.4078 47.6703 51.8855 48.6257C52.3632 49.5702 53.0254 50.2975 53.883 50.8186C54.7407 51.3289 55.7178 51.5894 56.8143 51.5894C57.8456 51.5894 58.7467 51.3614 59.5283 50.8946C60.31 50.4386 60.9178 49.7547 61.3521 48.8536H65.7054C65.0758 50.786 63.9684 52.2842 62.3942 53.359C60.8201 54.4338 58.9637 54.9657 56.8359 54.9657C55.0337 54.9657 53.4053 54.5532 51.9506 53.739C50.4958 52.9139 49.356 51.774 48.5201 50.3193C47.6842 48.8536 47.2607 47.2035 47.2607 45.347C47.2607 43.458 47.6733 41.797 48.5201 40.3314Z" fill="#FF914D"/>
<path d="M56.8357 55.6063C54.925 55.6063 53.1664 55.1612 51.6248 54.2927C50.0724 53.4133 48.8348 52.1865 47.9445 50.6232C47.0543 49.0708 46.5984 47.2795 46.5984 45.3145C46.5984 43.3495 47.0543 41.5582 47.9445 39.9949C48.8348 38.4316 50.0833 37.1831 51.6357 36.3146C53.1773 35.446 54.9359 35.001 56.8466 35.001C59.083 35.001 61.0697 35.5872 62.7633 36.738C64.4677 37.8996 65.6727 39.5281 66.3458 41.5691L66.6389 42.4484H60.9394L60.7549 42.0684C60.375 41.2868 59.8647 40.7114 59.2024 40.3314C58.5294 39.9406 57.7261 39.7452 56.8141 39.7452C55.8371 39.7452 54.9686 39.9732 54.2195 40.4183C53.4704 40.8743 52.895 41.4931 52.4716 42.329C52.0482 43.165 51.831 44.1745 51.831 45.3253C51.831 46.4544 52.0482 47.464 52.4716 48.3108C52.895 49.1468 53.4704 49.7764 54.2195 50.2324C54.9686 50.6775 55.8371 50.9055 56.8141 50.9055C57.7152 50.9055 58.5185 50.6992 59.1916 50.3084C59.8647 49.9176 60.375 49.3422 60.7549 48.5497L60.9394 48.1697H66.6281L66.3458 49.0491C65.6727 51.1118 64.4678 52.7402 62.7742 53.891C61.0806 55.0309 59.083 55.6063 56.8357 55.6063ZM49.0952 40.6571C48.3136 42.0141 47.9228 43.5884 47.9228 45.3145C47.9228 47.0407 48.3136 48.604 49.0952 49.961C49.866 51.3072 50.9409 52.382 52.2762 53.131C53.6223 53.891 55.153 54.271 56.8249 54.271C58.8116 54.271 60.5486 53.7716 62.0033 52.7728C63.1975 51.9586 64.1094 50.8512 64.7174 49.4833H61.7319C61.2542 50.3193 60.6246 50.9706 59.8429 51.4375C58.9636 51.9586 57.9323 52.2191 56.7924 52.2191C55.5765 52.2191 54.4691 51.926 53.5138 51.3506C52.5476 50.7753 51.7877 49.9502 51.2557 48.8862C50.7347 47.8549 50.4631 46.639 50.4631 45.3036C50.4631 43.9357 50.7238 42.7307 51.2557 41.6993C51.7877 40.6571 52.5476 39.832 53.5029 39.2567C54.4583 38.6813 55.5656 38.3882 56.7815 38.3882C57.9214 38.3882 58.9527 38.6487 59.8321 39.148C60.6137 39.604 61.2542 40.2554 61.7319 41.0914H64.7065C64.0985 39.7343 63.1866 38.6378 61.9816 37.8236C60.516 36.8248 58.7791 36.3146 56.8141 36.3146C55.1314 36.3146 53.6006 36.6945 52.2653 37.4545C50.9408 38.2253 49.866 39.3001 49.0952 40.6571Z" fill="#FF914D"/>
<path d="M72.1645 35.902V54.7812H68.3757V35.902H72.1645Z" fill="#FF914D"/>
<path d="M72.838 55.4434H67.7139V35.2289H72.838V55.4434ZM69.0492 54.119H71.5027V36.5751H69.0492V54.119Z" fill="#FF914D"/>
<path d="M86.9835 35.902V38.9635H79.1127V43.8054H85.1488V46.8126H79.1127V54.7921H75.3239V35.9128H86.9835V35.902Z" fill="#FF914D"/>
<path d="M79.786 55.4434H74.6619V35.2289H87.6567V39.6149H79.786V43.1215H85.8221V47.4532H79.786V55.4434ZM75.9972 54.119H78.4507V46.1395H84.4868V44.4677H78.4507V38.2904H86.3214V36.5643H75.9972V54.119Z" fill="#FF914D"/>
<path d="M92.8784 38.9635V43.6968H99.2293V46.7041H92.8784V51.7088H100.043V54.7921H89.0896V35.8803H100.043V38.9635H92.8784Z" fill="#FF914D"/>
<path d="M100.717 55.4434H88.4275V35.2072H100.717V39.6257H93.5516V43.0238H99.9025V47.3554H93.5516V51.0249H100.717V55.4434ZM89.7628 54.119H99.3814V52.3711H92.2163V46.031H98.5672V44.3591H92.2163V38.2904H99.3814V36.5426H89.7628V54.119Z" fill="#FF914D"/>
<path d="M105.884 54.2926C104.831 53.8475 103.995 53.1962 103.387 52.3494C102.779 51.5026 102.454 50.5038 102.443 49.3421H106.503C106.557 50.1129 106.829 50.7318 107.328 51.1769C107.827 51.6328 108.5 51.85 109.369 51.85C110.248 51.85 110.943 51.6329 111.453 51.2095C111.953 50.7861 112.213 50.2324 112.213 49.5484C112.213 48.9947 112.04 48.5279 111.703 48.1696C111.356 47.8114 110.932 47.5291 110.422 47.3229C109.912 47.1166 109.195 46.8886 108.294 46.6281C107.067 46.2698 106.069 45.9116 105.309 45.5642C104.538 45.2167 103.887 44.6848 103.333 43.9682C102.779 43.2517 102.508 42.3072 102.508 41.113C102.508 39.9948 102.79 39.0178 103.344 38.1927C103.898 37.3676 104.69 36.7271 105.7 36.282C106.709 35.8369 107.86 35.6197 109.163 35.6197C111.106 35.6197 112.691 36.0974 113.907 37.0419C115.123 37.9864 115.796 39.3109 115.926 41.0045H111.757C111.725 40.3531 111.443 39.8211 110.932 39.3977C110.422 38.9743 109.738 38.7572 108.891 38.7572C108.153 38.7572 107.567 38.9418 107.122 39.3217C106.677 39.7017 106.46 40.2554 106.46 40.9719C106.46 41.4822 106.622 41.8947 106.959 42.2312C107.295 42.5678 107.708 42.8392 108.207 43.0455C108.707 43.2517 109.402 43.4905 110.303 43.762C111.529 44.1202 112.528 44.4785 113.31 44.8476C114.081 45.2059 114.754 45.7487 115.307 46.4652C115.861 47.1818 116.143 48.1371 116.143 49.3096C116.143 50.3192 115.883 51.2529 115.362 52.1214C114.841 52.9899 114.07 53.6739 113.06 54.195C112.05 54.7052 110.856 54.9657 109.467 54.9657C108.121 54.9766 106.937 54.7486 105.884 54.2926Z" fill="#FF914D"/>
<path d="M109.434 55.6388C108.034 55.6388 106.753 55.3892 105.613 54.9115C104.451 54.4121 103.518 53.6847 102.834 52.7402C102.139 51.7848 101.781 50.6449 101.759 49.353L101.748 48.6799H107.1L107.144 49.2988C107.187 49.9067 107.383 50.3626 107.752 50.6883C108.121 51.0249 108.642 51.1878 109.348 51.1878C110.064 51.1878 110.618 51.0249 110.998 50.7101C111.356 50.417 111.519 50.0478 111.519 49.5593C111.519 49.1793 111.41 48.8754 111.193 48.6365C110.922 48.3434 110.564 48.1154 110.14 47.9417C109.652 47.7463 108.957 47.5183 108.088 47.2795C106.829 46.9104 105.798 46.5412 105.005 46.1721C104.147 45.7813 103.398 45.1733 102.78 44.3808C102.139 43.5557 101.813 42.4592 101.813 41.1239C101.813 39.8754 102.139 38.7681 102.769 37.8344C103.398 36.9008 104.289 36.1842 105.407 35.6848C106.492 35.2072 107.752 34.9684 109.141 34.9684C111.237 34.9684 112.963 35.4895 114.298 36.5317C115.666 37.5956 116.426 39.0829 116.567 40.972L116.621 41.6884H111.106L111.074 41.0588C111.052 40.5919 110.867 40.2337 110.487 39.9297C110.097 39.604 109.565 39.4412 108.87 39.4412C108.295 39.4412 107.849 39.5714 107.535 39.8537C107.242 40.1034 107.1 40.4725 107.1 40.9936C107.1 41.3193 107.198 41.569 107.404 41.7753C107.676 42.0467 108.023 42.2747 108.436 42.4484C108.902 42.6438 109.586 42.8827 110.466 43.1432C111.714 43.5123 112.756 43.8814 113.56 44.2614C114.428 44.6631 115.188 45.2819 115.807 46.0853C116.458 46.9212 116.784 48.0177 116.784 49.3313C116.784 50.4604 116.491 51.5243 115.905 52.4905C115.318 53.4567 114.45 54.2384 113.343 54.8138C112.235 55.3566 110.922 55.6388 109.434 55.6388ZM103.149 50.0152C103.246 50.7426 103.507 51.3832 103.919 51.9586C104.462 52.7077 105.2 53.283 106.145 53.6847C107.111 54.0972 108.219 54.3035 109.434 54.3035C110.715 54.3035 111.823 54.0647 112.724 53.6087C113.614 53.1527 114.298 52.5448 114.754 51.7848C115.221 51.014 115.438 50.2107 115.438 49.3205C115.438 48.3109 115.199 47.4857 114.743 46.8886C114.255 46.2589 113.658 45.7813 112.984 45.4664C112.246 45.119 111.269 44.7717 110.075 44.4243C109.141 44.142 108.425 43.9032 107.915 43.686C107.339 43.4472 106.851 43.1215 106.46 42.7307C106.004 42.2747 105.765 41.6884 105.765 41.0045C105.765 40.0817 106.069 39.3543 106.655 38.8441C107.22 38.3555 107.958 38.1167 108.859 38.1167C109.858 38.1167 110.694 38.3773 111.323 38.9092C111.812 39.3109 112.138 39.7995 112.29 40.364H115.134C114.917 39.2024 114.363 38.2904 113.473 37.5956C112.376 36.7488 110.922 36.3145 109.141 36.3145C107.947 36.3145 106.861 36.5208 105.95 36.9225C105.048 37.3133 104.375 37.867 103.887 38.5944C103.398 39.3218 103.16 40.1468 103.16 41.1456C103.16 42.177 103.388 43.0021 103.843 43.5883C104.321 44.2071 104.907 44.6848 105.57 44.9888C106.308 45.3253 107.274 45.6727 108.468 46.0201C109.38 46.2807 110.118 46.5195 110.65 46.7258C111.247 46.9646 111.758 47.312 112.17 47.7354C112.637 48.224 112.865 48.8428 112.865 49.5702C112.865 50.4604 112.528 51.1878 111.866 51.7414C111.237 52.2625 110.401 52.5339 109.358 52.5339C108.327 52.5339 107.491 52.2517 106.872 51.6872C106.395 51.2529 106.069 50.6884 105.917 50.0261H103.149V50.0152Z" fill="#FF914D"/>
<path d="M66.139 68.3299C65.5311 69.4481 64.5866 70.3493 63.2947 71.0332C62.0028 71.7172 60.3744 72.0645 58.4203 72.0645H54.4143V81.2381H49.6159V57.3324H58.4203C60.2658 57.3324 61.84 57.6473 63.1427 58.2878C64.4455 58.9283 65.4225 59.8077 66.0738 60.9259C66.7252 62.0441 67.0509 63.3143 67.0509 64.7256C67.0509 66.0175 66.747 67.2117 66.139 68.3299ZM61.1561 67.2878C61.7966 66.6798 62.1114 65.833 62.1114 64.7365C62.1114 62.4024 60.8086 61.2408 58.2031 61.2408H54.4034V68.1888H58.2031C59.5384 68.1996 60.5264 67.8957 61.1561 67.2878Z" fill="#FF914D"/>
<path d="M55.0768 81.9113H48.9539V56.6702H58.4206C60.3638 56.6702 62.0466 57.0176 63.4361 57.7016C64.8475 58.3964 65.933 59.3735 66.6495 60.6002C67.3552 61.8161 67.7134 63.2057 67.7134 64.7365C67.7134 66.1261 67.377 67.4398 66.7256 68.6448C66.0634 69.8716 65.0102 70.8812 63.6098 71.6195C62.231 72.3577 60.4833 72.7268 58.4206 72.7268H55.0768V81.9113ZM50.2893 80.5759H53.7524V71.4023H58.4206C60.2661 71.4023 61.7968 71.0875 62.991 70.4578C64.1526 69.839 65.0211 69.0248 65.5639 68.026C66.1176 67.0055 66.389 65.909 66.389 64.7474C66.389 63.4555 66.0959 62.2938 65.4989 61.2842C64.9235 60.2854 64.0332 59.4929 62.8499 58.9066C61.6448 58.3204 60.1576 58.0164 58.4206 58.0164H50.2893V80.5759ZM58.2142 68.862H53.7415V60.5786H58.2142C61.1563 60.5786 62.7848 62.055 62.7848 64.7365C62.7848 66.0175 62.3939 67.0381 61.6122 67.7763C60.8523 68.4928 59.7124 68.862 58.2142 68.862ZM55.0768 67.5266H58.2142C59.3541 67.5266 60.1901 67.2878 60.7004 66.7992C61.2106 66.3215 61.4494 65.6484 61.4494 64.7365C61.4494 62.7823 60.4506 61.9139 58.2142 61.9139H55.0768V67.5266Z" fill="#FF914D"/>
<path d="M74.6507 79.9028C72.7834 78.8498 71.2961 77.395 70.1997 75.5386C69.1032 73.6821 68.5604 71.576 68.5604 69.2201C68.5604 66.886 69.1032 64.8016 70.1997 62.9343C71.2961 61.0779 72.7834 59.6231 74.6507 58.5701C76.518 57.517 78.5807 56.9959 80.8171 56.9959C83.0752 56.9959 85.1378 57.517 86.9942 58.5701C88.8506 59.6231 90.3271 61.0779 91.4128 62.9343C92.4984 64.7908 93.0412 66.886 93.0412 69.2201C93.0412 71.576 92.4984 73.6821 91.4128 75.5386C90.3271 77.395 88.8506 78.8498 86.9725 79.9028C85.1052 80.9559 83.0426 81.477 80.8062 81.477C78.5807 81.4879 76.5288 80.9559 74.6507 79.9028ZM84.6168 76.2225C85.7132 75.5711 86.5709 74.6375 87.1897 73.4324C87.8085 72.2274 88.1124 70.816 88.1124 69.2201C88.1124 67.6243 87.8085 66.2238 87.1897 65.0296C86.5709 63.8354 85.7132 62.9126 84.6168 62.2721C83.5203 61.6316 82.2501 61.3168 80.8171 61.3168C79.3841 61.3168 78.103 61.6316 76.9957 62.2721C75.8883 62.9126 75.0307 63.8354 74.4119 65.0296C73.7931 66.2238 73.4891 67.6243 73.4891 69.2201C73.4891 70.816 73.7931 72.2274 74.4119 73.4324C75.0307 74.6375 75.8883 75.5711 76.9957 76.2225C78.103 76.8739 79.3732 77.1996 80.8171 77.1996C82.261 77.1996 83.5203 76.8739 84.6168 76.2225Z" fill="black"/>
<path d="M80.8171 82.1501C78.4722 82.1501 76.2901 81.5964 74.3251 80.489C72.3602 79.3817 70.7751 77.8401 69.6243 75.8751C68.4735 73.921 67.8873 71.6845 67.8873 69.2201C67.8873 66.7775 68.4735 64.5519 69.6243 62.5978C70.7751 60.6436 72.3602 59.0912 74.3251 57.9838C76.2901 56.8873 78.4722 56.3228 80.8171 56.3228C83.1838 56.3228 85.3767 56.8765 87.3309 57.9838C89.285 59.0912 90.859 60.6436 91.999 62.5978C93.1389 64.5519 93.7143 66.7775 93.7143 69.2201C93.7143 71.6845 93.1389 73.921 91.999 75.8751C90.859 77.8292 89.285 79.3817 87.3091 80.489C85.3441 81.5855 83.1621 82.1501 80.8171 82.1501ZM80.8171 57.6582C78.711 57.6582 76.746 58.1575 74.9765 59.1455C73.2178 60.1334 71.8065 61.523 70.7751 63.2709C69.7438 65.0188 69.2226 67.0163 69.2226 69.2201C69.2226 71.4457 69.7438 73.4541 70.7751 75.202C71.8065 76.9499 73.2178 78.3395 74.9765 79.3274C76.7352 80.3153 78.7002 80.8147 80.8171 80.8147C82.9232 80.8147 84.8882 80.3153 86.6578 79.3274C88.4165 78.3395 89.8278 76.9499 90.8374 75.202C91.8579 73.4541 92.3682 71.4348 92.3682 69.2201C92.3682 67.0272 91.847 65.0188 90.8374 63.2709C89.8169 61.523 88.4165 60.1334 86.6686 59.1455C84.9208 58.1684 82.9449 57.6582 80.8171 57.6582ZM80.8171 77.8727C79.2647 77.8727 77.8641 77.5144 76.6591 76.8087C75.4432 76.0922 74.4879 75.0609 73.8148 73.7473C73.1526 72.4445 72.8161 70.9246 72.8161 69.231C72.8161 67.5374 73.1526 66.0175 73.8148 64.7256C74.4879 63.412 75.4432 62.4024 76.6591 61.6967C77.8641 61.0019 79.2647 60.6437 80.8063 60.6437C82.3587 60.6437 83.7482 61.0019 84.9424 61.6967C86.1474 62.4024 87.0919 63.412 87.765 64.7256C88.4272 66.0175 88.7638 67.5266 88.7638 69.2201C88.7638 70.9137 88.4272 72.4337 87.765 73.7364C87.0919 75.05 86.1474 76.0814 84.9424 76.7979C83.7591 77.5036 82.3696 77.8727 80.8171 77.8727ZM80.8171 61.979C79.5035 61.979 78.331 62.2721 77.3322 62.8475C76.3334 63.4229 75.5626 64.2371 75.0089 65.3336C74.4444 66.4301 74.1623 67.7437 74.1623 69.2201C74.1623 70.7075 74.4444 72.0211 75.0089 73.1285C75.5735 74.2358 76.3334 75.0609 77.3431 75.6472C78.3418 76.2334 79.5144 76.5265 80.828 76.5265C82.1416 76.5265 83.3031 76.2334 84.2911 75.6472C85.2681 75.0609 86.0498 74.2141 86.6034 73.1285C87.168 72.0211 87.4503 70.7075 87.4503 69.2201C87.4503 67.7328 87.168 66.4301 86.6034 65.3336C86.0498 64.2588 85.2681 63.4229 84.2911 62.8475C83.2923 62.2721 82.1307 61.979 80.8171 61.979Z" fill="black"/>
<path d="M110.867 58.8089C112.778 59.786 114.243 61.1865 115.285 62.9995C116.328 64.8125 116.849 66.9186 116.849 69.3179C116.849 71.7171 116.328 73.8124 115.285 75.6037C114.243 77.395 112.778 78.7846 110.867 79.7617C108.956 80.7388 106.752 81.2381 104.245 81.2381H95.8854V57.3324H104.245C106.752 57.3433 108.956 57.8319 110.867 58.8089ZM109.89 75.1151C111.258 73.7472 111.942 71.8149 111.942 69.3288C111.942 66.8427 111.258 64.8885 109.89 63.488C108.522 62.0876 106.579 61.3819 104.071 61.3819H100.684V77.167H104.071C106.579 77.167 108.522 76.483 109.89 75.1151Z" fill="#FF914D"/>
<path d="M104.245 81.9113H95.2233V56.6702H104.245C106.85 56.6702 109.184 57.1913 111.171 58.2118C113.179 59.254 114.764 60.7522 115.861 62.6738C116.957 64.5845 117.511 66.821 117.511 69.3288C117.511 71.8366 116.957 74.0621 115.861 75.9511C114.764 77.851 113.179 79.3383 111.171 80.3697C109.184 81.3902 106.85 81.9113 104.245 81.9113ZM96.5477 80.5759H104.234C106.622 80.5759 108.75 80.1091 110.552 79.1755C112.333 78.2527 113.733 76.9499 114.699 75.278C115.676 73.5953 116.165 71.5978 116.165 69.3288C116.165 67.0598 115.665 65.0514 114.699 63.336C113.733 61.6425 112.333 60.318 110.552 59.4061C108.75 58.4833 106.622 58.0056 104.234 58.0056H96.5477V80.5759ZM104.071 77.8293H100.011V60.7088H104.071C106.752 60.7088 108.88 61.4905 110.368 63.0212C111.855 64.552 112.615 66.669 112.615 69.3288C112.615 71.9886 111.855 74.0947 110.368 75.5929C108.869 77.0802 106.752 77.8293 104.071 77.8293ZM101.346 76.5048H104.071C106.383 76.5048 108.186 75.8751 109.423 74.6484C110.661 73.4107 111.28 71.6303 111.28 69.3288C111.28 67.0272 110.65 65.2251 109.412 63.9549C108.175 62.6955 106.383 62.055 104.071 62.055H101.346V76.5048Z" fill="#FF914D"/>
<path d="M0 127.551C0 126.644 0.208781 125.831 0.626343 125.112C1.05279 124.392 1.62583 123.833 2.34545 123.433C3.07397 123.024 3.86911 122.82 4.73089 122.82C5.71705 122.82 6.59215 123.064 7.3562 123.553C8.12913 124.032 8.68884 124.717 9.03533 125.605H7.20961C6.96973 125.116 6.63657 124.752 6.21012 124.512C5.78368 124.272 5.2906 124.152 4.73089 124.152C4.11787 124.152 3.57149 124.29 3.09174 124.565C2.61198 124.841 2.2344 125.236 1.95899 125.752C1.69246 126.267 1.55919 126.867 1.55919 127.551C1.55919 128.235 1.69246 128.834 1.95899 129.35C2.2344 129.865 2.61198 130.265 3.09174 130.549C3.57149 130.825 4.11787 130.962 4.73089 130.962C5.2906 130.962 5.78368 130.842 6.21012 130.602C6.63657 130.363 6.96973 129.998 7.20961 129.51H9.03533C8.68884 130.398 8.12913 131.082 7.3562 131.562C6.59215 132.042 5.71705 132.282 4.73089 132.282C3.86023 132.282 3.06508 132.082 2.34545 131.682C1.62583 131.273 1.05279 130.709 0.626343 129.989C0.208781 129.27 0 128.457 0 127.551Z" fill="white"/>
<path d="M11.5865 123.886C11.3111 123.886 11.0801 123.793 10.8935 123.606C10.707 123.419 10.6137 123.188 10.6137 122.913C10.6137 122.638 10.707 122.407 10.8935 122.22C11.0801 122.033 11.3111 121.94 11.5865 121.94C11.853 121.94 12.0796 122.033 12.2662 122.22C12.4527 122.407 12.546 122.638 12.546 122.913C12.546 123.188 12.4527 123.419 12.2662 123.606C12.0796 123.793 11.853 123.886 11.5865 123.886ZM12.3328 124.859V132.202H10.8136V124.859H12.3328Z" fill="white"/>
<path d="M15.8466 125.925C16.0687 125.552 16.3619 125.263 16.7261 125.059C17.0993 124.845 17.5391 124.739 18.0455 124.739V126.311H17.659C17.0638 126.311 16.6107 126.462 16.2997 126.764C15.9976 127.066 15.8466 127.591 15.8466 128.337V132.202H14.3274V124.859H15.8466V125.925Z" fill="white"/>
<path d="M18.9355 128.523C18.9355 127.768 19.0866 127.106 19.3886 126.538C19.6996 125.96 20.126 125.516 20.668 125.205C21.2099 124.894 21.8318 124.739 22.5337 124.739C23.4221 124.739 24.1551 124.952 24.7325 125.378C25.3189 125.796 25.7142 126.396 25.9186 127.177H24.2794C24.1462 126.813 23.9329 126.529 23.6398 126.325C23.3466 126.12 22.9779 126.018 22.5337 126.018C21.9118 126.018 21.4142 126.24 21.0411 126.684C20.6768 127.12 20.4947 127.733 20.4947 128.523C20.4947 129.314 20.6768 129.932 21.0411 130.376C21.4142 130.82 21.9118 131.042 22.5337 131.042C23.4132 131.042 23.9951 130.656 24.2794 129.883H25.9186C25.7054 130.629 25.3056 131.224 24.7192 131.669C24.1328 132.104 23.4043 132.322 22.5337 132.322C21.8318 132.322 21.2099 132.166 20.668 131.855C20.126 131.535 19.6996 131.091 19.3886 130.522C19.0866 129.945 18.9355 129.279 18.9355 128.523Z" fill="white"/>
<path d="M34.0825 124.859V132.202H32.5633V131.335C32.3234 131.637 32.008 131.877 31.6171 132.055C31.2351 132.224 30.8264 132.308 30.3911 132.308C29.8136 132.308 29.2939 132.188 28.8319 131.948C28.3788 131.709 28.019 131.353 27.7524 130.882C27.4948 130.411 27.366 129.843 27.366 129.176V124.859H28.8718V128.95C28.8718 129.607 29.0362 130.114 29.3649 130.469C29.6936 130.816 30.1423 130.989 30.7109 130.989C31.2795 130.989 31.7281 130.816 32.0569 130.469C32.3945 130.114 32.5633 129.607 32.5633 128.95V124.859H34.0825Z" fill="white"/>
<path d="M36.8599 123.886C36.5845 123.886 36.3535 123.793 36.1669 123.606C35.9804 123.419 35.8871 123.188 35.8871 122.913C35.8871 122.638 35.9804 122.407 36.1669 122.22C36.3535 122.033 36.5845 121.94 36.8599 121.94C37.1264 121.94 37.353 122.033 37.5396 122.22C37.7261 122.407 37.8194 122.638 37.8194 122.913C37.8194 123.188 37.7261 123.419 37.5396 123.606C37.353 123.793 37.1264 123.886 36.8599 123.886ZM37.6062 124.859V132.202H36.087V124.859H37.6062Z" fill="white"/>
<path d="M41.3732 126.098V130.163C41.3732 130.438 41.4354 130.638 41.5598 130.762C41.693 130.878 41.9151 130.936 42.2261 130.936H43.1589V132.202H41.9596C41.2755 132.202 40.7513 132.042 40.387 131.722C40.0228 131.402 39.8407 130.882 39.8407 130.163V126.098H38.9744V124.859H39.8407V123.033H41.3732V124.859H43.1589V126.098H41.3732Z" fill="white"/>
<path d="M47.7442 132.322C47.0512 132.322 46.4249 132.166 45.8651 131.855C45.3054 131.535 44.8657 131.091 44.5458 130.522C44.226 129.945 44.0661 129.279 44.0661 128.523C44.0661 127.777 44.2304 127.115 44.5592 126.538C44.8879 125.96 45.3365 125.516 45.9051 125.205C46.4737 124.894 47.109 124.739 47.8108 124.739C48.5127 124.739 49.1479 124.894 49.7165 125.205C50.2851 125.516 50.7337 125.96 51.0625 126.538C51.3912 127.115 51.5555 127.777 51.5555 128.523C51.5555 129.27 51.3867 129.932 51.0491 130.509C50.7115 131.087 50.2495 131.535 49.6632 131.855C49.0857 132.166 48.446 132.322 47.7442 132.322ZM47.7442 131.002C48.1351 131.002 48.4993 130.909 48.8369 130.722C49.1834 130.536 49.4633 130.256 49.6765 129.883C49.8897 129.51 49.9963 129.057 49.9963 128.523C49.9963 127.99 49.8942 127.542 49.6898 127.177C49.4855 126.804 49.2145 126.524 48.8769 126.338C48.5393 126.151 48.1751 126.058 47.7842 126.058C47.3932 126.058 47.029 126.151 46.6914 126.338C46.3627 126.524 46.1006 126.804 45.9051 127.177C45.7097 127.542 45.6119 127.99 45.6119 128.523C45.6119 129.314 45.8118 129.927 46.2116 130.363C46.6203 130.789 47.1312 131.002 47.7442 131.002Z" fill="white"/>
<path d="M58.0383 122.94V132.202H56.5191V122.94H58.0383Z" fill="white"/>
<path d="M61.5521 125.951C61.8098 125.596 62.1607 125.307 62.6049 125.085C63.058 124.854 63.56 124.739 64.1108 124.739C64.7594 124.739 65.3457 124.894 65.8699 125.205C66.3941 125.516 66.8072 125.96 67.1093 126.538C67.4113 127.106 67.5624 127.759 67.5624 128.497C67.5624 129.234 67.4113 129.896 67.1093 130.482C66.8072 131.06 66.3896 131.513 65.8566 131.842C65.3324 132.162 64.7505 132.322 64.1108 132.322C63.5422 132.322 63.0358 132.211 62.5916 131.988C62.1563 131.766 61.8098 131.482 61.5521 131.135V132.202H60.0329V122.34H61.5521V125.951ZM66.0165 128.497C66.0165 127.99 65.9099 127.555 65.6967 127.191C65.4923 126.818 65.2169 126.538 64.8704 126.351C64.5328 126.156 64.1686 126.058 63.7777 126.058C63.3956 126.058 63.0314 126.156 62.6849 126.351C62.3473 126.547 62.0719 126.831 61.8587 127.204C61.6543 127.577 61.5521 128.017 61.5521 128.523C61.5521 129.03 61.6543 129.474 61.8587 129.856C62.0719 130.229 62.3473 130.514 62.6849 130.709C63.0314 130.904 63.3956 131.002 63.7777 131.002C64.1686 131.002 64.5328 130.904 64.8704 130.709C65.2169 130.505 65.4923 130.212 65.6967 129.829C65.9099 129.447 66.0165 129.003 66.0165 128.497Z" fill="white"/>
<path d="M75.7946 128.35C75.7946 128.626 75.7768 128.874 75.7413 129.097H70.1308C70.1753 129.683 70.3929 130.154 70.7838 130.509C71.1747 130.865 71.6545 131.042 72.2231 131.042C73.0404 131.042 73.6179 130.7 73.9555 130.016H75.5947C75.3726 130.691 74.9683 131.247 74.382 131.682C73.8045 132.108 73.0849 132.322 72.2231 132.322C71.5212 132.322 70.8904 132.166 70.3307 131.855C69.7799 131.535 69.3446 131.091 69.0247 130.522C68.7138 129.945 68.5583 129.279 68.5583 128.523C68.5583 127.768 68.7093 127.106 69.0114 126.538C69.3224 125.96 69.7533 125.516 70.3041 125.205C70.8638 124.894 71.5035 124.739 72.2231 124.739C72.9161 124.739 73.5335 124.89 74.0755 125.192C74.6174 125.494 75.0394 125.92 75.3415 126.471C75.6435 127.013 75.7946 127.639 75.7946 128.35ZM74.2087 127.87C74.1998 127.311 73.9999 126.862 73.609 126.524C73.2181 126.187 72.7339 126.018 72.1565 126.018C71.6323 126.018 71.1836 126.187 70.8105 126.524C70.4373 126.853 70.2152 127.302 70.1442 127.87H74.2087Z" fill="white"/>
<path d="M78.8088 125.925C79.031 125.552 79.3241 125.263 79.6884 125.059C80.0615 124.845 80.5013 124.739 81.0077 124.739V126.311H80.6212C80.026 126.311 79.5729 126.462 79.2619 126.764C78.9599 127.066 78.8088 127.591 78.8088 128.337V132.202H77.2896V124.859H78.8088V125.925Z" fill="white"/>
<path d="M85.5892 132.322C84.8962 132.322 84.2699 132.166 83.7102 131.855C83.1505 131.535 82.7107 131.091 82.3909 130.522C82.071 129.945 81.9111 129.279 81.9111 128.523C81.9111 127.777 82.0755 127.115 82.4042 126.538C82.7329 125.96 83.1816 125.516 83.7502 125.205C84.3187 124.894 84.954 124.739 85.6558 124.739C86.3577 124.739 86.9929 124.894 87.5615 125.205C88.1301 125.516 88.5788 125.96 88.9075 126.538C89.2362 127.115 89.4006 127.777 89.4006 128.523C89.4006 129.27 89.2318 129.932 88.8942 130.509C88.5566 131.087 88.0946 131.535 87.5082 131.855C86.9307 132.166 86.2911 132.322 85.5892 132.322ZM85.5892 131.002C85.9801 131.002 86.3444 130.909 86.682 130.722C87.0285 130.536 87.3083 130.256 87.5215 129.883C87.7348 129.51 87.8414 129.057 87.8414 128.523C87.8414 127.99 87.7392 127.542 87.5349 127.177C87.3305 126.804 87.0596 126.524 86.7219 126.338C86.3843 126.151 86.0201 126.058 85.6292 126.058C85.2383 126.058 84.874 126.151 84.5364 126.338C84.2077 126.524 83.9456 126.804 83.7502 127.177C83.5547 127.542 83.457 127.99 83.457 128.523C83.457 129.314 83.6569 129.927 84.0567 130.363C84.4653 130.789 84.9762 131.002 85.5892 131.002Z" fill="white"/>
<path d="M90.396 128.497C90.396 127.759 90.547 127.106 90.8491 126.538C91.16 125.969 91.5776 125.529 92.1018 125.218C92.6348 124.899 93.2212 124.739 93.8609 124.739C94.4383 124.739 94.9403 124.854 95.3668 125.085C95.8021 125.307 96.1486 125.587 96.4062 125.925V124.859H97.9388V132.202H96.4062V131.109C96.1486 131.455 95.7976 131.744 95.3534 131.975C94.9092 132.206 94.4028 132.322 93.8342 132.322C93.2034 132.322 92.6259 132.162 92.1018 131.842C91.5776 131.513 91.16 131.06 90.8491 130.482C90.547 129.896 90.396 129.234 90.396 128.497ZM96.4062 128.523C96.4062 128.017 96.2996 127.577 96.0864 127.204C95.882 126.831 95.6111 126.547 95.2735 126.351C94.9359 126.156 94.5716 126.058 94.1807 126.058C93.7898 126.058 93.4255 126.156 93.0879 126.351C92.7503 126.538 92.4749 126.818 92.2617 127.191C92.0574 127.555 91.9552 127.99 91.9552 128.497C91.9552 129.003 92.0574 129.447 92.2617 129.829C92.4749 130.212 92.7503 130.505 93.0879 130.709C93.4344 130.904 93.7987 131.002 94.1807 131.002C94.5716 131.002 94.9359 130.904 95.2735 130.709C95.6111 130.514 95.882 130.229 96.0864 129.856C96.2996 129.474 96.4062 129.03 96.4062 128.523Z" fill="white"/>
<path d="M108.823 124.739C109.4 124.739 109.916 124.859 110.369 125.099C110.831 125.338 111.191 125.694 111.448 126.165C111.715 126.636 111.848 127.204 111.848 127.87V132.202H110.342V128.097C110.342 127.44 110.178 126.938 109.849 126.591C109.52 126.236 109.072 126.058 108.503 126.058C107.934 126.058 107.481 126.236 107.144 126.591C106.815 126.938 106.651 127.44 106.651 128.097V132.202H105.145V128.097C105.145 127.44 104.98 126.938 104.652 126.591C104.323 126.236 103.874 126.058 103.306 126.058C102.737 126.058 102.284 126.236 101.946 126.591C101.618 126.938 101.453 127.44 101.453 128.097V132.202H99.9342V124.859H101.453V125.698C101.702 125.396 102.018 125.161 102.4 124.992C102.782 124.823 103.19 124.739 103.626 124.739C104.212 124.739 104.736 124.863 105.198 125.112C105.66 125.361 106.015 125.72 106.264 126.191C106.486 125.747 106.833 125.396 107.304 125.139C107.775 124.872 108.281 124.739 108.823 124.739Z" fill="white"/>
<path d="M120.511 128.35C120.511 128.626 120.493 128.874 120.458 129.097H114.847C114.892 129.683 115.109 130.154 115.5 130.509C115.891 130.865 116.371 131.042 116.94 131.042C117.757 131.042 118.334 130.7 118.672 130.016H120.311C120.089 130.691 119.685 131.247 119.098 131.682C118.521 132.108 117.801 132.322 116.94 132.322C116.238 132.322 115.607 132.166 115.047 131.855C114.496 131.535 114.061 131.091 113.741 130.522C113.43 129.945 113.275 129.279 113.275 128.523C113.275 127.768 113.426 127.106 113.728 126.538C114.039 125.96 114.47 125.516 115.021 125.205C115.58 124.894 116.22 124.739 116.94 124.739C117.633 124.739 118.25 124.89 118.792 125.192C119.334 125.494 119.756 125.92 120.058 126.471C120.36 127.013 120.511 127.639 120.511 128.35ZM118.925 127.87C118.916 127.311 118.716 126.862 118.326 126.524C117.935 126.187 117.45 126.018 116.873 126.018C116.349 126.018 115.9 126.187 115.527 126.524C115.154 126.853 114.932 127.302 114.861 127.87H118.925Z" fill="white"/>
<path d="M123.525 125.925C123.747 125.552 124.041 125.263 124.405 125.059C124.778 124.845 125.218 124.739 125.724 124.739V126.311H125.338C124.742 126.311 124.289 126.462 123.978 126.764C123.676 127.066 123.525 127.591 123.525 128.337V132.202H122.006V124.859H123.525V125.925Z" fill="white"/>
<path d="M127.894 123.886C127.618 123.886 127.387 123.793 127.201 123.606C127.014 123.419 126.921 123.188 126.921 122.913C126.921 122.638 127.014 122.407 127.201 122.22C127.387 122.033 127.618 121.94 127.894 121.94C128.16 121.94 128.387 122.033 128.573 122.22C128.76 122.407 128.853 122.638 128.853 122.913C128.853 123.188 128.76 123.419 128.573 123.606C128.387 123.793 128.16 123.886 127.894 123.886ZM128.64 124.859V132.202H127.121V124.859H128.64Z" fill="white"/>
<path d="M130.128 128.523C130.128 127.768 130.279 127.106 130.581 126.538C130.892 125.96 131.319 125.516 131.86 125.205C132.402 124.894 133.024 124.739 133.726 124.739C134.615 124.739 135.348 124.952 135.925 125.378C136.511 125.796 136.907 126.396 137.111 127.177H135.472C135.339 126.813 135.125 126.529 134.832 126.325C134.539 126.12 134.17 126.018 133.726 126.018C133.104 126.018 132.607 126.24 132.234 126.684C131.869 127.12 131.687 127.733 131.687 128.523C131.687 129.314 131.869 129.932 132.234 130.376C132.607 130.82 133.104 131.042 133.726 131.042C134.606 131.042 135.188 130.656 135.472 129.883H137.111C136.898 130.629 136.498 131.224 135.912 131.669C135.325 132.104 134.597 132.322 133.726 132.322C133.024 132.322 132.402 132.166 131.86 131.855C131.319 131.535 130.892 131.091 130.581 130.522C130.279 129.945 130.128 129.279 130.128 128.523Z" fill="white"/>
<path d="M138.119 128.497C138.119 127.759 138.27 127.106 138.572 126.538C138.883 125.969 139.3 125.529 139.824 125.218C140.358 124.899 140.944 124.739 141.584 124.739C142.161 124.739 142.663 124.854 143.089 125.085C143.525 125.307 143.871 125.587 144.129 125.925V124.859H145.661V132.202H144.129V131.109C143.871 131.455 143.52 131.744 143.076 131.975C142.632 132.206 142.126 132.322 141.557 132.322C140.926 132.322 140.349 132.162 139.824 131.842C139.3 131.513 138.883 131.06 138.572 130.482C138.27 129.896 138.119 129.234 138.119 128.497ZM144.129 128.523C144.129 128.017 144.022 127.577 143.809 127.204C143.605 126.831 143.334 126.547 142.996 126.351C142.659 126.156 142.294 126.058 141.903 126.058C141.513 126.058 141.148 126.156 140.811 126.351C140.473 126.538 140.198 126.818 139.984 127.191C139.78 127.555 139.678 127.99 139.678 128.497C139.678 129.003 139.78 129.447 139.984 129.829C140.198 130.212 140.473 130.505 140.811 130.709C141.157 130.904 141.521 131.002 141.903 131.002C142.294 131.002 142.659 130.904 142.996 130.709C143.334 130.514 143.605 130.229 143.809 129.856C144.022 129.474 144.129 129.03 144.129 128.523Z" fill="white"/>
<path d="M151.362 124.739C151.939 124.739 152.454 124.859 152.908 125.099C153.37 125.338 153.729 125.694 153.987 126.165C154.245 126.636 154.373 127.204 154.373 127.87V132.202H152.868V128.097C152.868 127.44 152.703 126.938 152.374 126.591C152.046 126.236 151.597 126.058 151.029 126.058C150.46 126.058 150.007 126.236 149.669 126.591C149.34 126.938 149.176 127.44 149.176 128.097V132.202H147.657V124.859H149.176V125.698C149.425 125.396 149.74 125.161 150.122 124.992C150.513 124.823 150.926 124.739 151.362 124.739Z" fill="white"/>
<path d="M159.496 132.322C158.803 132.322 158.177 132.166 157.617 131.855C157.058 131.535 156.618 131.091 156.298 130.522C155.978 129.945 155.818 129.279 155.818 128.523C155.818 127.777 155.983 127.115 156.311 126.538C156.64 125.96 157.089 125.516 157.657 125.205C158.226 124.894 158.861 124.739 159.563 124.739C160.265 124.739 160.9 124.894 161.469 125.205C162.037 125.516 162.486 125.96 162.815 126.538C163.143 127.115 163.308 127.777 163.308 128.523C163.308 129.27 163.139 129.932 162.801 130.509C162.464 131.087 162.002 131.535 161.415 131.855C160.838 132.166 160.198 132.322 159.496 132.322ZM159.496 131.002C159.887 131.002 160.251 130.909 160.589 130.722C160.936 130.536 161.215 130.256 161.429 129.883C161.642 129.51 161.748 129.057 161.748 128.523C161.748 127.99 161.646 127.542 161.442 127.177C161.238 126.804 160.967 126.524 160.629 126.338C160.291 126.151 159.927 126.058 159.536 126.058C159.145 126.058 158.781 126.151 158.444 126.338C158.115 126.524 157.853 126.804 157.657 127.177C157.462 127.542 157.364 127.99 157.364 128.523C157.364 129.314 157.564 129.927 157.964 130.363C158.372 130.789 158.883 131.002 159.496 131.002Z" fill="white"/>
<path d="M0 144.488C0 143.751 0.151033 143.098 0.453099 142.529C0.76405 141.961 1.18161 141.521 1.70579 141.21C2.23884 140.89 2.82965 140.73 3.4782 140.73C3.95795 140.73 4.42882 140.837 4.89081 141.05C5.36167 141.254 5.73481 141.53 6.01023 141.876V138.331H7.54277V148.193H6.01023V147.087C5.76147 147.442 5.41498 147.735 4.97076 147.966C4.53543 148.197 4.03347 148.313 3.46488 148.313C2.82521 148.313 2.23884 148.153 1.70579 147.833C1.18161 147.504 0.76405 147.051 0.453099 146.474C0.151033 145.888 0 145.226 0 144.488ZM6.01023 144.515C6.01023 144.008 5.90362 143.569 5.69039 143.196C5.48605 142.822 5.21508 142.538 4.87748 142.343C4.53988 142.147 4.17562 142.049 3.78471 142.049C3.3938 142.049 3.02955 142.147 2.69194 142.343C2.35434 142.529 2.07893 142.809 1.8657 143.182C1.66136 143.546 1.55919 143.982 1.55919 144.488C1.55919 144.995 1.66136 145.439 1.8657 145.821C2.07893 146.203 2.35434 146.496 2.69194 146.7C3.03843 146.896 3.40269 146.994 3.78471 146.994C4.17562 146.994 4.53988 146.896 4.87748 146.7C5.21508 146.505 5.48605 146.221 5.69039 145.848C5.90362 145.465 6.01023 145.021 6.01023 144.515Z" fill="white"/>
<path d="M16.2681 144.342C16.2681 144.617 16.2503 144.866 16.2147 145.088H10.6043C10.6487 145.674 10.8664 146.145 11.2573 146.501C11.6482 146.856 12.128 147.034 12.6966 147.034C13.5139 147.034 14.0914 146.692 14.429 146.007H16.0682C15.846 146.683 15.4418 147.238 14.8554 147.673C14.278 148.1 13.5583 148.313 12.6966 148.313C11.9947 148.313 11.3639 148.157 10.8042 147.847C10.2534 147.527 9.81805 147.082 9.49822 146.514C9.18727 145.936 9.03179 145.27 9.03179 144.515C9.03179 143.76 9.18282 143.098 9.48489 142.529C9.79584 141.952 10.2267 141.507 10.7776 141.197C11.3373 140.886 11.9769 140.73 12.6966 140.73C13.3895 140.73 14.007 140.881 14.5489 141.183C15.0909 141.485 15.5129 141.912 15.815 142.463C16.117 143.005 16.2681 143.631 16.2681 144.342ZM14.6822 143.862C14.6733 143.302 14.4734 142.853 14.0825 142.516C13.6916 142.178 13.2074 142.009 12.6299 142.009C12.1058 142.009 11.6571 142.178 11.284 142.516C10.9108 142.845 10.6887 143.293 10.6176 143.862H14.6822Z" fill="white"/>
<path d="M26.6754 138.931V140.17H22.7441V142.902H25.8092V144.142H22.7441V148.193H21.2249V138.931H26.6754Z" fill="white"/>
<path d="M34.8132 144.342C34.8132 144.617 34.7954 144.866 34.7598 145.088H29.1494C29.1938 145.674 29.4115 146.145 29.8024 146.501C30.1933 146.856 30.6731 147.034 31.2417 147.034C32.059 147.034 32.6365 146.692 32.9741 146.007H34.6133C34.3911 146.683 33.9869 147.238 33.4005 147.673C32.8231 148.1 32.1034 148.313 31.2417 148.313C30.5398 148.313 29.909 148.157 29.3493 147.847C28.7985 147.527 28.3632 147.082 28.0433 146.514C27.7324 145.936 27.5769 145.27 27.5769 144.515C27.5769 143.76 27.7279 143.098 28.03 142.529C28.3409 141.952 28.7718 141.507 29.3227 141.197C29.8824 140.886 30.522 140.73 31.2417 140.73C31.9346 140.73 32.5521 140.881 33.094 141.183C33.636 141.485 34.058 141.912 34.3601 142.463C34.6621 143.005 34.8132 143.631 34.8132 144.342ZM33.2273 143.862C33.2184 143.302 33.0185 142.853 32.6276 142.516C32.2367 142.178 31.7525 142.009 31.175 142.009C30.6509 142.009 30.2022 142.178 29.8291 142.516C29.4559 142.845 29.2338 143.293 29.1627 143.862H33.2273Z" fill="white"/>
<path d="M38.9735 148.313C38.396 148.313 37.8763 148.211 37.4143 148.006C36.9612 147.793 36.6014 147.509 36.3349 147.154C36.0683 146.789 35.9262 146.385 35.9084 145.941H37.4809C37.5076 146.252 37.6542 146.514 37.9207 146.727C38.1961 146.931 38.5382 147.034 38.9468 147.034C39.3733 147.034 39.702 146.954 39.933 146.794C40.1729 146.625 40.2928 146.412 40.2928 146.154C40.2928 145.879 40.1596 145.674 39.893 145.541C39.6354 145.408 39.2223 145.261 38.6537 145.101C38.1028 144.95 37.6542 144.804 37.3077 144.661C36.9612 144.519 36.6591 144.302 36.4015 144.008C36.1527 143.715 36.0284 143.329 36.0284 142.849C36.0284 142.458 36.1439 142.103 36.3748 141.783C36.6058 141.454 36.9346 141.197 37.361 141.01C37.7963 140.823 38.2938 140.73 38.8536 140.73C39.6887 140.73 40.3595 140.943 40.8659 141.37C41.3811 141.787 41.6566 142.36 41.6921 143.089H40.1729C40.1462 142.76 40.013 142.498 39.7731 142.303C39.5332 142.107 39.2089 142.009 38.8003 142.009C38.4005 142.009 38.094 142.085 37.8807 142.236C37.6675 142.387 37.5609 142.587 37.5609 142.836C37.5609 143.031 37.632 143.196 37.7741 143.329C37.9163 143.462 38.0895 143.569 38.2939 143.649C38.4982 143.72 38.8003 143.813 39.2001 143.928C39.7331 144.071 40.1684 144.217 40.506 144.368C40.8525 144.51 41.1502 144.724 41.3989 145.008C41.6477 145.292 41.7765 145.67 41.7854 146.141C41.7854 146.558 41.6699 146.931 41.4389 147.26C41.2079 147.589 40.8792 147.847 40.4527 148.033C40.0352 148.22 39.5421 148.313 38.9735 148.313Z" fill="white"/>
<path d="M45.1993 142.089V146.154C45.1993 146.429 45.2615 146.629 45.3859 146.754C45.5192 146.869 45.7413 146.927 46.0522 146.927H46.9851V148.193H45.7857C45.1016 148.193 44.5774 148.033 44.2132 147.713C43.8489 147.393 43.6668 146.874 43.6668 146.154V142.089H42.8006V140.85H43.6668V139.024H45.1993V140.85H46.9851V142.089H45.1993Z" fill="white"/>
<path d="M49.1582 139.877C48.8828 139.877 48.6518 139.784 48.4653 139.597C48.2787 139.411 48.1854 139.18 48.1854 138.904C48.1854 138.629 48.2787 138.398 48.4653 138.211C48.6518 138.025 48.8828 137.932 49.1582 137.932C49.4248 137.932 49.6513 138.025 49.8379 138.211C50.0245 138.398 50.1177 138.629 50.1177 138.904C50.1177 139.18 50.0245 139.411 49.8379 139.597C49.6513 139.784 49.4248 139.877 49.1582 139.877ZM49.9045 140.85V148.193H48.3853V140.85H49.9045Z" fill="white"/>
<path d="M54.7376 146.834L56.8166 140.85H58.4291L55.6305 148.193H53.8181L51.0329 140.85H52.6587L54.7376 146.834Z" fill="white"/>
<path d="M59.071 144.488C59.071 143.751 59.2221 143.098 59.5241 142.529C59.8351 141.961 60.2526 141.521 60.7768 141.21C61.3099 140.89 61.8962 140.73 62.5359 140.73C63.1134 140.73 63.6153 140.846 64.0418 141.077C64.4771 141.299 64.8236 141.579 65.0813 141.916V140.85H66.6138V148.193H65.0813V147.1C64.8236 147.447 64.4727 147.735 64.0285 147.966C63.5843 148.197 63.0779 148.313 62.5093 148.313C61.8785 148.313 61.301 148.153 60.7768 147.833C60.2526 147.504 59.8351 147.051 59.5241 146.474C59.2221 145.888 59.071 145.226 59.071 144.488ZM65.0813 144.515C65.0813 144.008 64.9746 143.569 64.7614 143.196C64.5571 142.822 64.2861 142.538 63.9485 142.343C63.6109 142.147 63.2467 142.049 62.8557 142.049C62.4648 142.049 62.1006 142.147 61.763 142.343C61.4254 142.529 61.15 142.809 60.9367 143.182C60.7324 143.546 60.6302 143.982 60.6302 144.488C60.6302 144.995 60.7324 145.439 60.9367 145.821C61.15 146.203 61.4254 146.496 61.763 146.7C62.1095 146.896 62.4737 146.994 62.8557 146.994C63.2467 146.994 63.6109 146.896 63.9485 146.7C64.2861 146.505 64.5571 146.221 64.7614 145.848C64.9746 145.465 65.0813 145.021 65.0813 144.515Z" fill="white"/>
<path d="M70.1284 138.331V148.193H68.6092V138.331H70.1284Z" fill="white"/>
<path d="M78.8529 144.342C78.8529 144.617 78.8351 144.866 78.7996 145.088H73.1891C73.2336 145.674 73.4512 146.145 73.8422 146.501C74.2331 146.856 74.7128 147.034 75.2814 147.034C76.0988 147.034 76.6762 146.692 77.0138 146.007H78.653C78.4309 146.683 78.0267 147.238 77.4403 147.673C76.8628 148.1 76.1432 148.313 75.2814 148.313C74.5795 148.313 73.9488 148.157 73.3891 147.847C72.8382 147.527 72.4029 147.082 72.0831 146.514C71.7721 145.936 71.6166 145.27 71.6166 144.515C71.6166 143.76 71.7677 143.098 72.0697 142.529C72.3807 141.952 72.8116 141.507 73.3624 141.197C73.9221 140.886 74.5618 140.73 75.2814 140.73C75.9744 140.73 76.5918 140.881 77.1338 141.183C77.6757 141.485 78.0977 141.912 78.3998 142.463C78.7019 143.005 78.8529 143.631 78.8529 144.342ZM77.2671 143.862C77.2582 143.302 77.0583 142.853 76.6674 142.516C76.2764 142.178 75.7923 142.009 75.2148 142.009C74.6906 142.009 74.2419 142.178 73.8688 142.516C73.4957 142.845 73.2736 143.293 73.2025 143.862H77.2671Z" fill="white"/>
<path d="M83.0132 148.313C82.4358 148.313 81.916 148.211 81.454 148.006C81.0009 147.793 80.6411 147.509 80.3746 147.154C80.1081 146.789 79.9659 146.385 79.9482 145.941H81.5207C81.5473 146.252 81.6939 146.514 81.9604 146.727C82.2359 146.931 82.5779 147.034 82.9866 147.034C83.413 147.034 83.7418 146.954 83.9727 146.794C84.2126 146.625 84.3326 146.412 84.3326 146.154C84.3326 145.879 84.1993 145.674 83.9328 145.541C83.6751 145.408 83.262 145.261 82.6934 145.101C82.1426 144.95 81.6939 144.804 81.3474 144.661C81.0009 144.519 80.6989 144.302 80.4412 144.008C80.1925 143.715 80.0681 143.329 80.0681 142.849C80.0681 142.458 80.1836 142.103 80.4146 141.783C80.6456 141.454 80.9743 141.197 81.4007 141.01C81.8361 140.823 82.3336 140.73 82.8933 140.73C83.7284 140.73 84.3992 140.943 84.9056 141.37C85.4209 141.787 85.6963 142.36 85.7318 143.089H84.2126C84.186 142.76 84.0527 142.498 83.8128 142.303C83.5729 142.107 83.2487 142.009 82.84 142.009C82.4402 142.009 82.1337 142.085 81.9205 142.236C81.7072 142.387 81.6006 142.587 81.6006 142.836C81.6006 143.031 81.6717 143.196 81.8139 143.329C81.956 143.462 82.1292 143.569 82.3336 143.649C82.5379 143.72 82.84 143.813 83.2398 143.928C83.7728 144.071 84.2082 144.217 84.5458 144.368C84.8923 144.51 85.1899 144.724 85.4387 145.008C85.6874 145.292 85.8162 145.67 85.8251 146.141C85.8251 146.558 85.7096 146.931 85.4786 147.26C85.2476 147.589 84.9189 147.847 84.4925 148.033C84.0749 148.22 83.5818 148.313 83.0132 148.313Z" fill="white"/>
<path d="M90.422 144.488C90.422 143.751 90.5731 143.098 90.8751 142.529C91.1861 141.961 91.6036 141.521 92.1278 141.21C92.6609 140.89 93.2517 140.73 93.9002 140.73C94.38 140.73 94.8508 140.837 95.3128 141.05C95.7837 141.254 96.1568 141.53 96.4323 141.876V138.331H97.9648V148.193H96.4323V147.087C96.1835 147.442 95.837 147.735 95.3928 147.966C94.9575 148.197 94.4555 148.313 93.8869 148.313C93.2472 148.313 92.6609 148.153 92.1278 147.833C91.6036 147.504 91.1861 147.051 90.8751 146.474C90.5731 145.888 90.422 145.226 90.422 144.488ZM96.4323 144.515C96.4323 144.008 96.3256 143.569 96.1124 143.196C95.9081 142.822 95.6371 142.538 95.2995 142.343C94.9619 142.147 94.5976 142.049 94.2067 142.049C93.8158 142.049 93.4516 142.147 93.114 142.343C92.7764 142.529 92.5009 142.809 92.2877 143.182C92.0834 143.546 91.9812 143.982 91.9812 144.488C91.9812 144.995 92.0834 145.439 92.2877 145.821C92.5009 146.203 92.7764 146.496 93.114 146.7C93.4604 146.896 93.8247 146.994 94.2067 146.994C94.5976 146.994 94.9619 146.896 95.2995 146.7C95.6371 146.505 95.9081 146.221 96.1124 145.848C96.3256 145.465 96.4323 145.021 96.4323 144.515Z" fill="white"/>
<path d="M106.69 144.342C106.69 144.617 106.672 144.866 106.637 145.088H101.026C101.071 145.674 101.288 146.145 101.679 146.501C102.07 146.856 102.55 147.034 103.119 147.034C103.936 147.034 104.513 146.692 104.851 146.007H106.49C106.268 146.683 105.864 147.238 105.277 147.673C104.7 148.1 103.98 148.313 103.119 148.313C102.417 148.313 101.786 148.157 101.226 147.847C100.675 147.527 100.24 147.082 99.9202 146.514C99.6093 145.936 99.4538 145.27 99.4538 144.515C99.4538 143.76 99.6048 143.098 99.9069 142.529C100.218 141.952 100.649 141.507 101.2 141.197C101.759 140.886 102.399 140.73 103.119 140.73C103.812 140.73 104.429 140.881 104.971 141.183C105.513 141.485 105.935 141.912 106.237 142.463C106.539 143.005 106.69 143.631 106.69 144.342ZM105.104 143.862C105.095 143.302 104.895 142.853 104.505 142.516C104.114 142.178 103.629 142.009 103.052 142.009C102.528 142.009 102.079 142.178 101.706 142.516C101.333 142.845 101.111 143.293 101.04 143.862H105.104Z" fill="white"/>
<path d="M118.124 141.69C118.124 142.16 118.012 142.605 117.79 143.022C117.568 143.44 117.213 143.782 116.724 144.048C116.236 144.306 115.609 144.435 114.845 144.435H113.166V148.193H111.647V138.931H114.845C115.556 138.931 116.156 139.055 116.644 139.304C117.142 139.544 117.511 139.873 117.75 140.29C117.999 140.708 118.124 141.174 118.124 141.69ZM114.845 143.196C115.423 143.196 115.854 143.067 116.138 142.809C116.422 142.543 116.564 142.169 116.564 141.69C116.564 140.677 115.991 140.17 114.845 140.17H113.166V143.196H114.845Z" fill="white"/>
<path d="M122.757 148.313C122.065 148.313 121.438 148.157 120.878 147.847C120.319 147.527 119.879 147.082 119.559 146.514C119.239 145.936 119.079 145.27 119.079 144.515C119.079 143.769 119.244 143.107 119.572 142.529C119.901 141.952 120.35 141.507 120.918 141.197C121.487 140.886 122.122 140.73 122.824 140.73C123.526 140.73 124.161 140.886 124.73 141.197C125.298 141.507 125.747 141.952 126.076 142.529C126.404 143.107 126.569 143.769 126.569 144.515C126.569 145.261 126.4 145.923 126.062 146.501C125.725 147.078 125.263 147.527 124.676 147.847C124.099 148.157 123.459 148.313 122.757 148.313ZM122.757 146.994C123.148 146.994 123.513 146.9 123.85 146.714C124.197 146.527 124.477 146.247 124.69 145.874C124.903 145.501 125.01 145.048 125.01 144.515C125.01 143.982 124.907 143.533 124.703 143.169C124.499 142.796 124.228 142.516 123.89 142.329C123.553 142.143 123.188 142.049 122.797 142.049C122.407 142.049 122.042 142.143 121.705 142.329C121.376 142.516 121.114 142.796 120.918 143.169C120.723 143.533 120.625 143.982 120.625 144.515C120.625 145.306 120.825 145.919 121.225 146.354C121.634 146.78 122.144 146.994 122.757 146.994Z" fill="white"/>
<path d="M127.564 144.488C127.564 143.751 127.715 143.098 128.017 142.529C128.328 141.961 128.746 141.521 129.27 141.21C129.803 140.89 130.394 140.73 131.042 140.73C131.522 140.73 131.993 140.837 132.455 141.05C132.926 141.254 133.299 141.53 133.575 141.876V138.331H135.107V148.193H133.575V147.087C133.326 147.442 132.979 147.735 132.535 147.966C132.1 148.197 131.598 148.313 131.029 148.313C130.389 148.313 129.803 148.153 129.27 147.833C128.746 147.504 128.328 147.051 128.017 146.474C127.715 145.888 127.564 145.226 127.564 144.488ZM133.575 144.515C133.575 144.008 133.468 143.569 133.255 143.196C133.05 142.822 132.779 142.538 132.442 142.343C132.104 142.147 131.74 142.049 131.349 142.049C130.958 142.049 130.594 142.147 130.256 142.343C129.919 142.529 129.643 142.809 129.43 143.182C129.226 143.546 129.123 143.982 129.123 144.488C129.123 144.995 129.226 145.439 129.43 145.821C129.643 146.203 129.919 146.496 130.256 146.7C130.603 146.896 130.967 146.994 131.349 146.994C131.74 146.994 132.104 146.896 132.442 146.7C132.779 146.505 133.05 146.221 133.255 145.848C133.468 145.465 133.575 145.021 133.575 144.515Z" fill="white"/>
<path d="M136.596 144.515C136.596 143.76 136.747 143.098 137.049 142.529C137.36 141.952 137.787 141.507 138.329 141.197C138.87 140.886 139.492 140.73 140.194 140.73C141.083 140.73 141.816 140.943 142.393 141.37C142.979 141.787 143.375 142.387 143.579 143.169H141.94C141.807 142.805 141.593 142.52 141.3 142.316C141.007 142.112 140.638 142.009 140.194 142.009C139.572 142.009 139.075 142.232 138.702 142.676C138.337 143.111 138.155 143.724 138.155 144.515C138.155 145.306 138.337 145.923 138.702 146.367C139.075 146.811 139.572 147.034 140.194 147.034C141.074 147.034 141.656 146.647 141.94 145.874H143.579C143.366 146.62 142.966 147.216 142.38 147.66C141.793 148.095 141.065 148.313 140.194 148.313C139.492 148.313 138.87 148.157 138.329 147.847C137.787 147.527 137.36 147.082 137.049 146.514C136.747 145.936 136.596 145.27 136.596 144.515Z" fill="white"/>
<path d="M144.587 144.488C144.587 143.751 144.738 143.098 145.04 142.529C145.351 141.961 145.768 141.521 146.293 141.21C146.826 140.89 147.412 140.73 148.052 140.73C148.629 140.73 149.131 140.846 149.557 141.077C149.993 141.299 150.339 141.579 150.597 141.916V140.85H152.13V148.193H150.597V147.1C150.339 147.447 149.988 147.735 149.544 147.966C149.1 148.197 148.594 148.313 148.025 148.313C147.394 148.313 146.817 148.153 146.293 147.833C145.768 147.504 145.351 147.051 145.04 146.474C144.738 145.888 144.587 145.226 144.587 144.488ZM150.597 144.515C150.597 144.008 150.49 143.569 150.277 143.196C150.073 142.822 149.802 142.538 149.464 142.343C149.127 142.147 148.762 142.049 148.371 142.049C147.981 142.049 147.616 142.147 147.279 142.343C146.941 142.529 146.666 142.809 146.452 143.182C146.248 143.546 146.146 143.982 146.146 144.488C146.146 144.995 146.248 145.439 146.452 145.821C146.666 146.203 146.941 146.496 147.279 146.7C147.625 146.896 147.989 146.994 148.371 146.994C148.762 146.994 149.127 146.896 149.464 146.7C149.802 146.505 150.073 146.221 150.277 145.848C150.49 145.465 150.597 145.021 150.597 144.515Z" fill="white"/>
<path d="M156.79 148.313C156.213 148.313 155.693 148.211 155.231 148.006C154.778 147.793 154.418 147.509 154.152 147.154C153.885 146.789 153.743 146.385 153.725 145.941H155.298C155.324 146.252 155.471 146.514 155.737 146.727C156.013 146.931 156.355 147.034 156.764 147.034C157.19 147.034 157.519 146.954 157.75 146.794C157.99 146.625 158.11 146.412 158.11 146.154C158.11 145.879 157.976 145.674 157.71 145.541C157.452 145.408 157.039 145.261 156.47 145.101C155.92 144.95 155.471 144.804 155.124 144.661C154.778 144.519 154.476 144.302 154.218 144.008C153.969 143.715 153.845 143.329 153.845 142.849C153.845 142.458 153.961 142.103 154.192 141.783C154.423 141.454 154.751 141.197 155.178 141.01C155.613 140.823 156.111 140.73 156.67 140.73C157.505 140.73 158.176 140.943 158.683 141.37C159.198 141.787 159.473 142.36 159.509 143.089H157.99C157.963 142.76 157.83 142.498 157.59 142.303C157.35 142.107 157.026 142.009 156.617 142.009C156.217 142.009 155.911 142.085 155.697 142.236C155.484 142.387 155.378 142.587 155.378 142.836C155.378 143.031 155.449 143.196 155.591 143.329C155.733 143.462 155.906 143.569 156.111 143.649C156.315 143.72 156.617 143.813 157.017 143.928C157.55 144.071 157.985 144.217 158.323 144.368C158.669 144.51 158.967 144.724 159.216 145.008C159.464 145.292 159.593 145.67 159.602 146.141C159.602 146.558 159.487 146.931 159.256 147.26C159.025 147.589 158.696 147.847 158.269 148.033C157.852 148.22 157.359 148.313 156.79 148.313Z" fill="white"/>
<path d="M163.016 142.089V146.154C163.016 146.429 163.078 146.629 163.203 146.754C163.336 146.869 163.558 146.927 163.869 146.927H164.802V148.193H163.602C162.918 148.193 162.394 148.033 162.03 147.713C161.666 147.393 161.484 146.874 161.484 146.154V142.089H160.617V140.85H161.484V139.024H163.016V140.85H164.802V142.089H163.016Z" fill="white"/>
</svg>
