<svg width="921" height="1080" viewBox="0 0 921 1080" fill="none" xmlns="http://www.w3.org/2000/svg">
<mask id="mask0_110_395" style="mask-type:luminance" maskUnits="userSpaceOnUse" x="0" y="0" width="921" height="1080">
<path d="M920.85 0H0V1080H920.85V0Z" fill="white"/>
</mask>
<g mask="url(#mask0_110_395)">
<path d="M-228.25 1104.48L338.7 47.87L490.47 9.79999C491.64 15.12 499.49 54.28 493.26 120.05C487.11 185.17 465.53 290.44 397.67 422.12C335.93 541.91 241.7 675.82 117.57 820.17C-17.44 977.17 -211.14 1358.35 -228.24 1392.25V1104.48H-228.25Z" fill="#F85532"/>
<path d="M503.94 -66.24C503.94 -66.24 503.99 175.41 410.44 328C305.54 499.1 188.76 630.76 78.43 821.49C-39.94 1026.11 -115.97 1220.93 -115.97 1184.45V-27.94L503.94 -66.24Z" fill="white" stroke="black" stroke-miterlimit="10"/>
<path d="M477.23 -72.45C477.23 -72.45 476.38 171.27 381.88 325.42C275.91 498.27 157.94 631.27 46.49 823.95C-73.09 1030.66 -149.89 1227.46 -149.89 1190.61V-34.14L477.23 -72.45Z" fill="url(#paint0_linear_110_395)" stroke="black" stroke-miterlimit="10"/>
<path d="M467.68 -117.49C467.68 -117.49 466.83 126.23 372.33 280.38C266.36 453.22 148.39 586.22 36.9399 778.9C-82.6401 985.61 -159.44 1182.42 -159.44 1145.56V-79.19L467.68 -117.49Z" fill="url(#paint1_linear_110_395)" stroke="black" stroke-miterlimit="10"/>
</g>
<defs>
<linearGradient id="paint0_linear_110_395" x1="-149.89" y1="561.33" x2="477.23" y2="561.33" gradientUnits="userSpaceOnUse">
<stop stop-color="#000021"/>
<stop offset="1" stop-color="#0E2439"/>
</linearGradient>
<linearGradient id="paint1_linear_110_395" x1="-159.44" y1="516.28" x2="467.68" y2="516.28" gradientUnits="userSpaceOnUse">
<stop stop-color="#000021"/>
<stop offset="1" stop-color="#0E2439"/>
</linearGradient>
</defs>
</svg>
