<svg width="921" height="1080" viewBox="0 0 921 1080" fill="none" xmlns="http://www.w3.org/2000/svg">
<mask id="mask0_110_386" style="mask-type:luminance" maskUnits="userSpaceOnUse" x="0" y="0" width="921" height="1080">
<path d="M920.85 0H0V1080H920.85V0Z" fill="white"/>
</mask>
<g mask="url(#mask0_110_386)">
<path d="M1232.23 1280.64C1220.98 1272.98 1117.7 1201.82 1007.55 1098.3C939.36 1034.22 881.93 970.48 836.85 908.82C780.51 831.78 743.4 757.83 726.56 689.02C655.53 398.74 491.86 -32.26 481.17 -60.3L618.5 -2.89999L1232.23 1004.88V1280.64Z" fill="#F85532"/>
<path d="M496.75 -71.22C496.75 -71.22 457.27 121.63 568.15 299.38C612.53 370.53 661.47 448.56 711.47 527.6C798.42 665.02 846.2 844.66 921.4 957.12C1024.23 1110.91 1141.42 1173.21 1141.42 1143.18V-13.14L496.75 -71.21V-71.22Z" fill="white" stroke="black" stroke-width="1.02" stroke-miterlimit="10"/>
<path d="M504.74 -104.82C504.74 -104.82 465.26 88.03 576.14 265.78C620.52 336.93 669.46 414.96 719.45 494C806.41 631.42 854.18 811.06 929.38 923.52C1032.21 1077.31 1149.42 1139.61 1149.42 1109.58V-46.75L504.74 -104.82Z" fill="url(#paint0_linear_110_386)" stroke="black" stroke-miterlimit="10"/>
<path d="M547.81 -104.82C547.81 -104.82 508.33 88.03 619.21 265.78C663.59 336.93 712.53 414.96 762.53 494C849.48 631.42 897.26 811.06 972.46 923.52C1075.29 1077.31 1192.48 1139.61 1192.48 1109.58V-46.75L547.81 -104.82Z" fill="url(#paint1_linear_110_386)" stroke="black" stroke-miterlimit="10"/>
</g>
<defs>
<linearGradient id="paint0_linear_110_386" x1="497.91" y1="506.05" x2="1149.42" y2="506.05" gradientUnits="userSpaceOnUse">
<stop stop-color="#0E2439"/>
<stop offset="1" stop-color="#000021"/>
</linearGradient>
<linearGradient id="paint1_linear_110_386" x1="540.98" y1="506.05" x2="1192.48" y2="506.05" gradientUnits="userSpaceOnUse">
<stop stop-color="#0E2439"/>
<stop offset="1" stop-color="#000021"/>
</linearGradient>
</defs>
</svg>
