<svg width="162" height="85" viewBox="0 0 162 85" fill="none" xmlns="http://www.w3.org/2000/svg">
<path d="M0.278863 74.3334L25.3765 51.5361V46.5862L23.0759 44.2856H11.782L9.48134 46.5862V51.5361H0V43.7278L7.5293 36.1984H27.3286L34.8579 43.7278V54.3248L10.1088 76.3552V77.0524H35.1367V85.0001H0.278863V74.3334Z" fill="white"/>
<path d="M41.4264 76.913V44.2856L49.5134 36.1984H71.1253L79.2123 44.2856V76.913L71.1253 85.0001H49.5134L41.4264 76.913ZM66.6635 76.913L69.731 73.8454V47.3531L66.6635 44.2856H53.9752L50.9078 47.3531V73.8454L53.9752 76.913H66.6635Z" fill="white"/>
<path d="M85.7896 74.3334L110.887 51.5361V46.5862L108.587 44.2856H97.2927L94.9921 46.5862V51.5361H85.5107V43.7278L93.04 36.1984H112.839L120.369 43.7278V54.3248L95.6195 76.3552V77.0524H120.647V85.0001H85.7896V74.3334Z" fill="white"/>
<path d="M125.543 77.4707V69.8019H135.024V74.6123L137.325 76.913H149.874L152.174 74.6123V66.7343L149.943 64.5034H136V56.4163H149.943L152.174 54.1853V46.5862L149.874 44.2856H137.743L135.442 46.5862V51.3967H125.961V43.7278L133.49 36.1984H154.126L161.656 43.7278V56.974L158.1 60.4598L161.656 64.0154V77.4707L154.126 85.0001H133.072L125.543 77.4707Z" fill="white"/>
<path d="M41.6824 0.426241H53.0152V2.13121H43.5879V8.29918H52.2881V10.0041H43.5879V16.2724H53.0152V17.9774H41.6824V0.426241Z" fill="white"/>
<path d="M55.8994 15.6707V7.79772L58.2061 5.491H63.0201L65.076 7.29626V0.0752182H66.9314V17.9774H65.1262V15.6957L62.8445 17.9774H58.2061L55.8994 15.6707ZM62.4434 16.3226L65.076 13.6899V9.25196L62.669 7.14582H59.0084L57.7548 8.3744V15.094L59.0084 16.3226H62.4434Z" fill="white"/>
<path d="M70.5689 2.63267V1.52946L71.3211 0.777264H72.4243L73.1765 1.52946V2.63267L72.4243 3.38486H71.3211L70.5689 2.63267ZM70.945 5.491H72.8004V17.9774H70.945V5.491Z" fill="white"/>
<path d="M76.5648 15.6707V7.79772L78.8715 5.491H84.889L87.1957 7.79772V9.32718H85.3403V8.3744L84.0866 7.14582H79.6738L78.4202 8.3744V15.094L79.6738 16.3226H84.0866L85.3403 15.094V14.1412H87.1957V15.6707L84.889 17.9774H78.8715L76.5648 15.6707Z" fill="white"/>
<path d="M90.0835 2.63267V1.52946L90.8357 0.777264H91.9389L92.6911 1.52946V2.63267L91.9389 3.38486H90.8357L90.0835 2.63267ZM90.4596 5.491H92.315V17.9774H90.4596V5.491Z" fill="white"/>
<path d="M96.0794 15.6707V7.79772L98.3861 5.491H104.805L107.111 7.79772V15.6707L104.805 17.9774H98.3861L96.0794 15.6707ZM104.002 16.3226L105.256 15.094V8.3744L104.002 7.14582H99.1884L97.9348 8.3744V15.094L99.1884 16.3226H104.002ZM102.674 0H104.805L102.548 3.93647H100.793L102.674 0Z" fill="white"/>
<path d="M110.629 5.491H112.435V8.14874L115.092 5.491H118.929L121.235 7.79772V17.9774H119.38V8.3744L118.126 7.14582H115.594L112.485 10.2549V17.9774H110.629V5.491Z" fill="white"/>
</svg>
