<svg width="37" height="31" viewBox="0 0 37 31" fill="none" xmlns="http://www.w3.org/2000/svg">
<path d="M0.965088 10.82V2.32772L2.86007 0.432739H8.15899L10.054 2.32772V4.08233H7.6677V3.0822L7.05359 2.46809H3.96547L3.35136 3.0822V5.97731L4.38658 4.97718H8.22917L10.1242 6.87216V10.82L8.22917 12.715H2.86007L0.965088 10.82ZM7.12377 10.6797L7.73788 10.0655V7.62664L7.12377 7.01253H4.63222L3.35136 8.32849V10.0655L3.96547 10.6797H7.12377Z" fill="white"/>
<path d="M11.3598 11.9605V10.8376L12.1143 10.0831H13.3951L14.1321 10.8551V11.943L13.3951 12.715H12.1143L11.3598 11.9605Z" fill="white"/>
<path d="M20.5365 2.626V2.46809H14.3954V0.432739H23.0281V2.67864L18.0976 12.715H15.571L20.5365 2.626Z" fill="white"/>
<path d="M22.6859 11.9605V10.8376L23.4404 10.0831H24.7213L25.4582 10.8551V11.943L24.7213 12.715H23.4404L22.6859 11.9605Z" fill="white"/>
<path d="M26.7853 10.82V7.48627L27.8907 6.38087L26.9607 5.45092V2.32772L28.8557 0.432739H34.1546L36.0496 2.32772V5.45092L35.1197 6.38087L36.2251 7.48627V10.82L34.3301 12.715H28.6803L26.7853 10.82ZM33.0492 5.48602L33.6633 4.8719V3.0822L33.0492 2.46809H29.9611L29.347 3.0822V4.8719L29.9611 5.48602H33.0492ZM33.2247 10.6797L33.8388 10.0655V8.10039L33.2247 7.48627H29.7857L29.1715 8.10039V10.0655L29.7857 10.6797H33.2247Z" fill="white"/>
<path d="M2.96509 28.3771V20.1304L4.98289 18.1126H11.2995L13.3173 20.1304V28.3771L11.2995 30.3949H4.98289L2.96509 28.3771ZM10.0362 28.3596L10.931 27.4647V21.0428L10.0362 20.148H6.24621L5.35136 21.0428V27.4647L6.24621 28.3596H10.0362Z" fill="white"/>
<path d="M15.2508 28.3771V20.1304L17.2686 18.1126H23.2694L25.2521 20.0954V21.9728H22.8658V20.9727L22.0411 20.148H18.5319L17.6371 21.0428V27.4647L18.5319 28.3596H22.0411L22.8658 27.5349V26.5348H25.2521V28.4122L23.2694 30.3949H17.2686L15.2508 28.3771Z" fill="white"/>
<path d="M29.6279 20.1304H25.9608V18.1126H35.6813V20.1304H32.0142V30.3949H29.6279V20.1304Z" fill="white"/>
</svg>
