<svg width="459" height="208" viewBox="0 0 459 208" fill="none" xmlns="http://www.w3.org/2000/svg">
<path d="M58.4814 145.202H33.6907C23.8088 145.202 20.3398 144.631 18.0573 144.006C14.4705 143.001 3.03974 138.508 3.03974 121.715C3.03974 114.523 3.20276 103.944 3.52884 90.2846L4.20816 60.7654C4.23533 59.4702 4.09042 58.1749 3.73717 56.934C3.60131 56.4539 3.42922 55.8743 3.20277 55.213C1.6811 50.5302 0.974609 46.7984 0.974609 43.4471C0.974609 39.67 1.81697 36.0831 3.46545 32.768C4.28064 31.1285 5.43094 29.6793 6.84393 28.5109C11.5629 24.5798 18.0301 22.4241 26.6076 21.935L27.1602 21.9168L42.5672 21.6723C43.3009 21.6723 44.27 21.7085 46.634 21.8897C47.576 21.9621 48.2191 22.0165 48.5995 22.0346C53.0649 22.0436 58.8165 22.3788 66.1623 23.0672L67.8742 23.2211L69.4864 23.8099C80.3193 27.7591 81.0892 40.141 81.3428 44.2079L81.3518 44.3075C81.379 44.4977 81.4243 44.7242 81.4787 44.9959L81.5421 45.322C82.004 47.9669 82.2214 50.8925 82.2214 54.271C82.2214 61.5353 80.1109 66.9247 76.8774 70.584C74.8122 72.93 73.4446 75.7922 73.2634 78.9081C73.2453 79.2794 73.2181 79.6598 73.2 80.0584C73.0098 83.138 72.9826 84.5692 72.9826 85.1398V85.3028C74.6764 86.4532 76.3792 88.0926 77.919 90.4023C79.7034 93.0834 80.899 95.9094 81.4787 98.817C81.8863 100.873 82.0946 102.893 82.0946 104.822C82.0946 105.556 82.0583 106.752 81.8138 110.058C81.687 111.697 81.6145 112.802 81.6055 113.373C81.6055 124.242 79.9479 131.941 76.3883 137.566C75.0568 139.667 73.1638 141.352 70.9175 142.43C67.0771 144.278 62.9015 145.202 58.4814 145.202Z" fill="#14162D"/>
<path d="M29.5877 118.608C30.7018 118.635 32.0514 118.653 33.6817 118.653H54.8312C54.949 117.349 55.0396 115.728 55.0486 113.726C50.9274 115.121 47.4584 115.791 44.3788 115.791C39.0529 115.791 34.669 114.269 31.3449 111.271C30.7471 110.719 30.1945 110.13 29.6873 109.514C29.642 112.911 29.6058 115.954 29.5877 118.608Z" fill="#14162D"/>
<path d="M109.657 21.7719C119.974 21.7719 123.098 22.4422 125.408 22.9585C127.029 23.3208 128.578 23.982 129.955 24.9149C137.056 29.7155 140.661 38.1211 140.661 49.8962C140.661 54.57 140.226 58.8995 139.375 62.74C138.161 68.1475 135.652 71.8793 132.618 74.2977C132.79 74.5151 132.953 74.7053 133.098 74.8955C139.701 83.1743 143.089 92.2229 143.089 101.67C143.089 107.712 141.984 113.708 139.801 119.487C137.21 126.425 133.37 132.032 128.388 136.126C122.981 140.591 113.398 145.627 97.7914 145.627C96.0343 145.627 94.1955 145.564 92.2844 145.428C92.067 145.41 91.5326 145.374 90.3551 145.202C90.0653 145.156 89.7845 145.12 89.4947 145.102C87.665 144.957 85.1742 144.785 82.0402 144.586C74.0967 143.988 67.6386 139.785 64.1605 133.046C63.3634 131.506 62.8834 129.831 62.7385 128.101C62.512 125.456 62.204 122.557 61.8236 119.496C61.2711 115.347 60.9903 111.824 60.9903 108.853C60.9903 102.866 62.195 97.1232 64.5681 91.7882C65.3652 89.9857 66.5608 88.3824 68.0553 87.1053C68.7346 86.5256 69.4411 86.0003 70.1838 85.5202C65.1388 78.3737 62.5664 70.4934 62.5664 62.0607C62.5664 53.32 64.8036 45.793 69.2147 39.6972C75.6818 30.884 84.7575 25.1867 96.2516 22.7139C99.766 21.9621 101.741 21.8353 103.462 21.8353L109.657 21.7719Z" fill="#14162D"/>
<path d="M94.4311 118.943C105.644 119.686 110.345 116.588 111.532 115.61C112.872 114.514 114.014 112.684 114.956 110.148C116.034 107.286 116.55 104.523 116.55 101.661C116.55 98.3278 115.155 94.9493 112.275 91.3353C112.238 91.29 112.184 91.2266 112.093 91.136C113.561 93.8442 114.539 96.9148 114.539 100.321C114.539 107.023 111.532 112.675 106.278 115.827L104.992 116.597L103.561 117.068C101.424 117.766 99.4219 117.847 98.0994 117.847C94.8296 117.847 91.5508 117.077 88.0817 115.465C88.1089 115.664 88.136 115.864 88.1632 116.063C88.2628 116.851 88.3534 117.621 88.444 118.373C90.1287 118.49 91.5327 118.59 92.6467 118.69L93.7065 118.825C93.7427 118.844 94.1231 118.907 94.4311 118.943Z" fill="#14162D"/>
<path d="M94.1684 118.925C94.1862 118.925 94.2041 118.925 94.2219 118.925C94.2041 118.934 94.1862 118.934 94.1684 118.925Z" fill="#14162D"/>
<path d="M157.536 145.446H153.405C151.231 145.446 149.094 144.912 147.174 143.897C140.226 140.202 136.241 133.091 136.241 124.378C136.241 123.961 136.277 122.82 136.386 120.954C136.422 120.356 136.44 119.867 136.458 119.469L136.386 119.043L136.359 116.824C136.359 115.193 136.486 112.875 136.766 109.514C137.074 105.81 137.265 103.074 137.337 101.389L137.346 101.181C137.536 97.9655 137.772 94.0254 138.053 89.3697C138.207 86.8607 136.567 84.6416 134.176 83.8808C129.104 82.2594 122.247 77.3954 122.247 62.8849C122.247 62.6585 122.265 62.0154 122.347 60.9556C122.356 60.8198 122.365 60.6749 122.365 60.539V48.6371C122.365 48.5103 122.356 48.3745 122.347 48.2477C122.265 47.1426 122.238 46.4271 122.238 46.101C122.238 42.496 122.238 33.5741 127.971 27.7591C132.618 22.2973 140.679 21.6451 163.713 21.6451C187.86 21.6451 193.295 23.0309 196.782 24.4439L197.009 24.5436C201.845 26.6178 207.615 31.7354 207.615 44.4072C207.615 45.8293 207.524 47.6317 207.334 50.0773C207.153 52.3418 207.135 53.3291 207.135 53.6461V57.7764C207.135 58.1387 207.162 58.5463 207.198 58.9901L207.253 60.2039V61.9067C207.253 77.006 199.418 81.9334 194.002 83.5275C191.683 84.2159 190.098 86.3264 190.116 88.7448C190.197 97.8478 190.234 104.686 190.234 109.261C190.234 109.306 190.243 110.474 190.831 113.871C191.502 117.766 191.819 120.628 191.819 122.892C191.819 134.133 184.962 142.502 173.903 144.767C172.118 145.193 169.627 145.446 157.536 145.446Z" fill="#14162D"/>
<path d="M162.916 116.869C162.988 117.494 163.034 118.11 163.034 118.78C163.034 118.807 163.034 118.844 163.034 118.88C163.677 118.871 164.247 118.862 164.764 118.853C164.736 118.717 164.718 118.572 164.691 118.418C164.021 114.55 163.704 111.643 163.704 109.279C163.704 108.165 163.704 106.924 163.695 105.538C163.586 107.232 163.423 109.279 163.224 111.724C162.925 115.275 162.907 116.534 162.907 116.833V116.869H162.916Z" fill="#14162D"/>
<path d="M244.316 145.202H219.526C209.644 145.202 206.166 144.631 203.883 144.006C200.296 143.001 188.866 138.508 188.866 121.715C188.866 114.523 189.029 103.944 189.355 90.2846L190.034 60.6839C190.061 59.443 189.916 58.2021 189.581 57.0065C189.436 56.5083 189.255 55.9105 189.029 55.204C187.507 50.5211 186.801 46.7803 186.801 43.438C186.801 39.6609 187.643 36.074 189.291 32.7589L189.346 32.6593C190.134 31.0923 191.239 29.6974 192.579 28.5743L192.67 28.5018C197.389 24.5708 203.856 22.4241 212.434 21.9259L214.97 21.8715L217.904 14.0094C218.62 12.053 219.336 10.3773 220.051 8.94616C222.614 3.82854 227.533 0.513422 233.212 0.0695933L234.235 0.0333546C235.051 0.0333546 235.938 0.0967576 237.704 0.28697C238.474 0.305085 239.199 0.341321 239.896 0.404725H242.161L242.786 0.513413C243.157 0.48624 243.655 0.431895 244.289 0.359433C245.702 0.205452 246.671 0.114877 247.432 0.078646C250.276 -0.211201 254.398 0.178287 258.727 3.33943L258.89 3.45718C261.472 5.35024 263.256 8.14002 263.872 11.2831L264.406 12.8863V15.042C264.406 17.071 263.981 18.9006 263.328 20.531C261.924 24.0182 262.142 28.0217 263.972 31.3097C266.68 36.1737 267.024 41.7442 267.178 44.226L267.187 44.3257C267.223 44.5159 267.259 44.7423 267.314 45.005L267.377 45.3401C267.839 47.985 268.056 50.9106 268.056 54.2892C268.056 61.6531 265.892 67.0696 262.595 70.738C260.584 72.9753 259.28 75.7469 259.117 78.745C259.089 79.1707 259.071 79.6055 259.035 80.0675C258.845 83.129 258.818 84.5692 258.818 85.1489V85.3119C260.512 86.4622 262.205 88.1017 263.754 90.4114C265.538 93.1015 266.734 95.9185 267.314 98.826C267.73 100.9 267.939 102.92 267.939 104.84C267.939 105.565 267.902 106.761 267.658 110.076C267.54 111.715 267.459 112.82 267.45 113.391C267.45 124.26 265.792 131.959 262.232 137.584L262.151 137.711C260.874 139.731 259.053 141.352 256.897 142.385L256.762 142.448C252.921 144.278 248.737 145.202 244.316 145.202Z" fill="#14162D"/>
<path d="M215.432 118.608C216.546 118.635 217.895 118.653 219.526 118.653H240.675C240.793 117.349 240.884 115.728 240.893 113.726C236.772 115.121 233.302 115.791 230.223 115.791C224.897 115.791 220.513 114.269 217.198 111.271L217.044 111.126C216.51 110.628 216.002 110.094 215.531 109.532C215.477 112.929 215.441 115.963 215.432 118.608Z" fill="#14162D"/>
<path d="M305.818 145.446C301.533 145.446 297.702 144.522 294.414 142.693C293.155 142.004 291.805 141.144 290.438 140.066C287.096 142.222 282.241 143.743 275.185 143.743C274.877 143.761 273.935 143.825 272.558 143.943C269.497 144.196 268.392 144.232 267.649 144.232C257.541 144.232 251.581 138.3 249.669 131.778C248.909 129.631 248.909 127.231 248.909 119.161C248.909 112.431 249.09 102.205 249.461 88.772C249.805 75.9734 249.996 66.2091 250.005 59.7419C249.923 59.3887 249.724 58.655 249.307 57.405C247.876 53.1841 247.215 49.8237 247.215 46.8347C247.215 41.5631 249.334 36.5451 253.166 32.7046C256.816 29.0543 261.553 26.4004 267.25 24.8063C268.364 24.5074 269.968 24.136 278.029 22.8136L279.46 22.56C280.366 22.406 281.235 22.261 282.069 22.1071L282.911 21.9531L283.762 21.9078C288.563 21.6632 289.46 21.6451 290.021 21.6451C291.996 21.6451 294.559 21.9078 298.599 22.5328C309.051 24.1813 317.502 28.0761 323.779 34.1086C331.061 41.1464 334.902 50.6208 334.902 61.5444C334.902 70.3123 332.664 78.3737 328.244 85.5383C330.654 87.8299 332.846 91.299 334.15 96.5163C335.056 100.167 335.518 103.826 335.518 107.413C335.518 115.999 333.932 123.481 330.799 129.64C325.554 139.848 316.696 145.446 305.818 145.446Z" fill="#14162D"/>
<path d="M305.754 116.869C305.981 117.757 306.234 118.327 306.461 118.699C306.597 118.508 306.85 118.146 307.14 117.585C308.309 115.284 308.943 111.806 308.961 107.558C306.941 107.005 304.993 106.145 303.173 104.976C304.305 110.112 305.166 114.079 305.754 116.869Z" fill="#14162D"/>
<path d="M370.48 145.202H345.689C335.807 145.202 332.329 144.631 330.047 144.006C326.46 143.001 315.029 138.508 315.029 121.715C315.029 114.568 315.192 103.989 315.518 90.2846L316.198 60.7745C316.234 59.3887 316.044 58.03 315.654 56.6985C315.527 56.2637 315.373 55.7746 315.192 55.204C313.671 50.5121 312.964 46.7803 312.964 43.438C312.964 39.6609 313.806 36.074 315.455 32.7589C316.27 31.1195 317.42 29.6702 318.824 28.5018C323.516 24.5979 329.938 22.4422 338.452 21.9349C340.536 21.7719 349.285 21.156 355.308 21.6723C355.997 21.6904 356.966 21.7538 358.624 21.8806C359.566 21.9531 360.209 22.0074 360.589 22.0255C365.054 22.0346 370.806 22.3697 378.152 23.0581C378.152 23.0581 379.429 23.2121 379.846 23.3117C380.262 23.4023 381.467 23.8099 381.467 23.8099C392.291 27.7591 393.07 40.1319 393.323 44.1988L393.332 44.3075C393.359 44.4977 393.405 44.7242 393.459 44.9959L393.523 45.322C393.984 47.9669 394.202 50.8925 394.202 54.271C394.202 61.5353 392.091 66.9066 388.867 70.5749C386.802 72.9299 385.425 75.7922 385.244 78.9262C385.226 79.2885 385.199 79.6689 385.18 80.0584C384.99 83.138 384.963 84.5691 384.963 85.1398V85.3028C386.657 86.4531 388.36 88.0926 389.899 90.4023C391.684 93.0925 392.879 95.9185 393.459 98.817C393.867 100.882 394.075 102.902 394.075 104.822C394.075 105.583 394.039 106.742 393.794 110.058C393.667 111.706 393.595 112.811 393.586 113.382C393.586 124.251 391.928 131.95 388.369 137.575C387.037 139.676 385.135 141.37 382.889 142.448C379.076 144.278 374.9 145.202 370.48 145.202Z" fill="#14162D"/>
<path d="M341.586 118.608C342.7 118.635 344.05 118.653 345.68 118.653H366.83C366.947 117.349 367.038 115.728 367.047 113.726C362.926 115.121 359.457 115.791 356.377 115.791C351.051 115.791 346.667 114.269 343.352 111.271L343.198 111.126C342.664 110.628 342.157 110.094 341.686 109.532C341.641 112.938 341.604 115.963 341.586 118.608Z" fill="#14162D"/>
<path d="M414.056 145.446C405.877 145.446 398.921 143.408 393.396 139.386C382.336 131.479 375.761 117.974 373.922 99.3242C373.324 93.2555 373.252 90.9639 373.252 89.6324C373.252 74.1437 375.969 59.8234 381.322 47.0611C388.233 30.6756 401.321 21.6632 418.186 21.6632C428.422 21.6632 436.637 24.77 442.615 30.9021C449.544 38.0577 454.263 46.6897 456.681 56.5898C458.248 63.057 459 71.4716 459 82.35C459 110.184 451.31 129.477 436.148 139.676C430.478 143.499 423.032 145.446 414.056 145.446Z" fill="#14162D"/>
<path d="M401.72 105.012C402.997 110.184 405.189 115.175 408.93 117.847C409.328 118.137 410.632 118.889 414.065 118.889C419.201 118.889 421.003 117.847 421.302 117.639C424.4 115.556 426.664 112.322 428.322 108.463C425.088 110.818 421.076 112.132 416.674 112.132C411.638 112.141 405.823 110.139 401.72 105.012Z" fill="#14162D"/>
<path d="M68.9249 54.9685C68.9249 61.0462 66.9956 64.0896 63.1371 64.0896C61.6878 64.0896 59.3419 63.2382 56.0812 61.5353C52.8295 59.8325 50.1937 58.981 48.1829 58.981C45.049 58.981 43.2918 58.8542 42.8752 58.8633C39.8137 58.9267 38.4098 61.5353 38.4098 64.6965C38.4098 66.1547 38.0022 68.2833 39.2521 70.1673C39.696 70.8376 40.5383 70.901 41.1723 70.901C42.377 70.901 44.6142 70.1945 47.9021 68.7724C51.1901 67.3594 53.5451 66.6439 54.9943 66.6439C57.159 66.6439 58.6445 67.3775 59.4415 68.8358C59.9216 69.7235 60.1662 71.4716 60.1662 74.0621C60.1662 75.3574 60.0847 77.3229 59.9216 79.9587C59.7586 82.5945 59.677 84.5601 59.677 85.8553V87.6759C59.514 88.8896 59.0249 90.1849 58.2188 91.5617C57.2496 93.183 56.1899 93.9891 55.0577 93.9891C52.6302 93.9891 49.6684 93.1015 46.1903 91.3171C44.2067 90.2936 42.5582 89.4331 41.2448 88.7357C40.9731 88.5907 40.6651 88.5002 40.3843 88.5998C39.071 89.0346 38.4189 91.4439 38.4189 95.8188C38.4189 98.8984 39.0257 101.009 40.2394 102.141C41.0456 102.875 42.4314 103.237 44.3697 103.237C46.8787 103.237 50.6466 102.141 55.6736 99.9582C60.7006 97.7662 63.6533 96.6793 64.55 96.6793C65.2837 96.6793 66.0536 97.2862 66.8597 98.4999C67.6659 99.7136 68.2003 100.927 68.4358 102.15C68.6713 103.373 68.7981 104.505 68.7981 105.556C68.7981 106.208 68.7166 107.621 68.5535 109.813C68.3905 112.005 68.309 113.418 68.309 114.07C68.309 118.88 67.9376 122.847 67.1949 125.972C66.2529 129.93 62.6117 132.657 58.5358 132.666H58.4634H57.4942C57.1681 132.666 56.8058 132.666 56.3982 132.666C52.5849 132.666 45.0128 132.666 33.6727 132.666C27.3505 132.666 23.3017 132.421 21.5173 131.932C18.0301 130.963 16.2911 127.802 16.2911 122.449C16.2911 115.402 16.4541 105.031 16.7802 91.3352L17.5139 59.6151C17.5139 57.9122 16.9432 55.3217 15.811 51.8345C14.7603 48.5918 14.235 46.0375 14.235 44.1807V44.1264C14.2441 41.2188 15.9922 38.574 18.7004 37.5233C20.9648 36.6537 23.8542 36.1103 27.3595 35.911C30.113 35.748 31.1637 35.6664 30.5206 35.6664H42.5491C43.0382 35.6664 44.0527 35.7298 45.5925 35.8476C47.1323 35.9744 48.0652 36.0287 48.3913 36.0287C52.1864 36.0287 57.2587 36.3095 63.6081 36.8802C65.0482 37.007 66.3253 37.9127 66.8779 39.2442C67.5028 40.7206 67.9014 42.8945 68.0825 45.7477C68.0825 46.2368 68.2093 47.0882 68.4448 48.302C68.7618 50.1497 68.9249 52.378 68.9249 54.9685Z" fill="#F85532"/>
<path d="M91.5329 132.638C89.5855 132.475 86.7142 132.276 82.9009 132.032C82.8375 132.023 82.7741 132.023 82.7198 132.013C78.9518 131.669 76.0806 128.508 75.7092 124.749C75.5099 122.766 75.2744 120.7 75.0117 118.536C74.5226 114.885 74.2871 111.896 74.2871 109.541C74.2871 106.099 74.8487 102.82 75.9718 99.7136C76.6965 97.7119 78.662 96.4166 80.7996 96.4166H80.8448C81.8955 96.4166 84.4135 97.893 88.3808 100.855C92.348 103.817 95.5906 105.293 98.1087 105.293C98.7517 105.293 99.2047 105.248 99.4492 105.175C100.663 104.442 101.27 103.065 101.27 101.045C101.27 98.6176 99.0779 95.538 94.703 91.8062C88.1363 86.2176 84.0422 82.4043 82.4299 80.3844C78.0551 74.9589 75.8632 69.0804 75.8632 62.7581C75.8632 56.8434 77.2399 51.9794 79.9934 48.1752C84.2052 42.4326 90.1199 38.6102 97.7373 36.699C98.625 36.4816 99.5398 36.3548 100.446 36.2914L105.373 35.9472C105.835 35.911 106.306 35.92 106.777 35.9291C107.818 35.9563 108.534 35.9019 108.797 35.9019C113.479 35.9019 117.084 36.0106 119.611 36.228C122.148 36.4454 124.412 37.9309 125.535 40.2225C126.767 42.7405 127.392 46.2006 127.392 50.6026C127.392 54.3344 127.066 57.6495 126.423 60.5661C125.689 63.8088 124.195 65.4301 121.921 65.4301C120.055 65.4301 117.347 64.2526 113.778 61.9067C110.21 59.5607 107.619 58.3832 105.998 58.3832C104.784 58.3832 103.371 58.4104 102.474 59.3524C101.976 59.8777 101.985 60.7292 101.985 61.5443C101.985 63.7363 104.377 66.9337 109.159 71.1455C116.695 77.7124 121.187 81.9243 122.646 83.7902C127.428 89.7864 129.819 95.9909 129.819 102.386C129.819 106.842 129.004 111.217 127.392 115.51C125.608 120.293 123.135 123.979 119.983 126.57C115.037 130.655 107.61 132.693 95.4457 132.82C94.6577 132.829 93.8516 132.802 93.0726 132.747L91.5329 132.638Z" fill="#F85532"/>
<path d="M194.355 45.1227C194.355 46.1734 194.273 47.7132 194.11 49.7421C193.947 51.7711 193.866 53.3109 193.866 54.3616V58.501C193.866 59.2347 193.911 60.0408 193.992 60.9284C193.992 61.8976 193.992 62.4683 193.992 62.6313C193.992 68.709 192.371 71.7434 189.129 71.7434C187.996 71.7434 186.293 70.7742 184.02 68.8268C181.747 66.8794 180.007 65.8649 178.794 65.7834C177.417 66.2725 176.729 67.4047 176.729 69.1891C176.729 73.7361 176.774 80.5384 176.855 89.5871C176.937 98.6358 176.973 105.438 176.973 109.985C176.973 111.525 177.236 113.826 177.761 116.869C178.287 119.912 178.549 122.168 178.549 123.626C178.549 128.581 176.077 131.543 171.131 132.512C170.08 132.756 165.542 132.874 157.517 132.874H154.773C153.713 132.874 152.654 132.53 151.884 131.805C150.289 130.311 149.501 128.073 149.501 125.084C149.501 124.758 149.538 123.871 149.619 122.403C149.701 120.945 149.737 119.967 149.737 119.478C149.737 119.315 149.692 118.988 149.619 118.499V117.521C149.619 116.307 149.737 114.233 149.981 111.317C150.308 107.422 150.507 104.541 150.588 102.666C150.96 96.4257 151.503 87.4857 152.21 75.8556C152.3 74.3067 152.201 72.7669 152.101 71.218C152.065 70.5931 152.083 69.7869 152.164 68.8087C152.246 67.1873 151.838 66.0461 150.951 65.403C149.411 65.403 147.409 66.5171 144.936 68.7453C142.464 70.9735 140.498 72.0876 139.04 72.0876C136.685 72.0876 135.517 69.2525 135.517 63.5824C135.517 63.4193 135.562 62.894 135.634 62.0063C135.634 61.1187 135.634 60.3035 135.634 59.5789V51.1914C135.634 50.4577 135.634 49.6153 135.634 48.6371C135.553 47.6679 135.517 47.0611 135.517 46.8165C135.517 41.6355 136.286 38.5106 137.826 37.4599C138.56 36.2461 147.183 35.6393 163.713 35.6393C179.437 35.6393 188.793 36.2461 191.791 37.4599C193.503 38.2026 194.355 40.7478 194.355 45.1227Z" fill="#F85532"/>
<path d="M254.76 54.9685C254.76 61.0462 252.831 64.0896 248.972 64.0896C247.523 64.0896 245.177 63.2382 241.916 61.5353C238.664 59.8325 236.029 58.981 234.018 58.981C230.884 58.981 229.118 58.9448 228.71 58.8633C225.739 59.597 224.245 61.5353 224.245 64.6965C224.245 66.1548 223.837 68.2833 225.087 70.1673C225.531 70.8376 226.373 70.901 227.007 70.901C228.212 70.901 230.449 70.1945 233.737 68.7724C237.025 67.3594 239.38 66.6439 240.829 66.6439C242.994 66.6439 244.479 67.3776 245.277 68.8359C245.757 69.7235 246.001 71.4716 246.001 74.0622C246.001 75.3574 245.92 77.3229 245.757 79.9587C245.594 82.5945 245.512 84.5601 245.512 85.8553V87.6759C245.349 88.8897 244.86 90.1849 244.054 91.5617C243.085 93.183 242.025 93.9892 240.893 93.9892C238.465 93.9892 235.503 93.1015 232.025 91.3171C229.833 90.1849 228.058 89.252 226.681 88.5183C225.06 88.5183 224.254 90.9458 224.254 95.8098C224.254 98.8894 224.861 101 226.074 102.132C226.881 102.866 228.266 103.228 230.205 103.228C232.714 103.228 236.482 102.132 241.509 99.9492C246.536 97.7572 249.488 96.6703 250.385 96.6703C251.119 96.6703 251.889 97.2771 252.695 98.4908C253.501 99.7046 254.035 100.918 254.271 102.141C254.515 103.355 254.633 104.496 254.633 105.547C254.633 106.199 254.552 107.612 254.389 109.804C254.225 111.996 254.144 113.409 254.144 114.061C254.144 118.871 253.773 122.838 253.03 125.963C252.088 129.921 248.447 132.648 244.371 132.657H244.298H243.329C243.003 132.657 242.641 132.657 242.233 132.657C238.42 132.657 230.848 132.657 219.508 132.657C213.185 132.657 209.137 132.412 207.352 131.923C203.865 130.954 202.126 127.793 202.126 122.439C202.126 115.393 202.289 105.021 202.615 91.3262L203.349 59.606C203.349 57.9032 202.778 55.3127 201.646 51.8254C200.595 48.5828 200.07 46.0285 200.07 44.1716C200.07 44.1535 200.07 44.1354 200.07 44.1173C200.079 40.9743 202.289 38.257 205.269 37.2516C207.416 36.536 210.051 36.0831 213.194 35.9019C215.948 35.7389 216.999 35.6574 216.356 35.6574H228.384C228.873 35.6574 229.888 35.7208 231.427 35.8386C232.967 35.9654 233.9 36.0197 234.226 36.0197C238.275 36.0197 243.782 36.3458 250.756 36.9889C252.541 37.641 253.591 40.5576 253.918 45.7386C253.918 46.2278 254.044 47.0792 254.28 48.2929C254.597 50.1498 254.76 52.378 254.76 54.9685ZM251.119 15.7304C251.119 16.4641 250.222 17.6959 248.447 19.4078C247.632 20.1415 246.255 21.4911 244.316 23.4566C243.429 24.4349 241.844 25.9928 239.579 28.1123C239.824 28.1123 238.483 28.1123 235.567 28.1123H231.192C228.837 28.1123 227.669 27.587 227.669 26.5363L230.341 19.3625C230.902 17.8227 231.437 16.5637 231.917 15.5945C232.406 14.6253 233.176 14.1 234.226 14.0185C234.552 14.0185 235.44 14.1 236.898 14.263C237.786 14.263 238.556 14.3083 239.208 14.3808H241.029C241.518 14.4623 242.079 14.4985 242.731 14.4985C243.22 14.4985 244.208 14.417 245.711 14.254C247.215 14.0909 248.157 14.0094 248.564 14.0094C249.208 13.8464 249.977 14.0909 250.874 14.7431C250.956 15.1598 251.037 15.4858 251.119 15.7304Z" fill="#F85532"/>
<path d="M322.221 108.128C322.221 114.632 321.125 120.039 318.942 124.351C316.026 130.039 311.651 132.883 305.818 132.883C303.789 132.883 302.131 132.521 300.836 131.787C296.787 129.595 294.106 125.845 292.811 120.555C292.159 117.467 291.145 112.829 289.768 106.643C289.686 106.561 289.242 105.791 288.427 104.324C287.857 103.346 287.213 102.857 286.48 102.857C285.348 102.857 284.614 103.953 284.288 106.136C284.125 107.105 284.043 108.491 284.043 110.266C284.043 111.724 284.161 113.889 284.406 116.769C284.65 119.641 284.768 121.815 284.768 123.273C284.768 125.302 284.65 126.878 284.406 128.01C283.917 130.12 280.837 131.171 275.167 131.171C274.678 131.171 273.446 131.253 271.462 131.416C269.479 131.579 268.202 131.66 267.631 131.66C264.388 131.66 262.604 130.528 262.287 128.255C262.205 128.092 262.169 125.302 262.169 119.867C262.169 113.228 262.35 103.219 262.713 89.8407C263.075 76.4715 263.256 66.4627 263.256 59.8144C263.256 58.6006 262.785 56.617 261.861 53.8634C260.928 51.1099 260.466 48.9994 260.466 47.5411C260.466 45.7568 261.155 44.1807 262.532 42.804C264.56 40.775 267.314 39.2805 270.801 38.3023C271.689 38.0577 274.85 37.4961 280.284 36.5994L281.625 36.3548C281.634 36.3548 281.643 36.3548 281.652 36.3458C283.59 36.0288 285.565 35.8023 287.53 35.7117C288.889 35.6483 289.713 35.6212 290.012 35.6212C291.226 35.6212 293.418 35.8657 296.579 36.3548C304.278 37.5686 310.274 40.2406 314.567 44.38C319.268 48.9179 321.614 54.8779 321.614 62.2509C321.614 68.8993 319.866 74.8502 316.388 80.1218C315.337 81.7431 313.272 83.8536 310.193 86.4441C308.327 88.0654 307.394 89.2792 307.394 90.0944C307.394 91.5526 308.128 92.8479 309.586 93.9801C311.044 95.1123 312.584 95.683 314.205 95.683C314.531 95.683 315.038 95.5833 315.727 95.375C316.415 95.1757 316.922 95.0761 317.249 95.0761C319.033 95.0761 320.364 96.8605 321.261 100.438C321.895 103.047 322.221 105.61 322.221 108.128ZM297.304 69.3159C297.304 64.615 295.157 62.269 290.864 62.269C289.895 62.269 289.279 62.3143 289.043 62.3868C286.933 63.0389 285.882 65.4301 285.882 69.5605V72.8394C285.882 74.8683 287.829 75.8828 291.715 75.8828C293.418 75.8828 294.777 75.2578 295.791 73.9987C296.796 72.7397 297.304 71.1818 297.304 69.3159Z" fill="#F85532"/>
<path d="M380.924 54.9685C380.924 61.0462 378.994 64.0896 375.136 64.0896C373.687 64.0896 371.341 63.2382 368.08 61.5353C364.828 59.8325 362.192 58.981 360.182 58.981C357.048 58.981 356.54 58.7184 354.874 58.8633C351.903 59.597 350.408 61.5353 350.408 64.6965C350.408 66.1547 350.689 67.9754 351.251 70.1673C351.894 70.6564 352.537 70.901 353.171 70.901C354.376 70.901 356.613 70.1945 359.901 68.7724C363.189 67.3594 365.544 66.6439 366.993 66.6439C369.158 66.6439 370.643 67.3775 371.44 68.8358C371.92 69.7235 372.165 71.4716 372.165 74.0621C372.165 75.3574 372.083 77.3229 371.92 79.9587C371.757 82.5945 371.676 84.5601 371.676 85.8553C371.676 87.8209 371.25 89.7954 370.263 91.4892C370.245 91.5164 370.236 91.5436 370.217 91.5617C369.248 93.183 368.189 93.9891 367.056 93.9891C364.629 93.9891 361.667 93.1015 358.189 91.3171C355.997 90.1849 354.222 89.252 352.845 88.5183C351.224 88.5183 350.417 90.9458 350.417 95.8098C350.417 98.8894 351.024 101 352.238 102.132C353.044 102.866 354.43 103.228 356.368 103.228C358.877 103.228 362.645 102.132 367.672 99.9491C372.699 97.7572 375.652 96.6703 376.549 96.6703C377.282 96.6703 378.052 97.2771 378.858 98.4908C379.665 99.7046 380.199 100.918 380.434 102.141C380.67 103.364 380.797 104.496 380.797 105.547C380.797 106.199 380.715 107.612 380.552 109.804C380.389 111.996 380.308 113.409 380.308 114.061C380.308 118.499 379.991 122.222 379.357 125.22C378.469 129.432 374.828 132.638 370.534 132.657C370.507 132.657 370.489 132.657 370.462 132.657H369.493C369.167 132.657 368.804 132.657 368.397 132.657C364.584 132.657 357.011 132.657 345.671 132.657C339.349 132.657 335.3 132.412 333.516 131.923C330.029 130.954 328.29 127.793 328.29 122.439C328.29 115.393 328.453 105.021 328.779 91.3262L329.513 59.606C329.513 57.9032 328.942 55.3127 327.81 51.8254C326.759 48.5828 326.234 46.0285 326.234 44.1716C326.234 44.1535 326.234 44.1354 326.234 44.1173C326.243 40.9743 328.453 38.257 331.433 37.2515C333.579 36.536 336.215 36.0831 339.358 35.9019C342.112 35.7389 343.162 35.6574 342.519 35.6574H354.548C355.037 35.6574 356.051 35.7208 357.591 35.8385C359.131 35.9654 360.064 36.0197 360.39 36.0197C364.439 36.0197 369.946 36.3458 376.92 36.9889C378.704 37.641 379.755 40.5576 380.081 45.7386C380.081 46.2278 380.208 47.0792 380.443 48.2929C380.76 50.1498 380.924 52.378 380.924 54.9685Z" fill="#F85532"/>
<path d="M445.703 83.0474C445.703 106.308 440.042 121.742 428.72 129.36C425.242 131.715 420.351 132.883 414.047 132.883C408.712 132.883 404.428 131.706 401.194 129.36C393.269 123.689 388.577 113.481 387.128 98.7264C386.72 94.596 386.521 91.7972 386.521 90.3389C386.521 76.5621 388.867 64.0896 393.559 52.9033C398.414 41.4 406.62 35.6483 418.186 35.6483C424.735 35.6483 429.708 37.3874 433.104 40.8746C438.358 46.3002 441.917 52.8309 443.774 60.4393C445.051 65.7925 445.703 73.3285 445.703 83.0474ZM423.585 87.5491V78.5548C423.585 69.3159 421.031 64.6965 415.931 64.6965C414.473 64.6965 413.132 65.4664 411.919 67.0062C410.297 69.1166 409.491 74.823 409.491 84.1434C409.491 88.5183 409.772 91.7247 410.343 93.7446C411.393 97.6304 413.504 99.5778 416.665 99.5778C419.663 99.5778 421.646 98.201 422.625 95.4475C423.259 93.6631 423.585 91.0273 423.585 87.5491Z" fill="#F85532"/>
<path d="M368.261 207.31H91.6958C80.4824 207.31 71.298 196.514 71.298 183.307C71.298 170.11 80.4734 159.304 91.6958 159.304H368.27C379.483 159.304 388.668 170.101 388.668 183.307C388.659 196.514 379.483 207.31 368.261 207.31Z" fill="#14162D"/>
<path d="M88.4349 174.811H101.695V177.882H92.0671V183.072H100.409V186.152H92.0671V193.534H88.4259V174.811H88.4349Z" fill="white"/>
<path d="M103.842 174.811H117.374V177.882H107.483V182.619H116.604V185.644H107.483V190.454H117.374V193.534H103.842V174.811Z" fill="white"/>
<path d="M119.638 190.644V187.972H123.225V189.548L124.104 190.427H129.638L130.544 189.521V186.423L129.665 185.545H122.582L119.693 182.655V177.71L122.582 174.82H131.033L133.922 177.71V180.409H130.335V178.806L129.457 177.927H124.158L123.28 178.806V181.559L124.158 182.438H131.241L134.131 185.327V190.599L131.187 193.543H122.519L119.638 190.644Z" fill="white"/>
<path d="M140.661 177.882H135.072V174.811H149.882V177.882H144.293V193.525H140.652V177.882H140.661Z" fill="white"/>
<path d="M152.155 174.811H155.796V193.525H152.155V174.811Z" fill="white"/>
<path d="M157.934 174.811H161.675L166.33 189.195H166.385L171.04 174.811H174.781L168.124 193.525H164.591L157.934 174.811Z" fill="white"/>
<path d="M179.754 174.811H183.069L189.916 193.525H186.23L184.708 189.376H178.132L176.611 193.525H172.924L179.754 174.811ZM183.893 186.387L181.402 179.277H181.348L178.939 186.387H183.893Z" fill="white"/>
<path d="M191.782 174.811H195.423V190.454H204.78V193.534H191.782V174.811Z" fill="white"/>
<path d="M214.055 174.811H226.038L229.245 178.018V190.318L226.038 193.525H214.055V174.811ZM224.245 190.427L225.612 189.059V179.268L224.245 177.9H217.696V190.418H224.245V190.427Z" fill="white"/>
<path d="M232.451 174.811H245.983V177.882H236.092V182.619H245.213V185.644H236.092V190.454H245.983V193.534H232.451V174.811Z" fill="white"/>
<path d="M255.928 174.811H267.667L270.529 177.701V184.249L267.64 187.166H259.56V193.534H255.928V174.811ZM266.009 184.114L266.942 183.181V178.797L266.009 177.864H259.569V184.123H266.009V184.114Z" fill="white"/>
<path d="M272.939 190.454V177.882L276.009 174.811H285.637L288.717 177.882V190.454L285.637 193.534H276.009L272.939 190.454ZM283.708 190.427L285.076 189.059V179.268L283.708 177.9H277.929L276.562 179.268V189.059L277.929 190.427H283.708Z" fill="white"/>
<path d="M291.923 174.811H303.906L307.113 178.018V190.318L303.906 193.525H291.923V174.811ZM302.104 190.427L303.472 189.059V179.268L302.104 177.9H295.555V190.418H302.104V190.427Z" fill="white"/>
<path d="M310.048 190.454V177.882L313.118 174.811H322.266L325.291 177.837V180.699H321.659V179.177L320.4 177.918H315.056L313.689 179.286V189.077L315.056 190.445H320.4L321.659 189.186V187.664H325.291V190.526L322.266 193.552H313.118L310.048 190.454Z" fill="white"/>
<path d="M332.936 174.811H336.251L343.099 193.525H339.412L337.891 189.376H331.315L329.793 193.525H326.107L332.936 174.811ZM337.084 186.387L334.594 179.277H334.539L332.13 186.387H337.084Z" fill="white"/>
<path d="M344.168 190.644V187.972H347.754V189.548L348.633 190.427H354.167L355.073 189.521V186.423L354.194 185.545H347.111L344.222 182.655V177.71L347.111 174.82H355.562L358.451 177.71V180.409H354.865V178.806L353.986 177.927H348.687L347.809 178.806V181.559L348.687 182.438H355.77L358.66 185.327V190.599L355.716 193.543H347.057L344.168 190.644Z" fill="white"/>
<path d="M365.19 177.882H359.602V174.811H374.42V177.882H368.831V193.525H365.19V177.882Z" fill="white"/>
</svg>
