<svg width="286" height="32" viewBox="0 0 286 32" fill="none" xmlns="http://www.w3.org/2000/svg">
<path d="M17.2875 16.9412V24.4009H14.6386V17.6732L11.2927 14.1525H2.64889V24.4009H0V0H13.9415L17.1481 3.20697V10.9107L14.3249 13.7342L17.2875 16.9412ZM2.64889 11.8519H12.7914L14.5341 10.1438V4.00871L12.7914 2.30066H2.64889V11.8519Z" fill="white"/>
<path d="M22.1799 21.1939V10.2484L25.3864 7.0414H34.309L37.5156 10.2484V21.1939L34.309 24.4009H25.3864L22.1799 21.1939ZM33.1937 22.1002L34.9364 20.3922V11.0501L33.1937 9.34205H26.5017L24.759 11.0501V20.3922L26.5017 22.1002H33.1937Z" fill="white"/>
<path d="M41.5347 21.5425V19.3813H44.1138V20.8105L45.508 22.1699H51.9211L53.3153 20.8105V18.1264L51.9211 16.732H44.4275L41.6741 13.9782V9.89978L44.5321 7.0414H52.6879L55.5459 9.89978V12.061H52.9667V10.6318L51.5726 9.27233H45.6474L44.2533 10.6318V13.1765L45.6474 14.5708H53.0364L55.8944 17.4292V21.5425L53.0364 24.4009H44.3927L41.5347 21.5425Z" fill="white"/>
<path d="M59.7186 21.5425V17.1155L62.5766 14.2919H71.8477V10.9804L70.105 9.27233H64.1799L62.4372 10.9804V12.4096H59.858V10.2484L63.0645 7.0414H71.1855L74.392 10.2484V24.4009H71.9174V21.3333L68.7109 24.4009H62.5766L59.7186 21.5425ZM68.1881 22.1699L71.8477 18.6492V16.5229H63.6919L62.2978 17.8824V20.8105L63.6919 22.1699H68.1881Z" fill="white"/>
<path d="M79.4382 7.0414H81.9477V10.1438L85.0497 7.0414H89.5459V9.34205H85.7119L82.0174 13.037V24.4009H79.4382V7.0414Z" fill="white"/>
<path d="M92.6745 3.06754V1.53377L93.7202 0.488017H95.2537L96.2993 1.53377V3.06754L95.2537 4.11329H93.7202L92.6745 3.06754ZM93.1973 7.0414H95.7765V24.4009H93.1973V7.0414Z" fill="white"/>
<path d="M101.01 21.1939V10.2484L104.216 7.0414H113.139L116.345 10.2484V21.1939L113.139 24.4009H104.216L101.01 21.1939ZM112.023 22.1002L113.766 20.3922V11.0501L112.023 9.34205H105.331L103.589 11.0501V20.3922L105.331 22.1002H112.023Z" fill="white"/>
<path d="M121.523 24.4009H121.104L120.094 23.39V21.8562L121.104 20.8453H122.638L123.649 21.8562V24.4009L121.906 28.7233H120.477L121.523 24.4009Z" fill="white"/>
<path d="M143.348 0H146.206L154.885 24.4009H152.131L149.866 17.8126H139.688L137.423 24.4009H134.669L143.348 0ZM149.099 15.512L144.812 3.06754H144.742L140.49 15.512H149.099Z" fill="white"/>
<path d="M158.2 7.0414H160.709V10.1438L163.811 7.0414H168.307V9.34205H164.474L160.779 13.037V24.4009H158.2V7.0414Z" fill="white"/>
<path d="M185.713 7.0414V28.8279L182.541 32H173.932L171.248 29.3159V27.1895H173.827V28.4793L175.047 29.6993H181.391L183.133 27.9913V21.5076L179.927 24.4009H173.583L170.377 21.1939V10.2484L173.583 7.0414H180.171L183.203 10.0741V7.0414H185.713ZM183.133 13.0022L179.474 9.34205H174.699L172.956 11.0501V20.3922L174.699 22.1002H179.509L183.133 18.719V13.0022Z" fill="white"/>
<path d="M190.595 21.1939V10.2484L193.801 7.0414H202.55L205.791 10.2484V16.488H193.174V20.3922L194.917 22.1002H201.434L203.177 20.3922V19.0675H205.756V21.1939L202.55 24.4009H193.801L190.595 21.1939ZM203.212 14.2571V11.0501L201.469 9.34205H194.917L193.174 11.0501V14.2571H203.212Z" fill="white"/>
<path d="M210.481 7.0414H212.99V10.7364L216.685 7.0414H222.017L225.224 10.2484V24.4009H222.645V11.0501L220.902 9.34205H217.382L213.06 13.6645V24.4009H210.481V7.0414Z" fill="white"/>
<path d="M231.518 21.1939V9.30719H228.381V7.0414H231.588V1.39434H234.097V7.0414H239.535V9.30719H234.097V20.3922L235.84 22.1351H239.535V24.4009H234.725L231.518 21.1939Z" fill="white"/>
<path d="M243.356 3.06754V1.53377L244.402 0.488017H245.935L246.981 1.53377V3.06754L245.935 4.11329H244.402L243.356 3.06754ZM243.879 7.0414H246.458V24.4009H243.879V7.0414Z" fill="white"/>
<path d="M252.04 7.0414H254.549V10.7364L258.244 7.0414H263.576L266.783 10.2484V24.4009H264.204V11.0501L262.461 9.34205H258.941L254.619 13.6645V24.4009H252.04V7.0414Z" fill="white"/>
<path d="M271.327 21.5425V17.1155L274.185 14.2919H283.456V10.9804L281.713 9.27233H275.788L274.045 10.9804V12.4096H271.466V10.2484L274.672 7.0414H282.793L286 10.2484V24.4009H283.525V21.3333L280.319 24.4009H274.185L271.327 21.5425ZM279.796 22.1699L283.456 18.6492V16.5229H275.3L273.906 17.8824V20.8105L275.3 22.1699H279.796Z" fill="white"/>
</svg>
