<svg width="600" height="324" viewBox="0 0 600 324" fill="none" xmlns="http://www.w3.org/2000/svg">
<g opacity="0.98">
<path d="M324.175 325.878C471.97 325.878 591.781 305.513 591.781 280.392C591.781 255.27 471.97 234.906 324.175 234.906C176.38 234.906 56.5684 255.27 56.5684 280.392C56.5684 305.513 176.38 325.878 324.175 325.878Z" fill="url(#paint0_linear_110_558)"/>
</g>
<path d="M471.679 263.198C466.194 265.052 460.238 265.052 454.752 263.198V176.264L471.679 173.229V263.198Z" fill="#545423" stroke="black" stroke-width="0.7063" stroke-miterlimit="10"/>
<path d="M170.676 263.198C176.162 265.052 182.118 265.052 187.603 263.198V176.264L170.676 173.229V263.198Z" fill="#545423" stroke="black" stroke-width="0.7063" stroke-miterlimit="10"/>
<path d="M64.289 143.806V121.444L598.613 123.018V143.476V143.463C598.613 168.581 478.994 188.949 331.451 188.949C183.908 188.949 64.289 168.581 64.289 143.463" fill="#545423"/>
<path d="M64.289 143.806V121.444L598.613 123.018V143.476V143.463C598.613 168.581 478.994 188.949 331.451 188.949C183.908 188.949 64.289 168.581 64.289 143.463" stroke="black" stroke-width="0.7063" stroke-miterlimit="10"/>
<path d="M331.451 166.333C184.048 166.333 64.1366 146.193 64.1366 121.444C64.1366 96.6943 184.06 76.5544 331.451 76.5544C478.841 76.5544 598.765 96.6943 598.765 121.444C598.765 146.193 478.854 166.333 331.451 166.333Z" fill="#EEF166"/>
<path d="M331.451 77.0116C402.93 77.0116 470.118 81.7227 520.645 90.2816C570.016 98.6372 598.321 110.002 598.321 121.457C598.321 132.911 570.003 144.276 520.645 152.632C470.118 161.19 402.93 165.902 331.451 165.902C259.972 165.902 192.784 161.19 142.257 152.632C92.8858 144.276 64.581 132.911 64.581 121.457C64.581 110.002 92.8985 98.6372 142.257 90.2816C192.797 81.7227 259.984 77.0116 331.451 77.0116ZM331.451 76.1099C183.565 76.1099 63.6794 96.4023 63.6794 121.444C63.6794 146.485 183.565 166.778 331.451 166.778C479.337 166.778 599.222 146.485 599.222 121.444C599.222 96.4023 479.337 76.1099 331.451 76.1099Z" fill="black"/>
<path d="M513.838 296.887V176.632L535.908 172.568V296.887H513.838Z" fill="#9B9B3D"/>
<path d="M535.464 173.114V296.456H514.283V177.013L535.464 173.114ZM536.365 172.035L513.394 176.264V297.344H536.365V172.035Z" fill="black"/>
<path d="M124.581 296.887V172.568L146.651 176.632V296.887H124.581Z" fill="#9B9B3D"/>
<path d="M125.026 173.114L146.206 177.013V296.456H125.026V173.114ZM124.137 172.035V297.344H147.108V176.264L124.137 172.035Z" fill="black"/>
<g opacity="0.5">
<path d="M327.603 149.889C362.872 149.889 391.464 144.948 391.464 138.854C391.464 132.759 362.872 127.819 327.603 127.819C292.334 127.819 263.743 132.759 263.743 138.854C263.743 144.948 292.334 149.889 327.603 149.889Z" fill="#545423"/>
</g>
<g opacity="0.5">
<path d="M186.778 109.418C201.898 109.418 214.156 107.298 214.156 104.682C214.156 102.066 201.898 99.9452 186.778 99.9452C171.658 99.9452 159.4 102.066 159.4 104.682C159.4 107.298 171.658 109.418 186.778 109.418Z" fill="#545423"/>
</g>
<path d="M167.641 59.3733C167.4 62.167 168.073 66.3448 170.079 68.6179C170.079 68.6179 156.568 90.7515 173.203 99.3103L173.038 100.377C172.784 102.053 173.825 103.539 175.375 104.212C179.54 106.015 191.845 109.164 202.168 103.196C203.553 102.396 203.984 100.593 203.426 99.1072L203.248 98.6373C203.248 98.6373 218.486 85.2149 206.791 68.9861C206.791 68.9861 210.067 63.5766 209.508 59.0178C208.835 53.4812 198.575 50.0272 189 50.1288C180.911 50.2177 173.61 51.6526 169.394 55.5637C168.124 56.7955 167.806 57.6209 167.641 59.3733Z" fill="#C1732D" stroke="black" stroke-width="0.7822" stroke-miterlimit="10"/>
<path d="M189.013 61.0622C197.106 61.0622 203.667 59.5612 203.667 57.7097C203.667 55.8582 197.106 54.3573 189.013 54.3573C180.92 54.3573 174.359 55.8582 174.359 57.7097C174.359 59.5612 180.92 61.0622 189.013 61.0622Z" fill="#203002" stroke="black" stroke-width="0.8369" stroke-miterlimit="10"/>
<path d="M197.991 58.6367C197.991 58.6367 205.686 34.7507 209.8 30.7126C212.226 28.3379 213.394 29.7602 213.953 31.3348C214.384 32.5539 214.041 33.9126 213.14 34.8269C210.257 37.7476 203.337 45.9001 200.378 59.3606C200.378 59.3606 200.48 60.0336 197.648 60.4018L197.991 58.6367Z" fill="#C1C1C1" stroke="black" stroke-width="0.8369" stroke-miterlimit="10"/>
<path d="M170.613 60.4273C170.613 60.4273 181.8 70.7004 205.064 61.9384" stroke="black" stroke-width="0.7822" stroke-miterlimit="10" stroke-linecap="round"/>
<path d="M170.079 68.6306C170.079 68.6306 185.648 78.8148 206.803 69.0115C206.803 69.0115 209.394 73.2782 209.826 74.4465C210.245 75.6274 187.045 90.3324 167.311 74.4465C167.311 74.4592 168.797 70.383 170.079 68.6306Z" fill="#C1C1C1" stroke="black" stroke-width="0.8369" stroke-miterlimit="10"/>
<path d="M212.581 34.0281C213.034 33.9033 213.176 32.9854 212.899 31.9781C212.621 30.9707 212.029 30.2553 211.576 30.3802C211.123 30.505 210.981 31.4228 211.258 32.4302C211.536 33.4375 212.128 34.1529 212.581 34.0281Z" fill="black"/>
<path d="M176.645 99.4119C176.645 99.4119 186.727 103.12 200.505 98.9294C200.505 98.9294 188.327 108.517 176.645 99.4119Z" fill="#72421A"/>
<path d="M202.626 98.4341L205.33 78.4211C205.33 78.4211 208.619 76.5799 209.495 75.9068C209.495 75.9068 214.473 86.3196 202.626 98.4341Z" fill="#72421A"/>
<path opacity="0.8" d="M198.016 54.5478C198.016 54.5478 183.73 52.0715 174.435 56.4272C174.435 56.4272 186.232 47.6398 198.016 54.5478Z" fill="#72421A"/>
<path opacity="0.8" d="M212.378 34.8777C211.629 34.6619 211.019 34.1285 210.702 33.4174L210.537 33.0364C210.537 33.0364 201.216 47.5001 199.057 59.5638L199.972 59.2844C199.946 59.2717 201.356 47.5763 212.378 34.8777Z" fill="#545454"/>
<path d="M202.943 63.6146C202.943 63.6146 207.197 62.421 208.873 60.4273C208.873 60.4273 208.759 63.9066 206.359 68.4781L203.552 69.621C203.565 69.6083 203.997 64.8083 202.943 63.6146Z" fill="#72421A"/>
<path opacity="0.8" d="M205.267 76.8592L206.118 76.4274C207.083 75.9449 207.984 75.3354 208.797 74.6243L209.038 74.4084C209.038 74.4084 207.337 70.7385 206.524 69.8242L203.68 71.0306C203.692 71.0433 205.483 74.8275 205.267 76.8592Z" fill="#545454"/>
<g opacity="0.5">
<path d="M478.435 114.523C508.213 114.523 532.353 110.35 532.353 105.202C532.353 100.055 508.213 95.8816 478.435 95.8816C448.657 95.8816 424.518 100.055 424.518 105.202C424.518 110.35 448.657 114.523 478.435 114.523Z" fill="#545423"/>
</g>
<path d="M516.213 102.879C531.451 97.2785 534.13 88.6688 534.13 88.6688H412.822C412.822 88.6688 415.489 97.2785 430.74 102.879C430.74 102.879 433.292 109.99 473.483 110.612C513.661 111.234 516.213 102.879 516.213 102.879Z" fill="white" stroke="black" stroke-width="0.4903" stroke-miterlimit="10"/>
<path d="M473.965 103.628C513.604 103.628 545.737 96.089 545.737 86.7894C545.737 77.4899 513.604 69.9511 473.965 69.9511C434.327 69.9511 402.194 77.4899 402.194 86.7894C402.194 96.089 434.327 103.628 473.965 103.628Z" fill="white" stroke="black" stroke-width="0.6208" stroke-miterlimit="10"/>
<path d="M447.527 83.2339C447.527 83.2339 425.521 84.8466 424.518 88.8466" stroke="black" stroke-width="0.5285" stroke-miterlimit="10"/>
<path opacity="0.4" d="M475.87 96.5292C503.859 96.5292 526.549 93.425 526.549 89.5958C526.549 85.7666 503.859 82.6624 475.87 82.6624C447.881 82.6624 425.191 85.7666 425.191 89.5958C425.191 93.425 447.881 96.5292 475.87 96.5292Z" fill="#442B03"/>
<path opacity="0.4" d="M421.902 98.3705C421.902 98.3705 478.892 110.244 527.629 97.9642C527.616 97.9642 472.099 121.076 421.902 98.3705Z" fill="#494949"/>
<path d="M434.181 73.2654C433.927 74.7766 434.232 76.3131 435.032 77.621L447.705 98.2309C448.975 100.301 451.337 101.444 453.737 101.139L515.591 93.3927C516.556 93.2657 516.391 89.6212 517.229 88.5672L520.441 75.1068C520.772 75.6274 442.003 67.8685 436.594 62.624C436.061 62.1034 434.829 69.3543 434.181 73.2654Z" fill="#82570B"/>
<path d="M434.27 72.6813C433.953 74.5734 434.334 76.5036 435.337 78.129L447.705 98.2309C448.975 100.301 451.337 101.444 453.737 101.139L515.591 93.3927C516.556 93.2657 516.391 89.6212 517.229 88.5672L520.302 75.6909C520.365 75.4115 520.175 75.1449 519.883 75.1322C512.861 74.8528 441.724 67.6146 436.594 62.624C436.086 62.1288 434.943 68.6686 434.27 72.6813Z" stroke="black" stroke-width="0.5081" stroke-miterlimit="10" stroke-linecap="round"/>
<path d="M518.981 82.1417C518.981 82.1417 520.454 84.9481 519.349 88.8847C518.245 92.8085 517.483 87.399 515.959 87.0434C515.019 86.8276 514.575 88.0466 514.219 88.5926C513.953 88.999 513.597 89.3292 513.14 89.4942C512.708 89.6466 512.238 89.6212 512.149 88.9101C512.061 88.2117 511.565 88.6688 511.083 89.3292C510.283 90.4339 508.886 91.145 508.302 89.9132C508.289 89.9005 507.946 89.0497 507.934 89.037C507.299 87.6402 507.718 91.1704 506.422 91.2212C505.127 91.2593 505.318 89.3546 505.013 88.7069C504.784 88.2117 503.451 87.3227 503.159 89.8371C502.867 92.3514 502.626 100.732 498.816 100.212C495.007 99.6785 498.448 93.3419 494.499 91.7292C494.499 91.7292 492.238 90.6879 491.845 91.8816C491.578 92.7197 491.134 91.5768 490.905 90.8276C490.753 90.3323 490.321 89.9513 489.813 89.926C489.419 89.9133 488.988 90.091 488.759 90.8022C488.251 92.3895 487.718 93.4562 487.007 93.38C486.295 93.3038 485.686 92.3641 485.419 94.0911C485.153 95.8308 485.711 98.6118 484.162 98.2182C482.613 97.8245 482.359 94.9292 481.788 93.1514C481.216 91.3736 478.905 91.1704 477.927 92.618C476.937 94.053 476.657 91.945 476.111 91.8434C475.565 91.7419 475.286 92.3133 474.93 94.8784C474.753 96.161 473.305 96.3007 472.873 95.5895C472.403 94.8149 472.124 93.9514 471.972 93.0625C471.819 92.1355 471.184 90.7895 470.105 91.6911C468.518 93.0244 469.495 96.8975 468.518 96.7197C467.54 96.542 467.883 92.8593 466.765 92.2879C465.965 91.8815 463.73 92.326 463.743 94.7388C463.756 97.1515 462.435 100.415 461.394 99.0562C460.353 97.6975 461.61 93.5704 460.759 93.0244C459.908 92.4784 457.851 92.2498 457.699 95.7038C457.572 98.8403 451.845 103.285 450.588 96.4149C449.33 89.545 447.235 94.0149 446.295 92.4657C445.94 91.8688 445.724 91.2848 445.597 90.7768C445.47 90.2943 445.254 90.2054 444.911 90.2054C444.416 90.2181 443.984 89.9132 443.857 89.4307V89.4053C443.794 88.9101 443.768 88.4149 443.794 87.9069L443.819 87.4624C443.819 87.4624 442.638 89.0879 442.143 87.4878C441.635 85.8878 442.778 83.7926 441.838 84.5799C440.899 85.3672 440.365 85.6592 440.518 83.4243C440.67 81.1893 441.127 81.3545 440.086 81.3291C439.045 81.3037 439.489 80.2116 439.527 79.8052C439.578 79.2973 438.968 77.8624 437.876 79.2592C436.784 80.656 437.445 77.4306 437.445 77.4306C437.445 77.4306 435.705 78.7258 435.883 76.5924L435.946 75.8686C436.022 74.9543 435.768 74.0401 435.235 73.2781C435.083 73.0623 434.981 72.8083 434.943 72.5416L434.676 70.5479L435.235 67.6781L445.038 86.6371C446.499 89.4561 449.572 91.0307 452.708 90.5609L518.892 81.5322L518.981 82.1417Z" fill="#EEF166" stroke="black" stroke-width="0.5081" stroke-miterlimit="10" stroke-linecap="round"/>
<path d="M436.302 65.8876L445.749 81.3671C447.019 83.437 449.381 84.5798 451.781 84.2751L519.73 75.7671C520.695 75.6401 520.734 74.2559 519.768 74.0909L445.013 61.7098C445.013 61.7098 441.114 60.7828 438.105 61.5447C436.175 62.0145 435.273 64.1986 436.302 65.8876Z" fill="#CE8E0F"/>
<path d="M436.302 65.8876L445.749 81.3671C447.019 83.437 449.381 84.5798 451.781 84.2751L519.73 75.7671C520.695 75.6401 520.734 74.2559 519.768 74.0909L445.013 61.7098C445.013 61.7098 441.114 60.7828 438.105 61.5447C436.175 62.0145 435.273 64.1986 436.302 65.8876Z" stroke="black" stroke-width="0.5081" stroke-miterlimit="10" stroke-linecap="round"/>
<path opacity="0.5" d="M439.819 65.5574L443.514 71.5765C443.616 71.7416 443.807 71.8432 444.01 71.8305L453.407 71.0686C453.965 71.0178 454.08 70.2559 453.559 70.0528L440.467 64.7955C439.997 64.5924 439.553 65.113 439.819 65.5574Z" fill="#82570B"/>
<path opacity="0.5" d="M446.042 74.1671L449.838 80.3386C449.953 80.5291 450.181 80.6434 450.397 80.618L468.289 78.8147C468.899 78.7512 469.026 77.9131 468.467 77.6845L455.667 72.2623C455.578 72.2242 455.464 72.2115 455.362 72.2242L446.473 73.2782C446.054 73.3163 445.813 73.7988 446.042 74.1671Z" fill="#82570B"/>
<path opacity="0.5" d="M461.927 71.7924L475.781 77.4814C475.832 77.5068 475.895 77.5195 475.959 77.5068L503.527 75.2845C503.972 75.2464 503.997 74.6115 503.565 74.5353L476.746 69.9511C476.721 69.9511 476.683 69.9384 476.657 69.9511L462.054 71.0686C461.648 71.1067 461.559 71.64 461.927 71.7924Z" fill="#82570B"/>
<path opacity="0.5" d="M448.492 63.7796L471.972 67.7543C472.48 67.8432 472.454 68.5797 471.946 68.6305L458.359 70.1797C458.27 70.1924 458.168 70.167 458.092 70.1289L448.2 64.605C447.768 64.3637 447.997 63.6907 448.492 63.7796Z" fill="#82570B"/>
<path opacity="0.5" d="M449.572 90.7006C451.387 91.145 452.759 90.8784 453.064 90.8403L518.588 81.8878L518.994 83.0814C519.019 83.3989 518.499 83.856 518.181 83.8941L453.432 92.2498C452.315 92.3895 451.197 92.0593 450.334 91.3482L449.572 90.7006Z" fill="#82570B"/>
<path d="M293.267 54.281L293.152 50.916H305.317V54.281H293.267Z" fill="#F85532"/>
<path d="M304.797 51.4366V53.7477H293.787L293.711 51.4366H304.797ZM305.851 50.3826H292.606L292.746 54.8144H305.851V50.3826Z" fill="black"/>
<path d="M343.692 54.281V50.916H354.613L354.511 54.281H343.692Z" fill="#F85532"/>
<path d="M354.067 51.4366L354.003 53.7477H344.225V51.4366H354.067ZM355.159 50.3826H343.159V54.8144H355.032L355.159 50.3826Z" fill="black"/>
<path d="M273.775 123.361H381.457V134.866C381.457 138.93 365.863 142.384 344.289 143.577C339.032 143.87 333.432 144.022 327.603 144.022C297.863 144.022 273.749 139.92 273.749 134.866L273.775 123.361Z" fill="#932816" stroke="black" stroke-width="0.8366" stroke-miterlimit="10"/>
<path d="M327.603 132.238C357.346 132.238 381.457 128.138 381.457 123.082C381.457 118.025 357.346 113.926 327.603 113.926C297.86 113.926 273.749 118.025 273.749 123.082C273.749 128.138 297.86 132.238 327.603 132.238Z" fill="#F85532" stroke="black" stroke-width="0.8366" stroke-miterlimit="10"/>
<path d="M316.098 102.853V123.171C316.098 123.171 327.552 128.898 341 123.171L339.921 101.177C339.908 101.177 331.235 103.094 316.098 102.853Z" fill="#14162D" stroke="black" stroke-width="0.8366" stroke-miterlimit="10"/>
<path d="M322.448 103.501C310.448 103.501 301.279 99.9579 295.171 92.9736C291.286 88.5164 288.936 82.5989 288.568 76.3004L286.892 47.7413C286.841 46.7635 287.121 45.9254 287.705 45.3031C288.327 44.6428 289.254 44.2619 290.244 44.2619C291.578 44.2619 293.216 45.0238 293.432 47.1572C293.444 47.3349 293.457 47.4492 293.457 47.4492C293.444 47.5254 292.467 61.1764 295.336 79.7544C298.143 97.8626 323.425 98.0785 324.505 98.0785C324.517 98.0785 324.759 98.0911 325.19 98.0911C329.533 98.0911 351.286 97.2023 353.025 79.729C354.879 61.0494 354.905 47.5636 354.905 47.4366C354.905 47.4366 354.905 47.3349 354.93 47.1572C355.159 45.0238 356.784 44.2619 358.117 44.2619C359.108 44.2619 360.035 44.6428 360.657 45.3031C361.241 45.9254 361.533 46.7762 361.47 47.7413L359.59 79.6401C359.59 79.7671 359.654 87.7799 353.152 94.4086C347.273 100.39 338.029 103.425 325.673 103.425H325.279C324.289 103.475 323.349 103.501 322.448 103.501Z" fill="#F85532"/>
<path d="M358.117 44.7952C358.943 44.7952 359.756 45.1254 360.263 45.6715C360.759 46.1921 360.987 46.8778 360.936 47.7159L359.057 79.6147V79.6528V79.6909C359.057 79.7671 359.108 87.5894 352.746 94.053C346.968 99.9197 337.863 102.891 325.66 102.891H325.216C324.289 102.929 323.349 102.955 322.448 102.955C310.613 102.955 301.571 99.4753 295.578 92.618C291.768 88.2497 289.457 82.4465 289.102 76.2623L287.425 47.7032C287.375 46.8651 287.603 46.1794 288.098 45.6587C288.619 45.1127 289.419 44.7825 290.244 44.7825C291.413 44.7825 292.721 45.4175 292.911 47.1953C292.924 47.2969 292.924 47.3604 292.924 47.4111C292.848 48.5032 292.035 61.8748 294.816 79.8306C297.686 98.3578 323.324 98.5991 324.467 98.5991C324.467 98.5991 324.721 98.6118 325.178 98.6118C329.597 98.6118 351.755 97.6975 353.546 79.7671C355.4 61.0621 355.425 47.5508 355.425 47.4492C355.425 47.4365 355.425 47.335 355.451 47.1826C355.641 45.4302 356.949 44.7952 358.117 44.7952ZM358.117 43.7285C356.365 43.7285 354.638 44.8079 354.397 47.0937C354.371 47.3096 354.371 47.4239 354.371 47.4239C354.371 47.4239 354.371 60.7955 352.492 79.6656C350.79 96.7324 329.292 97.5451 325.19 97.5451C324.759 97.5451 324.517 97.5324 324.517 97.5324C324.517 97.5324 324.517 97.5324 324.505 97.5324C323.984 97.5324 298.613 97.4436 295.857 79.6528C292.962 60.9098 293.978 47.4111 293.978 47.4111C293.978 47.4111 293.978 47.2842 293.952 47.081C293.711 44.7952 291.984 43.7158 290.232 43.7158C288.225 43.7158 286.194 45.1254 286.359 47.7667L288.035 76.3258C288.403 82.5608 290.663 88.6054 294.778 93.3165C299.641 98.8785 308.035 104.021 322.448 104.021C323.362 104.021 324.302 103.996 325.254 103.958C325.394 103.958 325.521 103.958 325.66 103.958C360.594 103.958 360.111 79.6782 360.111 79.6782L361.99 47.7794C362.143 45.1508 360.124 43.7285 358.117 43.7285Z" fill="black"/>
<path d="M330.41 81.2402H318.6C311.59 81.2402 305.851 75.5004 305.851 68.4908V13.3663C305.851 6.35667 311.59 0.616943 318.6 0.616943H330.41C337.419 0.616943 343.159 6.35667 343.159 13.3663V68.4908C343.159 75.5131 337.432 81.2402 330.41 81.2402Z" fill="#14162D" stroke="black" stroke-width="0.8366" stroke-miterlimit="10"/>
<path d="M323.527 87.4751C321.622 94.9038 323.844 102.282 324.06 109.761C324.238 116.212 322.041 122.257 317.978 127.273C308.949 138.384 294.714 142.104 281.19 144.365C266.346 146.854 251.425 148.949 236.594 151.514C221.597 154.117 206.651 157.013 191.832 160.505C162.956 167.298 134.435 176.34 107.819 189.572C85.2286 200.797 64.0476 215.185 45.8889 232.734C27.9587 250.055 13.0635 270.589 3.45077 293.662C2.24442 296.544 1.13965 299.465 0.111078 302.411C-0.663525 304.621 2.84124 305.573 3.60314 303.376C11.8952 279.668 25.9651 258.36 43.3746 240.353C60.9619 222.169 81.7746 207.274 104.124 195.515C130.13 181.838 158.244 172.479 186.714 165.457C216.175 158.181 246.156 153.393 276.124 148.797C289.965 146.676 304.53 144.162 315.565 134.854C320.238 130.917 324.06 125.876 326.13 120.085C328.556 113.304 327.413 106.434 326.663 99.4626C326.27 95.7673 326.092 92.0466 327.019 88.4148C327.603 86.1799 324.111 85.2148 323.527 87.4751Z" fill="black"/>
<path d="M328.111 88.1482H323.743C321.559 88.1482 319.768 86.3577 319.768 84.1735V81.3798H331.578V84.6941C331.565 86.5862 330.016 88.1482 328.111 88.1482Z" fill="#05081C" stroke="black" stroke-width="0.8366" stroke-miterlimit="10"/>
<path opacity="0.8" d="M339.21 10.4074L337.914 9.75981C336.911 9.25187 335.717 9.30272 334.765 9.89955L334.016 10.3567C333.063 10.9408 332.479 11.9821 332.479 13.0995V65.4431C332.479 66.7765 331.654 67.9701 330.422 68.4527L318.46 73.075C317.216 73.5575 316.403 74.7512 316.403 76.0845C316.403 77.8623 317.851 79.3099 319.629 79.3099H330.562C336.314 79.3099 340.962 74.6496 340.962 68.9098V13.29C340.987 12.071 340.302 10.9535 339.21 10.4074Z" fill="#05081C"/>
<g opacity="0.8">
<path d="M353.495 91.6911C353.343 91.1577 353.305 90.6625 353.406 90.2054C353.61 89.2911 354.079 88.3514 354.524 87.564C355.971 84.9481 356.848 81.9894 357.051 79.0052L358.956 51.17C358.994 50.5858 359.248 50.0525 359.654 49.6461L357.927 80.3767C357.787 82.4466 357.102 84.4529 356.378 86.5735L356.162 87.2084C355.692 88.6053 354.943 89.9514 353.952 91.2085L353.533 91.7418L353.495 91.6911Z" fill="#7C2B1E"/>
<path d="M355.616 86.8402L355.552 87.0434C355.222 88.0085 354.765 88.9482 354.181 89.8498C354.41 89.1767 354.752 88.491 355.083 87.8942C355.273 87.5386 355.451 87.1831 355.616 86.8402ZM360.352 48.4397L359.806 48.7572C358.943 49.2524 358.384 50.154 358.321 51.1445L356.416 78.9671C356.213 81.875 355.387 84.7069 353.978 87.2593C353.495 88.1355 353.013 89.0878 352.797 90.0656C352.67 90.6624 352.721 91.2847 352.898 91.8689L353.267 93.1133L354.448 91.6149C355.438 90.3577 356.238 88.9482 356.759 87.4244C357.546 85.1005 358.397 82.8021 358.562 80.4274L360.352 48.4397Z" fill="#7C2B1E"/>
</g>
<path d="M323.4 125.85C323.4 125.85 353.381 131.755 352.073 123.234C351.692 120.707 341.381 120.25 341.381 120.25L341.571 123.539L339.26 124.504C338.778 124.682 338.283 124.847 337.787 124.974C333.229 126.092 330.359 126.434 326.752 126.257L323.4 125.85Z" fill="#932816"/>
<defs>
<linearGradient id="paint0_linear_110_558" x1="56.5733" y1="280.391" x2="591.775" y2="280.391" gradientUnits="userSpaceOnUse">
<stop stop-color="#0F102A"/>
<stop offset="1" stop-color="#000021"/>
</linearGradient>
</defs>
</svg>
