<svg width="549" height="866" viewBox="0 0 549 866" fill="none" xmlns="http://www.w3.org/2000/svg">
<path d="M204.473 486.582C203.165 478.265 196.575 471.699 188.244 470.442C197.108 468.893 203.902 461.325 204.257 452.106C204.638 461.426 211.584 469.045 220.6 470.468C212.321 471.776 205.781 478.303 204.473 486.582Z" fill="#F85532" stroke="black" stroke-width="0.7724" stroke-miterlimit="10"/>
<path d="M26.6826 827.755C23.889 816.085 14.7969 807.069 3.10168 804.364C15.0128 801.278 24.1049 791.411 26.3271 779.411C28.5874 791.589 37.8826 801.494 50.0096 804.427C38.4541 807.196 29.4636 816.186 26.6826 827.755Z" fill="white"/>
<path d="M26.3271 781.722C29.1334 792.478 37.3874 801.164 48.1049 804.427C37.8191 807.539 29.7938 815.564 26.6826 825.837C23.5461 815.45 15.4192 807.386 4.99375 804.339C15.4826 800.961 23.5715 792.313 26.3271 781.722ZM26.3271 774.916C25.743 789.735 14.835 801.9 0.587402 804.389C13.9842 806.421 24.5747 816.974 26.6826 830.333C28.7779 817.024 39.2922 806.51 52.6001 804.415C38.1112 802.142 26.9366 789.888 26.3271 774.916Z" fill="black"/>
<path d="M391.394 517.516C389.019 508.995 382.352 502.379 373.806 500.081C382.441 497.503 389.083 490.366 391.114 481.655C393.184 490.493 399.952 497.655 408.778 500.131C400.333 502.493 393.756 509.071 391.394 517.516Z" fill="white"/>
<path d="M391.127 483.992C393.578 491.408 399.33 497.414 406.721 500.132C399.597 502.722 393.997 508.322 391.406 515.433C388.778 508.233 383.089 502.595 375.864 500.043C383.089 497.262 388.714 491.306 391.127 483.992ZM391.114 476.957C390.657 488.601 382.086 498.151 370.886 500.119C381.413 501.719 389.73 509.998 391.381 520.5C393.032 510.049 401.286 501.782 411.737 500.144C400.371 498.341 391.597 488.715 391.114 476.957Z" fill="black"/>
<g opacity="0.7">
<path d="M531.965 33.9669C530.01 26.9699 524.537 21.535 517.527 19.6429C524.625 17.5222 530.073 11.6682 531.749 4.51886C533.451 11.7824 539.013 17.6619 546.251 19.6937C539.305 21.6365 533.908 27.0334 531.965 33.9669Z" fill="white"/>
<path d="M531.736 6.44903C533.756 12.5443 538.467 17.4714 544.536 19.7063C538.695 21.8397 534.086 26.4366 531.965 32.2779C529.806 26.3604 525.133 21.7381 519.203 19.6429C525.133 17.3444 529.756 12.4428 531.736 6.44903ZM531.736 0.658478C531.368 10.2205 524.321 18.0682 515.127 19.6809C523.762 20.9889 530.606 27.7953 531.965 36.4177C533.324 27.8334 540.105 21.0524 548.689 19.6936C539.343 18.2333 532.13 10.3221 531.736 0.658478Z" fill="black"/>
</g>
<path d="M266.683 661.226C272.041 661.226 276.384 656.882 276.384 651.524C276.384 646.166 272.041 641.822 266.683 641.822C261.325 641.822 256.981 646.166 256.981 651.524C256.981 656.882 261.325 661.226 266.683 661.226Z" fill="white"/>
<path d="M266.683 642.318C271.762 642.318 275.889 646.445 275.889 651.511C275.889 656.591 271.762 660.718 266.683 660.718C261.616 660.718 257.476 656.591 257.476 651.511C257.476 646.445 261.603 642.318 266.683 642.318ZM266.683 641.314C261.045 641.314 256.473 645.886 256.473 651.524C256.473 657.162 261.045 661.734 266.683 661.734C272.321 661.734 276.892 657.162 276.892 651.524C276.879 645.886 272.321 641.314 266.683 641.314Z" fill="black"/>
<path d="M396.448 140.406C400.003 140.406 402.886 137.524 402.886 133.968C402.886 130.412 400.003 127.53 396.448 127.53C392.892 127.53 390.01 130.412 390.01 133.968C390.01 137.524 392.892 140.406 396.448 140.406Z" fill="#F85532" stroke="black" stroke-width="0.9754" stroke-miterlimit="10"/>
<path d="M365.413 862.993C362.619 851.323 353.527 842.307 341.832 839.603C353.743 836.517 362.835 826.65 365.057 814.65C367.317 826.828 376.613 836.733 388.74 839.666C377.184 842.434 368.194 851.425 365.413 862.993Z" fill="#EEF166"/>
<path d="M365.057 816.961C367.863 827.717 376.117 836.403 386.835 839.666C376.549 842.777 368.524 850.803 365.413 861.076C362.276 850.688 354.149 842.625 343.724 839.577C354.225 836.199 362.301 827.552 365.057 816.961ZM365.057 810.155C364.473 824.974 353.565 837.139 339.317 839.628C352.714 841.66 363.305 852.212 365.413 865.571C367.508 852.263 378.022 841.749 391.33 839.653C376.841 837.38 365.679 825.126 365.057 810.155Z" fill="black"/>
</svg>
