<svg width="615" height="908" viewBox="0 0 615 908" fill="none" xmlns="http://www.w3.org/2000/svg">
<path d="M453.155 509.296C450.514 498.312 441.968 489.816 430.959 487.264C442.171 484.369 450.73 475.073 452.825 463.772C454.959 475.238 463.695 484.559 475.124 487.315C464.241 489.943 455.771 498.413 453.155 509.296Z" fill="white"/>
<path d="M452.825 465.956C455.466 476.077 463.238 484.255 473.32 487.328C463.632 490.248 456.076 497.804 453.155 507.493C450.209 497.715 442.54 490.121 432.736 487.251C442.616 484.077 450.222 475.924 452.825 465.956ZM452.825 459.556C452.279 473.512 442.006 484.953 428.584 487.315C441.194 489.232 451.162 499.163 453.155 511.747C455.136 499.213 465.029 489.321 477.549 487.353C463.911 485.181 453.397 473.651 452.825 459.556Z" fill="black"/>
<path d="M588.095 799.839C585.302 788.169 576.21 779.153 564.514 776.448C576.425 773.362 585.518 763.495 587.74 751.495C590 763.673 599.295 773.578 611.422 776.511C599.867 779.28 590.876 788.27 588.095 799.839Z" fill="#EEF166"/>
<path d="M587.74 753.806C590.546 764.562 598.8 773.248 609.518 776.511C599.232 779.623 591.206 787.648 588.095 797.921C584.959 787.534 576.832 779.47 566.406 776.423C576.895 773.045 584.984 764.397 587.74 753.806ZM587.74 747C587.156 761.819 576.248 773.984 562 776.473C575.397 778.505 585.987 789.045 588.095 802.417C590.19 789.108 600.705 778.594 614.013 776.499C599.524 774.226 588.349 761.972 587.74 747Z" fill="black"/>
<path d="M289.943 905.428C287.962 892.844 277.981 882.914 265.371 880.996C278.781 878.647 289.067 867.193 289.613 853.237C290.197 867.332 300.711 878.875 314.349 881.022C301.803 883.003 291.911 892.895 289.943 905.428Z" fill="#F85532" stroke="black" stroke-width="0.7272" stroke-miterlimit="10"/>
<path d="M259.073 706.683C257.752 698.289 251.098 691.66 242.679 690.378C251.632 688.803 258.489 681.171 258.857 671.863C259.238 681.273 266.26 688.968 275.365 690.403C266.997 691.724 260.393 698.327 259.073 706.683Z" fill="#F85532" stroke="black" stroke-width="0.7272" stroke-miterlimit="10"/>
<g opacity="0.7">
<path d="M363.606 590.491C362.26 584.878 357.892 580.535 352.267 579.24C357.994 577.754 362.375 573.005 363.441 567.24C364.533 573.094 369.003 577.856 374.832 579.265C369.27 580.599 364.952 584.929 363.606 590.491Z" fill="#EEF166"/>
<path d="M363.441 568.344C364.787 573.513 368.762 577.691 373.917 579.265C368.965 580.764 365.105 584.624 363.619 589.564C362.108 584.561 358.197 580.687 353.181 579.227C358.222 577.602 362.121 573.437 363.441 568.344ZM363.441 565.068C363.162 572.192 357.917 578.046 351.06 579.253C357.498 580.23 362.603 585.297 363.606 591.735C364.609 585.335 369.676 580.281 376.076 579.265C369.105 578.173 363.733 572.281 363.441 565.068Z" fill="black"/>
</g>
<g opacity="0.7">
<path d="M363.657 362.628C360.749 350.526 351.327 341.18 339.2 338.373C351.543 335.173 360.978 324.938 363.289 312.494C365.638 325.129 375.263 335.389 387.848 338.424C375.873 341.307 366.54 350.627 363.657 362.628Z" fill="#EEF166"/>
<path d="M363.302 314.894C366.209 326.043 374.768 335.046 385.879 338.437C375.213 341.662 366.895 349.98 363.67 360.647C360.419 349.878 351.987 341.51 341.181 338.361C352.051 334.843 360.444 325.865 363.302 314.894ZM363.302 307.833C362.705 323.198 351.378 335.808 336.61 338.399C350.502 340.507 361.486 351.44 363.67 365.307C365.841 351.504 376.749 340.608 390.54 338.437C375.518 336.062 363.936 323.364 363.302 307.833Z" fill="black"/>
</g>
<path d="M217.384 36.3377C216.025 27.7153 209.194 20.9089 200.546 19.601C209.74 17.9882 216.774 10.1405 217.155 0.578491C217.549 10.2421 224.762 18.1406 234.108 19.6137C225.511 20.9724 218.73 27.7407 217.384 36.3377Z" fill="#F85532" stroke="black" stroke-width="0.9754" stroke-miterlimit="10"/>
<path d="M479.644 702.759C482.295 702.759 484.444 700.61 484.444 697.959C484.444 695.308 482.295 693.159 479.644 693.159C476.993 693.159 474.844 695.308 474.844 697.959C474.844 700.61 476.993 702.759 479.644 702.759Z" fill="#F85532" stroke="black" stroke-width="0.7272" stroke-miterlimit="10"/>
<path d="M199.111 167.692C196.381 167.692 194.171 165.469 194.171 162.752C194.171 160.034 196.394 157.812 199.111 157.812C201.829 157.812 204.051 160.034 204.051 162.752C204.051 165.469 201.841 167.692 199.111 167.692Z" fill="white"/>
<path d="M199.111 158.054C201.702 158.054 203.797 160.161 203.797 162.739C203.797 165.317 201.689 167.425 199.111 167.425C196.533 167.425 194.425 165.317 194.425 162.739C194.425 160.161 196.521 158.054 199.111 158.054ZM199.111 157.546C196.241 157.546 193.905 159.869 193.905 162.752C193.905 165.622 196.229 167.958 199.111 167.958C201.981 167.958 204.317 165.635 204.317 162.752C204.305 159.869 201.981 157.546 199.111 157.546Z" fill="black"/>
<path d="M5.73952 61.1634C3.00936 61.1634 0.79982 58.9411 0.79982 56.2236C0.79982 53.5062 3.02206 51.2839 5.73952 51.2839C8.45698 51.2839 10.6792 53.5062 10.6792 56.2236C10.6792 58.9411 8.46968 61.1634 5.73952 61.1634Z" fill="white"/>
<path d="M5.73952 51.5252C8.33 51.5252 10.4252 53.6332 10.4252 56.211C10.4252 58.7888 8.3173 60.8967 5.73952 60.8967C3.16174 60.8967 1.0538 58.7888 1.0538 56.211C1.0538 53.6332 3.14905 51.5252 5.73952 51.5252ZM5.73952 51.0172C2.86968 51.0172 0.533203 53.3411 0.533203 56.2237C0.533203 59.0935 2.85698 61.4301 5.73952 61.4301C8.60936 61.4301 10.9458 59.1062 10.9458 56.2237C10.9458 53.3411 8.60936 51.0172 5.73952 51.0172Z" fill="black"/>
</svg>
