<?xml version="1.0" encoding="utf-8"?>
<!-- Generator: Adobe Illustrator 26.0.0, SVG Export Plug-In . SVG Version: 6.00 Build 0)  -->
<svg version="1.1" id="Capa_1" xmlns="http://www.w3.org/2000/svg" xmlns:xlink="http://www.w3.org/1999/xlink" x="0px" y="0px"
	 viewBox="0 0 793.65 400.79" style="enable-background:new 0 0 793.65 400.79;" xml:space="preserve">
<style type="text/css">
	.st0{fill:#14162D;}
	.st1{fill:#F85532;}
	.st2{fill:#FFFFFF;}
</style>
<g>
	<g>
		<g>
			<path class="st0" d="M121.24,263.68H81.32c-15.91,0-21.5-0.92-25.17-1.92c-5.78-1.61-24.18-8.85-24.18-35.88
				c0-11.57,0.26-28.6,0.79-50.6l1.09-47.52c0.05-2.08-0.19-4.17-0.76-6.17c-0.22-0.78-0.5-1.7-0.85-2.78
				c-2.45-7.54-3.59-13.55-3.59-18.94c0-6.08,1.35-11.86,4.01-17.19l0,0c1.32-2.64,3.17-4.97,5.43-6.86l0,0
				c7.59-6.33,18-9.79,31.82-10.59l0.89-0.03l24.8-0.4c1.18,0,2.74,0.06,6.55,0.36c1.51,0.12,2.55,0.2,3.16,0.23
				c7.19,0.02,16.44,0.56,28.27,1.66l2.75,0.25l2.6,0.95c17.43,6.36,18.68,26.28,19.09,32.83l0.01,0.17
				c0.05,0.31,0.12,0.68,0.21,1.1l0.1,0.52c0.74,4.26,1.1,8.97,1.1,14.41c0,11.7-3.4,20.36-8.6,26.26
				c-3.32,3.77-5.53,8.38-5.81,13.4c-0.03,0.59-0.07,1.21-0.11,1.85c-0.31,4.96-0.35,7.26-0.35,8.19v0.27
				c2.72,1.85,5.46,4.49,7.95,8.22c2.87,4.32,4.79,8.87,5.73,13.55c0.66,3.31,1,6.56,1,9.66c0,1.18-0.05,3.11-0.45,8.43
				c-0.2,2.64-0.32,4.42-0.33,5.34c0,17.49-2.67,29.89-8.41,38.95l0,0.01c-2.14,3.38-5.2,6.09-8.81,7.82l-0.01,0
				C135.08,262.18,128.35,263.68,121.24,263.68z"/>
			<path class="st0" d="M74.73,220.87c1.8,0.04,3.97,0.07,6.59,0.07h34.05c0.19-2.1,0.33-4.71,0.35-7.93
				c-6.63,2.25-12.22,3.32-17.17,3.32c-8.58,0-15.64-2.45-20.98-7.28c-0.96-0.89-1.85-1.84-2.67-2.83
				C74.81,211.69,74.76,216.58,74.73,220.87z"/>
			<path class="st0" d="M203.62,64.98c16.6,0,21.63,1.07,25.36,1.9l0,0c2.62,0.58,5.1,1.65,7.32,3.15l0,0
				c11.44,7.72,17.23,21.25,17.23,40.21c0,7.53-0.7,14.49-2.07,20.68c-1.96,8.7-6,14.71-10.87,18.6c0.28,0.34,0.54,0.66,0.78,0.96
				c10.63,13.33,16.09,27.89,16.09,43.1c0,9.73-1.78,19.38-5.29,28.68c-4.16,11.17-10.36,20.2-18.37,26.78
				c-8.71,7.19-24.13,15.29-49.25,15.29c-2.83,0-5.78-0.1-8.86-0.32c-0.35-0.02-1.21-0.08-3.1-0.37c-0.46-0.07-0.92-0.13-1.38-0.16
				c-2.95-0.23-6.95-0.51-12-0.83c-12.79-0.96-23.19-7.72-28.78-18.58l0,0c-1.28-2.48-2.06-5.18-2.29-7.96l0,0
				c-0.37-4.26-0.86-8.93-1.48-13.85c-0.89-6.68-1.34-12.34-1.34-17.12c0-9.63,1.94-18.87,5.75-27.46l0-0.01
				c1.29-2.9,3.21-5.48,5.62-7.54l0,0c1.09-0.93,2.23-1.79,3.42-2.55c-8.12-11.5-12.26-24.19-12.26-37.76
				c0-14.07,3.6-26.18,10.71-36c10.41-14.19,25.02-23.35,43.53-27.34c5.66-1.21,8.83-1.41,11.61-1.41L203.62,64.98z"/>
			<path class="st0" d="M179.11,221.41c18.05,1.2,25.62-3.79,27.52-5.36c2.15-1.77,3.99-4.71,5.51-8.79
				c1.74-4.6,2.57-9.05,2.57-13.66c0-5.37-2.25-10.8-6.88-16.61c-0.06-0.07-0.15-0.18-0.29-0.33c2.37,4.37,3.93,9.3,3.93,14.79
				c0,10.79-4.85,19.89-13.29,24.97l-2.07,1.25l-2.3,0.75c-3.44,1.12-6.66,1.25-8.79,1.25c-5.27,0-10.55-1.24-16.12-3.84
				c0.04,0.32,0.08,0.64,0.13,0.97c0.16,1.26,0.31,2.5,0.45,3.72c2.7,0.19,4.97,0.36,6.77,0.51l1.7,0.22
				C178,221.23,178.6,221.34,179.11,221.41z"/>
			<path class="st0" d="M178.68,221.38c0.03,0,0.06,0,0.09,0.01C178.74,221.38,178.71,221.38,178.68,221.38z"/>
			<path class="st0" d="M280.69,264.06h-6.65c-3.5,0-6.94-0.86-10.03-2.5l0,0c-11.19-5.94-17.6-17.39-17.6-31.42
				c0-0.66,0.06-2.5,0.23-5.51c0.05-0.96,0.09-1.76,0.12-2.39l-0.11-0.69l-0.04-3.57c0-2.62,0.21-6.36,0.66-11.76
				c0.49-5.96,0.81-10.37,0.92-13.08l0.02-0.33c0.31-5.18,0.69-11.52,1.14-19.01c0.24-4.04-2.39-7.61-6.24-8.84
				c-8.17-2.6-19.2-10.44-19.2-33.8c0-0.37,0.04-1.4,0.17-3.1c0.02-0.22,0.03-0.46,0.03-0.67l0-19.15c0-0.2-0.01-0.42-0.02-0.62
				c-0.13-1.78-0.17-2.93-0.17-3.45c0-5.8,0-20.17,9.23-29.53c7.48-8.79,20.45-9.84,57.53-9.84c38.87,0,47.61,2.22,53.23,4.5
				l0.37,0.15c7.79,3.33,17.08,11.58,17.08,31.97c0,2.29-0.14,5.19-0.46,9.12c-0.29,3.65-0.33,5.23-0.33,5.74v6.66
				c0,0.58,0.04,1.24,0.11,1.96l0.09,1.96v2.74c0,24.3-12.61,32.23-21.34,34.81c-3.73,1.1-6.28,4.51-6.25,8.4l0,0
				c0.13,14.66,0.2,25.67,0.2,33.02c0,0.08,0.01,1.96,0.96,7.43c1.08,6.27,1.59,10.88,1.59,14.53c0,18.1-11.04,31.56-28.84,35.21
				C304.16,263.65,300.15,264.06,280.69,264.06z"/>
			<path class="st0" d="M289.34,218.06c0.12,1.01,0.19,2,0.19,3.07c0,0.05,0,0.1,0,0.15c1.03-0.01,1.96-0.03,2.79-0.04
				c-0.04-0.22-0.08-0.46-0.12-0.69c-1.08-6.23-1.58-10.91-1.58-14.71c0-1.79,0-3.8-0.01-6.03c-0.18,2.72-0.43,6.02-0.76,9.95
				c-0.48,5.71-0.51,7.74-0.51,8.23V218.06z"/>
			<path class="st0" d="M420.39,263.68h-39.91c-15.91,0-21.5-0.92-25.17-1.93c-5.78-1.61-24.17-8.85-24.17-35.88
				c0-11.57,0.26-28.6,0.79-50.6l1.09-47.64c0.05-2-0.18-3.99-0.73-5.92c-0.23-0.81-0.52-1.77-0.89-2.9
				c-2.45-7.54-3.59-13.56-3.59-18.94c0-6.08,1.35-11.86,4.01-17.19l0.08-0.16c1.27-2.53,3.04-4.77,5.21-6.58l0.14-0.12
				c7.59-6.32,18-9.79,31.82-10.59l4.08-0.08l4.72-12.66c1.16-3.15,2.3-5.85,3.45-8.15c4.13-8.24,12.05-13.58,21.18-14.29l1.65-0.06
				c1.31,0,2.74,0.1,5.58,0.4c1.24,0.02,2.41,0.08,3.53,0.18h3.64l1.01,0.17c0.6-0.04,1.4-0.13,2.41-0.24
				c2.27-0.24,3.83-0.39,5.07-0.46c4.58-0.47,11.22,0.16,18.18,5.24l0.27,0.2c4.16,3.04,7.03,7.54,8.02,12.59v0l0.86,2.58v3.47
				c0,3.27-0.69,6.22-1.74,8.83c-2.26,5.61-1.91,12.06,1.04,17.35c4.35,7.83,4.91,16.8,5.16,20.79l0.01,0.16
				c0.05,0.31,0.12,0.67,0.21,1.09l0.1,0.54c0.74,4.26,1.1,8.97,1.1,14.41c0,11.85-3.49,20.58-8.79,26.48
				c-3.23,3.6-5.33,8.07-5.6,12.9c-0.04,0.68-0.08,1.39-0.12,2.13c-0.31,4.93-0.35,7.24-0.35,8.19v0.27
				c2.72,1.85,5.46,4.49,7.94,8.21c2.88,4.33,4.79,8.87,5.73,13.55c0.67,3.35,1,6.59,1,9.68c0,1.17-0.05,3.09-0.45,8.43
				c-0.2,2.64-0.32,4.42-0.33,5.34c0,17.49-2.67,29.89-8.4,38.94l-0.13,0.21c-2.06,3.25-4.99,5.86-8.46,7.52l-0.23,0.11
				C434.23,262.18,427.5,263.68,420.39,263.68z"/>
			<path class="st0" d="M373.88,220.87c1.8,0.04,3.97,0.07,6.59,0.07h34.05c0.19-2.1,0.33-4.71,0.35-7.93
				c-6.63,2.25-12.22,3.32-17.17,3.32c-8.57,0-15.63-2.45-20.97-7.27l-0.25-0.23c-0.87-0.81-1.68-1.66-2.43-2.57
				C373.96,211.72,373.91,216.6,373.88,220.87z"/>
			<path class="st0" d="M519.39,264.06c-6.9,0-13.07-1.49-18.35-4.43c-2.03-1.11-4.2-2.49-6.4-4.23c-5.38,3.46-13.2,5.92-24.56,5.92
				c-0.5,0.02-2.01,0.14-4.23,0.32c-4.93,0.41-6.71,0.46-7.9,0.46c-16.27,0-25.87-9.55-28.94-20.04c-1.23-3.46-1.23-7.32-1.23-20.3
				c0-10.84,0.3-27.3,0.89-48.91c0.56-20.6,0.85-36.31,0.87-46.73c-0.13-0.57-0.45-1.75-1.13-3.76c-2.3-6.79-3.37-12.2-3.37-17.01
				c0-8.49,3.4-16.56,9.59-22.74c5.88-5.88,13.51-10.15,22.67-12.71c1.79-0.49,4.37-1.08,17.36-3.21l2.3-0.41
				c1.46-0.24,2.85-0.48,4.19-0.73l1.35-0.24l1.37-0.07c7.72-0.39,9.18-0.42,10.08-0.42c3.17,0,7.3,0.42,13.8,1.42
				c16.83,2.66,30.43,8.92,40.53,18.63c11.72,11.32,17.9,26.58,17.9,44.16c0,14.11-3.61,27.09-10.72,38.62
				c3.88,3.7,7.4,9.27,9.5,17.67c1.46,5.87,2.2,11.77,2.2,17.54c0,13.82-2.56,25.86-7.6,35.78
				C551.15,255.06,536.89,264.06,519.39,264.06z"/>
			<path class="st0" d="M519.28,218.05c0.37,1.43,0.77,2.35,1.14,2.95c0.22-0.3,0.62-0.89,1.09-1.79c1.88-3.7,2.9-9.3,2.92-16.14
				c-3.25-0.88-6.38-2.28-9.32-4.15C516.94,207.19,518.33,213.57,519.28,218.05z"/>
			<path class="st0" d="M623.47,263.68h-39.91c-15.91,0-21.5-0.92-25.17-1.93c-5.78-1.61-24.17-8.85-24.17-35.88
				c0-11.51,0.26-28.53,0.79-50.6l1.09-47.5c0.05-2.23-0.24-4.42-0.87-6.56c-0.2-0.69-0.45-1.49-0.75-2.4
				c-2.45-7.55-3.59-13.56-3.59-18.94c0-6.08,1.35-11.86,4.01-17.19l0,0c1.32-2.64,3.17-4.97,5.43-6.86l0,0
				c7.55-6.29,17.89-9.75,31.59-10.58c3.35-0.26,17.44-1.26,27.14-0.42c1.1,0.04,2.67,0.13,5.33,0.33c1.51,0.12,2.55,0.2,3.16,0.23
				c7.19,0.02,16.44,0.56,28.27,1.66c0,0,2.06,0.25,2.73,0.41c0.67,0.15,2.62,0.8,2.62,0.8c17.43,6.36,18.67,26.28,19.09,32.82
				l0.01,0.17c0.05,0.31,0.12,0.68,0.21,1.1l0.1,0.52c0.74,4.26,1.1,8.97,1.1,14.41c0,11.69-3.4,20.35-8.58,26.24
				c-3.33,3.79-5.54,8.4-5.83,13.44c-0.03,0.59-0.07,1.19-0.11,1.83c-0.31,4.96-0.35,7.26-0.35,8.19v0.27
				c2.72,1.85,5.46,4.49,7.95,8.22c2.88,4.33,4.79,8.88,5.73,13.55c0.66,3.33,1,6.58,1,9.66c0,1.22-0.05,3.09-0.45,8.42
				c-0.2,2.66-0.32,4.43-0.33,5.35c0,17.49-2.67,29.89-8.4,38.94l0,0c-2.15,3.39-5.2,6.1-8.82,7.84l0,0
				C637.31,262.18,630.58,263.68,623.47,263.68z"/>
			<path class="st0" d="M576.97,220.87c1.8,0.04,3.97,0.07,6.59,0.07h34.05c0.19-2.1,0.33-4.71,0.35-7.93
				c-6.63,2.25-12.22,3.32-17.17,3.32c-8.57,0-15.63-2.45-20.97-7.27l-0.25-0.23c-0.87-0.81-1.68-1.66-2.43-2.57
				C577.04,211.73,576.99,216.61,576.97,220.87z"/>
			<path class="st0" d="M693.62,264.06c-13.17,0-24.36-3.28-33.26-9.76c-17.8-12.73-28.39-34.46-31.35-64.49
				c-0.96-9.76-1.08-13.46-1.08-15.6c0-24.93,4.37-47.98,12.99-68.53c11.13-26.38,32.2-40.89,59.35-40.89
				c16.47,0,29.7,5,39.32,14.86c11.15,11.52,18.75,25.41,22.64,41.35c2.52,10.41,3.74,23.96,3.74,41.46
				c0,44.81-12.38,75.86-36.78,92.28C720.05,260.92,708.07,264.06,693.62,264.06z"/>
			<path class="st0" d="M673.75,198.98c2.05,8.33,5.58,16.36,11.6,20.67c0.65,0.47,2.75,1.68,8.26,1.68
				c8.27,0,11.16-1.67,11.66-2.01c4.98-3.35,8.64-8.55,11.3-14.77c-5.21,3.79-11.67,5.9-18.76,5.9
				C689.73,210.45,680.37,207.23,673.75,198.98z"/>
		</g>
		<g>
			<g>
				<path class="st1" d="M138.05,118.42c0,9.78-3.11,14.68-9.32,14.68c-2.33,0-6.12-1.37-11.36-4.11
					c-5.24-2.74-9.48-4.11-12.71-4.11c-5.05,0-7.88-0.21-8.54-0.2c-4.93,0.1-7.18,4.3-7.18,9.39c0,2.35-0.66,5.77,1.36,8.8
					c0.71,1.08,2.06,1.17,3.1,1.17c1.93,0,5.54-1.14,10.83-3.43c5.29-2.28,9.09-3.42,11.42-3.42c3.48,0,5.87,1.17,7.16,3.52
					c0.77,1.43,1.16,4.24,1.16,8.41c0,2.09-0.13,5.25-0.39,9.49c-0.26,4.24-0.39,7.4-0.39,9.49v2.94c-0.26,1.96-1.04,4.05-2.35,6.26
					c-1.56,2.61-3.26,3.91-5.09,3.91c-3.91,0-8.68-1.43-14.28-4.3c-3.19-1.65-5.84-3.04-7.96-4.16c-0.43-0.23-0.93-0.38-1.39-0.22
					c-2.11,0.7-3.17,4.58-3.17,11.62c0,4.96,0.98,8.35,2.94,10.17c1.3,1.17,3.52,1.76,6.65,1.76c4.04,0,10.11-1.76,18.19-5.28
					c8.09-3.52,12.85-5.28,14.28-5.28c1.17,0,2.41,0.98,3.72,2.94c1.3,1.96,2.15,3.91,2.54,5.87s0.59,3.78,0.59,5.48
					c0,1.05-0.13,3.33-0.39,6.85c-0.26,3.52-0.39,5.81-0.39,6.85c0,7.74-0.6,14.13-1.79,19.16c-1.52,6.38-7.38,10.76-13.94,10.77
					l-0.12,0h-1.56c-0.52,0-1.11,0-1.76,0c-6.13,0-18.33,0-36.59,0c-10.17,0-16.7-0.39-19.56-1.17c-5.61-1.57-8.41-6.65-8.41-15.26
					c0-11.35,0.26-28.04,0.78-50.09l1.17-51.07c0-2.74-0.91-6.91-2.74-12.52c-1.7-5.22-2.54-9.32-2.54-12.33l0-0.08
					c0.01-4.68,2.83-8.94,7.19-10.62c3.64-1.41,8.29-2.27,13.94-2.6c4.43-0.26,6.13-0.39,5.09-0.39h19.37c0.78,0,2.41,0.1,4.89,0.29
					c2.47,0.2,3.98,0.3,4.5,0.3c6.11,0,14.27,0.46,24.49,1.37c2.32,0.21,4.37,1.66,5.27,3.81c1,2.38,1.64,5.87,1.93,10.47
					c0,0.78,0.2,2.15,0.59,4.11C137.78,110.67,138.05,114.25,138.05,118.42z"/>
			</g>
			<g>
				<path class="st1" d="M174.44,243.45c-3.13-0.26-7.76-0.59-13.89-0.98c-0.1-0.01-0.2-0.02-0.3-0.02
					c-6.06-0.55-10.68-5.64-11.29-11.69c-0.32-3.19-0.7-6.52-1.13-10c-0.78-5.87-1.17-10.69-1.17-14.48
					c0-5.54,0.91-10.82,2.72-15.82c1.17-3.23,4.34-5.3,7.77-5.31l0.08,0c1.69,0,5.74,2.38,12.13,7.14
					c6.39,4.76,11.61,7.14,15.65,7.14c1.04,0,1.76-0.07,2.15-0.2c1.95-1.17,2.93-3.39,2.93-6.65c0-3.91-3.52-8.87-10.56-14.87
					c-10.57-9-17.15-15.13-19.76-18.39c-7.04-8.74-10.57-18.19-10.57-28.37c0-9.52,2.22-17.35,6.65-23.48
					c6.78-9.25,16.3-15.4,28.56-18.47c1.43-0.36,2.9-0.55,4.36-0.66l7.93-0.55c0.75-0.05,1.51-0.05,2.26-0.03
					c1.67,0.04,2.83-0.05,3.26-0.05c7.54,0,13.35,0.18,17.41,0.53c4.09,0.36,7.73,2.75,9.54,6.43c1.99,4.05,2.99,9.63,2.99,16.71
					c0,6-0.52,11.35-1.56,16.04c-1.17,5.22-3.59,7.83-7.24,7.83c-3,0-7.37-1.89-13.11-5.68c-5.74-3.78-9.91-5.67-12.52-5.67
					c-1.96,0-4.23,0.04-5.67,1.57c-0.8,0.85-0.78,2.22-0.78,3.52c0,3.52,3.85,8.68,11.54,15.46c12.13,10.57,19.37,17.35,21.72,20.35
					c7.7,9.66,11.54,19.63,11.54,29.94c0,7.17-1.31,14.22-3.91,21.13c-2.87,7.7-6.85,13.63-11.93,17.8
					c-7.96,6.57-19.91,9.86-39.5,10.06c-1.27,0.01-2.56-0.03-3.83-0.11L174.44,243.45z"/>
			</g>
			<g>
				<path class="st1" d="M339.96,102.58c0,1.7-0.13,4.18-0.39,7.44c-0.26,3.26-0.39,5.74-0.39,7.43v6.65c0,1.17,0.07,2.48,0.2,3.91
					c0,1.56,0,2.48,0,2.74c0,9.78-2.61,14.67-7.83,14.67c-1.83,0-4.57-1.57-8.22-4.7c-3.65-3.13-6.46-4.76-8.41-4.89
					c-2.22,0.79-3.33,2.61-3.33,5.49c0,7.32,0.07,18.26,0.2,32.83c0.13,14.57,0.2,25.51,0.2,32.83c0,2.48,0.42,6.18,1.27,11.07
					c0.85,4.9,1.27,8.53,1.27,10.88c0,7.97-3.98,12.74-11.94,14.31c-1.7,0.39-9,0.59-21.91,0.59h-4.42c-1.7,0-3.41-0.55-4.66-1.72
					c-2.56-2.41-3.84-6.01-3.84-10.82c0-0.52,0.06-1.96,0.2-4.31c0.13-2.35,0.2-3.92,0.2-4.7c0-0.26-0.07-0.78-0.2-1.57v-1.57
					c0-1.95,0.2-5.29,0.59-9.99c0.52-6.27,0.85-10.91,0.98-13.92c0.6-10.05,1.47-24.44,2.61-43.15c0.15-2.49-0.01-4.98-0.17-7.47
					c-0.07-1.01-0.03-2.3,0.1-3.87c0.13-2.61-0.52-4.44-1.96-5.49c-2.48,0-5.71,1.79-9.69,5.38c-3.98,3.59-7.14,5.38-9.49,5.38
					c-3.78,0-5.67-4.56-5.67-13.69c0-0.26,0.07-1.11,0.2-2.54c0-1.43,0-2.74,0-3.91v-13.5c0-1.17,0-2.54,0-4.11
					c-0.13-1.56-0.2-2.54-0.2-2.94c0-8.35,1.24-13.37,3.72-15.06c1.17-1.96,15.06-2.94,41.67-2.94c25.31,0,40.37,0.98,45.2,2.94
					C338.59,91.42,339.96,95.53,339.96,102.58z"/>
			</g>
			<g>
				<path class="st1" d="M437.2,118.42c0,9.78-3.11,14.68-9.32,14.68c-2.33,0-6.12-1.37-11.36-4.11c-5.24-2.74-9.48-4.11-12.71-4.11
					c-5.05,0-7.89-0.06-8.54-0.2c-4.79,1.17-7.18,4.3-7.18,9.39c0,2.35-0.66,5.77,1.36,8.8c0.71,1.08,2.06,1.17,3.1,1.17
					c1.93,0,5.54-1.14,10.83-3.43c5.29-2.28,9.09-3.42,11.42-3.42c3.48,0,5.87,1.17,7.16,3.52c0.77,1.43,1.16,4.24,1.16,8.41
					c0,2.09-0.13,5.25-0.39,9.49c-0.26,4.24-0.39,7.4-0.39,9.49v2.94c-0.26,1.96-1.04,4.05-2.35,6.26
					c-1.56,2.61-3.26,3.91-5.09,3.91c-3.91,0-8.68-1.43-14.28-4.3c-3.52-1.82-6.39-3.33-8.61-4.5c-2.61,0-3.91,3.91-3.91,11.74
					c0,4.96,0.98,8.35,2.94,10.17c1.3,1.17,3.52,1.76,6.65,1.76c4.04,0,10.11-1.76,18.19-5.28c8.09-3.52,12.85-5.28,14.28-5.28
					c1.17,0,2.41,0.98,3.72,2.94c1.3,1.96,2.15,3.91,2.54,5.87s0.59,3.78,0.59,5.48c0,1.05-0.13,3.33-0.39,6.85
					c-0.26,3.52-0.39,5.81-0.39,6.85c0,7.74-0.6,14.13-1.79,19.16c-1.52,6.38-7.38,10.76-13.94,10.77l-0.12,0h-1.56
					c-0.52,0-1.11,0-1.76,0c-6.13,0-18.33,0-36.59,0c-10.17,0-16.7-0.39-19.56-1.17c-5.61-1.57-8.41-6.65-8.41-15.26
					c0-11.35,0.26-28.04,0.78-50.09l1.17-51.07c0-2.74-0.91-6.91-2.74-12.52c-1.7-5.22-2.54-9.32-2.54-12.33c0-0.03,0-0.05,0-0.08
					c0.02-5.06,3.58-9.44,8.37-11.05c3.45-1.16,7.7-1.88,12.76-2.18c4.43-0.26,6.13-0.39,5.09-0.39h19.37c0.78,0,2.41,0.1,4.89,0.29
					c2.47,0.2,3.98,0.3,4.5,0.3c6.52,0,15.39,0.52,26.61,1.56c2.87,1.05,4.56,5.74,5.09,14.09c0,0.78,0.2,2.15,0.59,4.11
					C436.93,110.67,437.2,114.25,437.2,118.42z M431.33,55.25c0,1.19-1.44,3.16-4.3,5.92c-1.31,1.19-3.52,3.36-6.65,6.51
					c-1.43,1.58-3.98,4.08-7.63,7.5c0.39,0-1.76,0-6.46,0h-7.04c-3.78,0-5.67-0.85-5.67-2.54l4.3-11.54
					c0.91-2.47,1.76-4.5,2.54-6.06c0.78-1.56,2.02-2.41,3.72-2.54c0.52,0,1.95,0.13,4.3,0.39c1.43,0,2.67,0.07,3.72,0.2h2.94
					c0.78,0.13,1.69,0.2,2.74,0.2c0.78,0,2.38-0.13,4.79-0.39c2.41-0.26,3.94-0.39,4.6-0.39c1.04-0.26,2.28,0.13,3.72,1.18
					C431.06,54.33,431.19,54.86,431.33,55.25z"/>
			</g>
			<g>
				<path class="st1" d="M545.78,203.99c0,10.47-1.76,19.18-5.28,26.11c-4.7,9.16-11.74,13.74-21.13,13.74
					c-3.26,0-5.94-0.59-8.02-1.77c-6.52-3.53-10.83-9.56-12.91-18.07c-1.05-4.98-2.68-12.44-4.89-22.4
					c-0.13-0.13-0.85-1.37-2.15-3.73c-0.91-1.57-1.96-2.36-3.13-2.36c-1.83,0-3,1.76-3.52,5.28c-0.26,1.56-0.39,3.78-0.39,6.65
					c0,2.35,0.2,5.84,0.59,10.47c0.39,4.63,0.59,8.12,0.59,10.47c0,3.26-0.2,5.81-0.59,7.63c-0.78,3.39-5.74,5.09-14.87,5.09
					c-0.78,0-2.77,0.13-5.97,0.39c-3.2,0.26-5.25,0.39-6.16,0.39c-5.22,0-8.09-1.83-8.61-5.48c-0.13-0.26-0.2-4.76-0.2-13.5
					c0-10.69,0.29-26.8,0.88-48.33c0.59-21.52,0.88-37.63,0.88-48.33c0-1.95-0.75-5.15-2.25-9.59c-1.5-4.43-2.25-7.83-2.25-10.17
					c0-2.87,1.11-5.41,3.33-7.63c3.26-3.26,7.7-5.67,13.31-7.24c1.43-0.39,6.52-1.3,15.26-2.74l2.15-0.39
					c0.02,0,0.03-0.01,0.05-0.01c3.12-0.52,6.3-0.87,9.46-1.02c2.18-0.1,3.51-0.15,4-0.15c1.95,0,5.48,0.39,10.56,1.17
					c12.39,1.96,22.04,6.26,28.96,12.91c7.56,7.31,11.35,16.89,11.35,28.76c0,10.7-2.81,20.28-8.41,28.76
					c-1.7,2.61-5.02,6-9.98,10.17c-3,2.61-4.5,4.57-4.5,5.87c0,2.35,1.17,4.43,3.52,6.26c2.35,1.83,4.82,2.74,7.44,2.74
					c0.52,0,1.33-0.16,2.45-0.49c1.11-0.32,1.92-0.49,2.45-0.49c2.87,0,5.02,2.88,6.46,8.64
					C545.26,195.82,545.78,199.94,545.78,203.99z M505.67,141.51c0-7.56-3.46-11.35-10.37-11.35c-1.57,0-2.55,0.07-2.94,0.2
					c-3.39,1.05-5.09,4.89-5.09,11.54v5.28c0,3.26,3.13,4.89,9.39,4.89c2.74,0,4.92-1.01,6.55-3.03
					C504.86,147.02,505.67,144.51,505.67,141.51z"/>
			</g>
			<g>
				<path class="st1" d="M640.28,118.42c0,9.78-3.11,14.68-9.32,14.68c-2.33,0-6.12-1.37-11.36-4.11
					c-5.24-2.74-9.48-4.11-12.71-4.11c-5.05,0-5.86-0.43-8.54-0.2c-4.79,1.17-7.18,4.3-7.18,9.39c0,2.35,0.45,5.28,1.36,8.8
					c1.03,0.78,2.06,1.17,3.1,1.17c1.93,0,5.54-1.14,10.83-3.43c5.29-2.28,9.09-3.42,11.42-3.42c3.48,0,5.87,1.17,7.16,3.52
					c0.77,1.43,1.16,4.24,1.16,8.41c0,2.09-0.13,5.25-0.39,9.49c-0.26,4.24-0.39,7.4-0.39,9.49l0,0c0,3.17-0.69,6.34-2.28,9.08
					c-0.02,0.04-0.05,0.08-0.07,0.12c-1.56,2.61-3.26,3.91-5.09,3.91c-3.91,0-8.68-1.43-14.28-4.3c-3.52-1.82-6.39-3.33-8.61-4.5
					c-2.61,0-3.91,3.91-3.91,11.74c0,4.96,0.98,8.35,2.94,10.17c1.3,1.17,3.52,1.76,6.65,1.76c4.04,0,10.11-1.76,18.19-5.28
					c8.09-3.52,12.85-5.28,14.28-5.28c1.17,0,2.41,0.98,3.72,2.94c1.3,1.96,2.15,3.91,2.54,5.87s0.59,3.78,0.59,5.48
					c0,1.05-0.13,3.33-0.39,6.85c-0.26,3.52-0.39,5.81-0.39,6.85c0,7.14-0.51,13.13-1.53,17.97c-1.43,6.77-7.28,11.94-14.2,11.96
					c-0.04,0-0.08,0-0.12,0h-1.56c-0.52,0-1.11,0-1.76,0c-6.13,0-18.33,0-36.59,0c-10.17,0-16.7-0.39-19.56-1.17
					c-5.61-1.57-8.41-6.65-8.41-15.26c0-11.35,0.26-28.04,0.78-50.09l1.17-51.07c0-2.74-0.91-6.91-2.74-12.52
					c-1.7-5.22-2.54-9.32-2.54-12.33c0-0.03,0-0.05,0-0.08c0.02-5.06,3.58-9.44,8.37-11.05c3.45-1.16,7.7-1.88,12.76-2.18
					c4.43-0.26,6.13-0.39,5.09-0.39h19.37c0.78,0,2.41,0.1,4.89,0.29c2.47,0.2,3.98,0.3,4.5,0.3c6.52,0,15.39,0.52,26.61,1.56
					c2.87,1.05,4.56,5.74,5.09,14.09c0,0.78,0.2,2.15,0.59,4.11C640.02,110.67,640.28,114.25,640.28,118.42z"/>
			</g>
			<g>
				<path class="st1" d="M744.56,163.62c0,37.44-9.11,62.29-27.34,74.55c-5.6,3.78-13.47,5.67-23.63,5.67
					c-8.59,0-15.49-1.89-20.7-5.67c-12.76-9.13-20.31-25.56-22.65-49.31c-0.65-6.65-0.98-11.15-0.98-13.5
					c0-22.17,3.77-42.26,11.32-60.26c7.81-18.52,21.02-27.78,39.64-27.78c10.54,0,18.55,2.81,24.02,8.41
					c8.46,8.74,14.19,19.24,17.18,31.5C743.52,135.84,744.56,147.97,744.56,163.62z M708.95,170.86v-14.48
					c0-14.87-4.11-22.3-12.33-22.3c-2.35,0-4.5,1.24-6.46,3.72c-2.61,3.39-3.91,12.59-3.91,27.59c0,7.04,0.45,12.2,1.37,15.46
					c1.69,6.26,5.09,9.39,10.17,9.39c4.82,0,8.02-2.22,9.59-6.65C708.43,180.71,708.95,176.47,708.95,170.86z"/>
			</g>
		</g>
	</g>
	<path class="st0" d="M619.9,363.65H174.7c-18.06,0-32.83-17.39-32.83-38.63v0c0-21.25,14.77-38.63,32.83-38.63H619.9
		c18.06,0,32.83,17.39,32.83,38.63v0C652.74,346.26,637.96,363.65,619.9,363.65z"/>
	<g>
		<path class="st2" d="M178.27,312.12h20.32v4.71h-14.75v7.95h12.78v4.71h-12.78v11.3h-5.57V312.12z"/>
		<path class="st2" d="M201.87,312.12h20.73v4.71h-15.16v7.25h13.97v4.63h-13.97v7.37h15.16v4.71h-20.73V312.12z"/>
		<path class="st2" d="M226.07,336.36v-4.1h5.49v2.42l1.35,1.35h8.48l1.39-1.39v-4.75l-1.35-1.35h-10.85l-4.42-4.42v-7.58l4.42-4.42
			h12.94l4.42,4.42v4.14h-5.49v-2.46l-1.35-1.35h-8.11l-1.35,1.35v4.22l1.35,1.35h10.85l4.42,4.42v8.07l-4.51,4.51H230.5
			L226.07,336.36z"/>
		<path class="st2" d="M258.27,316.83h-8.56v-4.71h22.69v4.71h-8.56v23.96h-5.57V316.83z"/>
		<path class="st2" d="M275.88,312.12h5.57v28.67h-5.57V312.12z"/>
		<path class="st2" d="M284.73,312.12h5.73l7.13,22.04h0.08l7.13-22.04h5.73l-10.2,28.67h-5.41L284.73,312.12z"/>
		<path class="st2" d="M318.15,312.12h5.08l10.49,28.67h-5.65l-2.33-6.35h-10.08l-2.33,6.35h-5.65L318.15,312.12z M324.5,329.85
			l-3.81-10.89h-0.08l-3.69,10.89H324.5z"/>
		<path class="st2" d="M336.58,312.12h5.57v23.96h14.34v4.71h-19.91V312.12z"/>
		<path class="st2" d="M370.7,312.12h18.35l4.92,4.91v18.84l-4.92,4.92H370.7V312.12z M386.3,336.04l2.09-2.09v-14.99l-2.09-2.09
			h-10.04v19.17H386.3z"/>
		<path class="st2" d="M398.88,312.12h20.72v4.71h-15.15v7.25h13.97v4.63h-13.97v7.37h15.15v4.71h-20.72V312.12z"/>
		<path class="st2" d="M434.84,312.12h17.98l4.38,4.42v10.04l-4.42,4.46h-12.37v9.75h-5.57V312.12z M450.28,326.37l1.43-1.43v-6.72
			l-1.43-1.43h-9.87v9.59H450.28z"/>
		<path class="st2" d="M460.89,336.08v-19.25l4.71-4.71h14.75l4.71,4.71v19.25l-4.71,4.71H465.6L460.89,336.08z M477.4,336.04
			l2.09-2.09v-14.99l-2.09-2.09h-8.85l-2.09,2.09v14.99l2.09,2.09H477.4z"/>
		<path class="st2" d="M489.97,312.12h18.35l4.92,4.91v18.84l-4.92,4.92h-18.35V312.12z M505.58,336.04l2.09-2.09v-14.99l-2.09-2.09
			h-10.04v19.17H505.58z"/>
		<path class="st2" d="M517.74,336.08v-19.25l4.71-4.71h14.01l4.63,4.63v4.38h-5.57v-2.33l-1.93-1.93h-8.19l-2.09,2.09v14.99
			l2.09,2.09h8.19l1.93-1.92v-2.33h5.57v4.38l-4.63,4.63h-14.01L517.74,336.08z"/>
		<path class="st2" d="M552.8,312.12h5.08l10.49,28.67h-5.65l-2.33-6.35H550.3l-2.33,6.35h-5.65L552.8,312.12z M559.15,329.85
			l-3.81-10.89h-0.08l-3.69,10.89H559.15z"/>
		<path class="st2" d="M570.01,336.36v-4.1h5.49v2.42l1.35,1.35h8.48l1.39-1.39v-4.75l-1.35-1.35h-10.85l-4.42-4.42v-7.58l4.42-4.42
			h12.94l4.42,4.42v4.14h-5.49v-2.46l-1.35-1.35h-8.11l-1.35,1.35v4.22l1.35,1.35h10.85l4.42,4.42v8.07l-4.51,4.51h-13.27
			L570.01,336.36z"/>
		<path class="st2" d="M602.2,316.83h-8.56v-4.71h22.69v4.71h-8.56v23.96h-5.57V316.83z"/>
	</g>
</g>
</svg>
