<svg width="650" height="320" fill="none" xmlns="http://www.w3.org/2000/svg">
<g clip-path="url(#clip0_11_38)">
<path d="M550.69 310.51H105.94C87.9 310.51 73.14 293.14 73.14 271.92C73.14 250.69 87.9 233.33 105.94 233.33H550.7C568.74 233.33 583.5 250.7 583.5 271.92C583.49 293.15 568.73 310.51 550.69 310.51Z" fill="#14162D"/>
<path d="M87.78 213.54H53C39.14 213.54 34.27 212.73 31.07 211.86C26.03 210.45 10.01 204.15 10.01 180.6C10.01 170.52 10.24 155.68 10.7 136.51L11.65 95.11C11.69 93.2999 11.48 91.4799 10.99 89.7399C10.8 89.0599 10.55 88.2599 10.25 87.32C8.12 80.75 7.12 75.5099 7.12 70.82C7.12 65.52 8.3 60.49 10.62 55.84C11.77 53.54 13.38 51.5099 15.35 49.8699C21.97 44.3599 31.03 41.3399 43.07 40.6399L43.84 40.61L65.45 40.2599C66.48 40.2599 67.84 40.31 71.16 40.57C72.48 40.68 73.38 40.74 73.92 40.77C80.18 40.78 88.25 41.26 98.55 42.22L100.95 42.4399L103.21 43.27C118.4 48.81 119.48 66.17 119.84 71.87L119.85 72.0199C119.89 72.2899 119.96 72.61 120.03 72.98L120.11 73.44C120.75 77.15 121.07 81.2599 121.07 85.9899C121.07 96.1799 118.1 103.73 113.58 108.87C110.69 112.16 108.76 116.17 108.52 120.54C108.49 121.06 108.46 121.59 108.42 122.15C108.15 126.47 108.11 128.47 108.11 129.28V129.51C110.48 131.12 112.87 133.42 115.04 136.67C117.54 140.44 119.21 144.4 120.03 148.48C120.61 151.36 120.9 154.2 120.9 156.9C120.9 157.93 120.85 159.61 120.51 164.25C120.34 166.55 120.23 168.1 120.22 168.9C120.22 184.14 117.89 194.95 112.9 202.83V202.84C111.03 205.79 108.37 208.15 105.23 209.66H105.22C99.84 212.24 93.98 213.54 87.78 213.54Z" fill="#14162D"/>
<path d="M47.26 176.24C48.83 176.28 50.72 176.3 53 176.3H82.67C82.84 174.47 82.96 172.19 82.97 169.39C77.19 171.35 72.32 172.29 68.01 172.29C60.54 172.29 54.39 170.16 49.73 165.95C48.89 165.17 48.12 164.35 47.4 163.48C47.33 168.25 47.28 172.51 47.26 176.24Z" fill="#14162D"/>
<path d="M159.56 40.42C174.03 40.42 178.41 41.35 181.66 42.08C183.94 42.59 186.1 43.52 188.04 44.82C198 51.55 203.06 63.34 203.06 79.85C203.06 86.41 202.45 92.47 201.25 97.87C199.55 105.45 196.03 110.68 191.78 114.08C192.03 114.38 192.25 114.66 192.46 114.92C201.72 126.54 206.48 139.22 206.48 152.48C206.48 160.96 204.93 169.36 201.87 177.47C198.24 187.2 192.85 195.07 185.86 200.8C178.27 207.06 164.84 214.12 142.95 214.12C140.48 214.12 137.91 214.03 135.23 213.84C134.92 213.82 134.17 213.77 132.53 213.52C132.13 213.46 131.73 213.41 131.32 213.38C128.75 213.18 125.26 212.94 120.86 212.66C109.72 211.83 100.66 205.93 95.7799 196.47C94.6699 194.31 93.9899 191.96 93.7799 189.54C93.4599 185.83 93.0299 181.76 92.4899 177.47C91.7099 171.65 91.3199 166.71 91.3199 162.55C91.3199 154.16 93.0099 146.1 96.3299 138.62V138.61C97.4499 136.08 99.13 133.84 101.23 132.04C102.18 131.23 103.18 130.48 104.21 129.82C97.1299 119.8 93.5299 108.74 93.5299 96.92C93.5299 84.66 96.6699 74.11 102.86 65.55C111.93 53.18 124.66 45.2 140.79 41.73C145.72 40.68 148.49 40.5 150.9 40.5L159.56 40.42Z" fill="#14162D"/>
<path d="M138.21 176.71C153.93 177.75 160.54 173.41 162.19 172.04C164.07 170.5 165.67 167.93 166.99 164.38C168.5 160.37 169.23 156.5 169.23 152.47C169.23 147.79 167.27 143.06 163.23 137.99C163.18 137.93 163.1 137.84 162.98 137.7C165.04 141.5 166.41 145.8 166.41 150.59C166.41 159.99 162.19 167.92 154.83 172.34L153.02 173.43L151.02 174.08C148.03 175.06 145.22 175.17 143.37 175.17C138.78 175.17 134.18 174.09 129.32 171.82C129.35 172.1 129.39 172.38 129.43 172.66C129.57 173.76 129.7 174.84 129.82 175.9C132.18 176.06 134.15 176.21 135.72 176.34L137.2 176.53C137.24 176.56 137.76 176.65 138.21 176.71Z" fill="#14162D"/>
<path d="M226.71 213.88H220.91C217.86 213.88 214.86 213.13 212.17 211.7C202.42 206.52 196.83 196.54 196.83 184.33C196.83 183.75 196.88 182.15 197.03 179.53C197.07 178.7 197.11 178 197.14 177.45L197.04 176.85L197 173.74C197 171.45 197.18 168.2 197.57 163.49C198 158.3 198.27 154.46 198.38 152.09L198.39 151.8C198.66 147.28 198.99 141.76 199.39 135.24C199.6 131.72 197.31 128.61 193.95 127.54C186.83 125.27 177.22 118.44 177.22 98.0899C177.22 97.7699 177.25 96.8699 177.37 95.3899C177.38 95.2 177.39 94.99 177.39 94.8V78.11C177.39 77.94 177.38 77.7399 177.37 77.57C177.26 76.02 177.22 75.0099 177.22 74.5599C177.22 69.5099 177.22 56.99 185.26 48.83C191.78 41.17 203.08 40.2599 235.39 40.2599C269.26 40.2599 276.87 42.2 281.77 44.18L282.09 44.31C288.88 47.21 296.97 54.3999 296.97 72.1699C296.97 74.16 296.84 76.69 296.57 80.12C296.31 83.3 296.29 84.68 296.29 85.12V90.9199C296.29 91.4299 296.33 92 296.38 92.62L296.46 94.32V96.7099C296.46 117.88 285.47 124.79 277.87 127.04C274.62 128 272.39 130.97 272.42 134.36C272.53 147.13 272.59 156.72 272.59 163.13C272.59 163.2 272.6 164.83 273.42 169.6C274.36 175.07 274.8 179.08 274.8 182.26C274.8 198.03 265.18 209.76 249.67 212.94C247.16 213.52 243.67 213.88 226.71 213.88Z" fill="#14162D"/>
<path d="M234.25 173.8C234.36 174.68 234.42 175.54 234.42 176.48C234.42 176.52 234.42 176.57 234.42 176.61C235.32 176.6 236.13 176.59 236.85 176.58C236.82 176.38 236.78 176.18 236.75 175.98C235.81 170.55 235.37 166.47 235.37 163.16C235.37 161.6 235.37 159.85 235.36 157.91C235.2 160.28 234.98 163.16 234.7 166.58C234.29 171.56 234.25 173.32 234.25 173.75V173.8Z" fill="#14162D"/>
<path d="M348.43 213.54H313.65C299.79 213.54 294.92 212.73 291.72 211.86C286.69 210.46 270.66 204.15 270.66 180.6C270.66 170.52 270.89 155.68 271.35 136.51L272.3 95C272.34 93.26 272.14 91.52 271.66 89.84C271.46 89.14 271.21 88.3 270.88 87.31C268.74 80.74 267.75 75.49 267.75 70.81C267.75 65.51 268.93 60.48 271.25 55.83L271.32 55.69C272.42 53.49 273.97 51.53 275.86 49.96L275.98 49.86C282.6 44.35 291.66 41.33 303.7 40.63L307.25 40.56L311.36 29.53C312.37 26.79 313.36 24.44 314.37 22.42C317.97 15.24 324.87 10.59 332.82 9.96997L334.26 9.90997C335.41 9.90997 336.65 9.99997 339.12 10.26C340.2 10.28 341.22 10.33 342.19 10.42H345.36L346.24 10.57C346.76 10.53 347.46 10.46 348.34 10.36C350.32 10.15 351.68 10.02 352.75 9.95997C356.74 9.54997 362.53 10.1 368.59 14.53L368.82 14.7C372.45 17.35 374.94 21.27 375.81 25.67L376.56 27.92V30.94C376.56 33.79 375.96 36.36 375.04 38.63C373.07 43.52 373.38 49.14 375.94 53.75C379.73 60.57 380.22 68.39 380.44 71.87L380.45 72.01C380.49 72.28 380.56 72.59 380.63 72.96L380.72 73.43C381.36 77.14 381.68 81.25 381.68 85.98C381.68 96.3 378.64 103.91 374.02 109.05C371.2 112.18 369.38 116.08 369.14 120.29C369.11 120.88 369.07 121.5 369.03 122.15C368.76 126.44 368.72 128.46 368.72 129.28V129.51C371.09 131.12 373.47 133.42 375.64 136.66C378.15 140.44 379.82 144.39 380.63 148.46C381.21 151.37 381.5 154.21 381.5 156.89C381.5 157.91 381.45 159.58 381.11 164.24C380.94 166.54 380.83 168.09 380.82 168.89C380.82 184.13 378.49 194.93 373.5 202.82L373.38 203C371.59 205.83 369.03 208.1 366.01 209.56L365.81 209.65C360.49 212.24 354.62 213.54 348.43 213.54Z" fill="#14162D"/>
<path d="M307.91 176.24C309.48 176.28 311.37 176.3 313.66 176.3H343.32C343.49 174.47 343.61 172.19 343.62 169.39C337.84 171.35 332.97 172.29 328.66 172.29C321.19 172.29 315.04 170.16 310.39 165.96L310.17 165.76C309.41 165.06 308.71 164.31 308.05 163.52C307.97 168.28 307.93 172.52 307.91 176.24Z" fill="#14162D"/>
<path d="M434.69 213.88C428.68 213.88 423.3 212.58 418.7 210.02C416.93 209.05 415.04 207.85 413.13 206.34C408.44 209.36 401.63 211.5 391.73 211.5C391.29 211.52 389.98 211.62 388.04 211.78C383.74 212.14 382.19 212.18 381.16 212.18C366.98 212.18 358.62 203.86 355.94 194.72C354.87 191.7 354.87 188.34 354.87 177.03C354.87 167.59 355.13 153.25 355.64 134.41C356.13 116.46 356.38 102.77 356.4 93.7C356.28 93.2 356.01 92.18 355.42 90.42C353.42 84.5 352.48 79.79 352.48 75.6C352.48 68.21 355.45 61.17 360.83 55.79C365.95 50.67 372.6 46.94 380.58 44.71C382.14 44.28 384.39 43.77 395.7 41.91L397.7 41.55C398.97 41.34 400.19 41.13 401.35 40.92L402.53 40.71L403.73 40.65C410.46 40.31 411.72 40.28 412.51 40.28C415.28 40.28 418.87 40.65 424.54 41.52C439.2 43.83 451.06 49.29 459.86 57.76C470.07 67.63 475.46 80.92 475.46 96.24C475.46 108.53 472.32 119.84 466.12 129.89C469.5 133.11 472.57 137.97 474.4 145.29C475.67 150.41 476.32 155.54 476.32 160.57C476.32 172.61 474.09 183.1 469.7 191.75C462.36 206.03 449.94 213.88 434.69 213.88Z" fill="#14162D"/>
<path d="M434.59 173.79C434.91 175.04 435.26 175.84 435.58 176.36C435.77 176.1 436.12 175.59 436.53 174.8C438.17 171.57 439.06 166.69 439.08 160.74C436.25 159.97 433.52 158.76 430.96 157.12C432.56 164.33 433.77 169.88 434.59 173.79Z" fill="#14162D"/>
<path d="M525.37 213.54H490.6C476.74 213.54 471.87 212.73 468.67 211.86C463.64 210.46 447.61 204.15 447.61 180.6C447.61 170.57 447.84 155.74 448.3 136.51L449.25 95.12C449.29 93.18 449.04 91.27 448.49 89.41C448.31 88.8 448.1 88.11 447.84 87.32C445.7 80.74 444.71 75.5 444.71 70.82C444.71 65.52 445.89 60.49 448.21 55.84C449.36 53.54 450.97 51.51 452.94 49.87C459.52 44.39 468.53 41.37 480.46 40.66C483.38 40.43 495.65 39.56 504.1 40.29C505.06 40.32 506.42 40.4 508.74 40.58C510.06 40.69 510.97 40.75 511.5 40.78C517.76 40.79 525.83 41.27 536.13 42.23C536.13 42.23 537.92 42.45 538.51 42.58C539.1 42.71 540.79 43.28 540.79 43.28C555.97 48.82 557.06 66.18 557.42 71.88L557.43 72.03C557.47 72.3 557.54 72.62 557.61 72.99L557.69 73.45C558.33 77.16 558.65 81.27 558.65 86C558.65 96.18 555.69 103.73 551.17 108.87C548.27 112.17 546.34 116.19 546.09 120.58C546.06 121.09 546.03 121.62 546 122.17C545.73 126.49 545.69 128.49 545.69 129.3V129.53C548.06 131.14 550.45 133.44 552.62 136.69C555.13 140.46 556.8 144.42 557.61 148.5C558.19 151.4 558.48 154.23 558.48 156.92C558.48 157.99 558.43 159.61 558.09 164.26C557.92 166.57 557.81 168.12 557.8 168.92C557.8 184.16 555.47 194.96 550.48 202.85C548.61 205.8 545.95 208.17 542.8 209.68C537.43 212.24 531.57 213.54 525.37 213.54Z" fill="#14162D"/>
<path d="M484.85 176.24C486.42 176.28 488.31 176.3 490.59 176.3H520.25C520.42 174.47 520.54 172.19 520.55 169.39C514.77 171.35 509.9 172.29 505.59 172.29C498.12 172.29 491.97 170.16 487.32 165.96L487.1 165.76C486.34 165.06 485.64 164.31 484.98 163.52C484.92 168.28 484.87 172.53 484.85 176.24Z" fill="#14162D"/>
<path d="M586.49 213.88C575.02 213.88 565.27 211.02 557.51 205.38C542 194.29 532.78 175.35 530.2 149.19C529.37 140.68 529.26 137.46 529.26 135.6C529.26 113.88 533.07 93.79 540.58 75.89C550.27 52.91 568.63 40.27 592.29 40.27C606.64 40.27 618.17 44.63 626.55 53.22C636.27 63.26 642.88 75.36 646.28 89.25C648.47 98.32 649.54 110.13 649.54 125.37C649.54 164.41 638.76 191.46 617.49 205.77C609.52 211.14 599.09 213.88 586.49 213.88Z" fill="#14162D"/>
<path d="M569.18 157.17C570.97 164.43 574.04 171.42 579.29 175.18C579.85 175.59 581.68 176.65 586.49 176.65C593.7 176.65 596.21 175.2 596.65 174.9C600.99 171.98 604.18 167.45 606.5 162.04C601.96 165.34 596.34 167.18 590.16 167.18C583.1 167.17 574.95 164.36 569.18 157.17Z" fill="#14162D"/>
<path d="M102.43 86.98C102.43 95.5 99.7199 99.77 94.3099 99.77C92.2799 99.77 88.9799 98.58 84.4199 96.19C79.8499 93.8 76.1599 92.61 73.3399 92.61C68.9399 92.61 66.4799 92.43 65.8999 92.44C61.6099 92.53 59.6399 96.19 59.6399 100.62C59.6399 102.67 59.0699 105.65 60.8199 108.29C61.4399 109.23 62.6199 109.31 63.5199 109.31C65.1999 109.31 68.3499 108.31 72.9599 106.32C77.5699 104.33 80.8799 103.34 82.9099 103.34C85.9399 103.34 88.0199 104.36 89.1499 106.41C89.8199 107.66 90.1599 110.1 90.1599 113.74C90.1599 115.56 90.0499 118.32 89.8199 122.01C89.5899 125.7 89.4799 128.46 89.4799 130.28V132.84C89.2499 134.55 88.5699 136.37 87.4299 138.3C86.0699 140.57 84.5899 141.71 82.9999 141.71C79.5899 141.71 75.4399 140.46 70.5599 137.96C67.7799 136.52 65.4699 135.31 63.6199 134.34C63.2399 134.14 62.8099 134.01 62.4099 134.14C60.5699 134.75 59.6499 138.13 59.6499 144.27C59.6499 148.59 60.4999 151.54 62.2099 153.13C63.3399 154.15 65.2799 154.67 68.0099 154.67C71.5299 154.67 76.8099 153.13 83.8599 150.07C90.9099 147 95.0499 145.47 96.2999 145.47C97.3199 145.47 98.3999 146.32 99.5399 148.03C100.67 149.74 101.42 151.44 101.76 153.14C102.1 154.85 102.27 156.44 102.27 157.91C102.27 158.82 102.16 160.81 101.93 163.88C101.7 166.95 101.59 168.94 101.59 169.85C101.59 176.6 101.07 182.16 100.03 186.55C98.7099 192.11 93.5999 195.92 87.8899 195.93H87.7899H86.3999C85.9499 195.93 85.4299 195.93 84.8599 195.93C79.5199 195.93 68.8899 195.93 52.9799 195.93C44.1199 195.93 38.4299 195.59 35.9299 194.91C31.0399 193.55 28.5999 189.11 28.5999 181.61C28.5999 171.72 28.8299 157.18 29.2799 137.97L30.2999 93.48C30.2999 91.09 29.4999 87.46 27.9099 82.57C26.4299 78.03 25.6899 74.45 25.6899 71.83V71.76C25.6999 67.68 28.1499 63.97 31.9599 62.51C35.1399 61.29 39.1799 60.53 44.0999 60.24C47.9599 60.01 49.4399 59.9 48.5299 59.9H65.4099C66.0899 59.9 67.5099 59.99 69.6699 60.16C71.8299 60.33 73.1299 60.42 73.5899 60.42C78.9099 60.42 86.0199 60.82 94.9299 61.61C96.9499 61.79 98.7399 63.06 99.5199 64.93C100.39 67.01 100.95 70.05 101.2 74.05C101.2 74.73 101.37 75.93 101.71 77.63C102.2 80.23 102.43 83.35 102.43 86.98Z" fill="#F85532"/>
<path d="M134.13 195.92C131.4 195.69 127.37 195.41 122.03 195.07C121.94 195.06 121.86 195.06 121.77 195.05C116.49 194.57 112.46 190.14 111.93 184.86C111.65 182.08 111.32 179.18 110.95 176.15C110.27 171.04 109.93 166.83 109.93 163.54C109.93 158.71 110.72 154.12 112.3 149.76C113.32 146.95 116.08 145.14 119.07 145.13H119.14C120.62 145.13 124.14 147.21 129.71 151.35C135.28 155.5 139.82 157.57 143.35 157.57C144.26 157.57 144.88 157.51 145.23 157.4C146.93 156.38 147.79 154.44 147.79 151.6C147.79 148.19 144.72 143.87 138.59 138.64C129.38 130.8 123.64 125.46 121.37 122.62C115.23 115.01 112.16 106.77 112.16 97.9C112.16 89.61 114.09 82.79 117.96 77.44C123.87 69.38 132.16 64.02 142.84 61.34C144.08 61.03 145.36 60.86 146.64 60.77L153.55 60.29C154.2 60.25 154.86 60.25 155.52 60.26C156.98 60.3 157.98 60.22 158.36 60.22C164.93 60.22 169.99 60.37 173.53 60.68C177.09 60.99 180.27 63.07 181.84 66.28C183.57 69.81 184.44 74.67 184.44 80.84C184.44 86.07 183.99 90.73 183.08 94.82C182.06 99.37 179.95 101.64 176.77 101.64C174.15 101.64 170.35 99.99 165.35 96.69C160.35 93.4 156.71 91.75 154.44 91.75C152.73 91.75 150.76 91.78 149.5 93.11C148.8 93.85 148.82 95.04 148.82 96.18C148.82 99.25 152.17 103.74 158.88 109.65C169.45 118.86 175.76 124.76 177.8 127.38C184.51 135.79 187.86 144.49 187.86 153.46C187.86 159.71 186.72 165.85 184.45 171.87C181.95 178.58 178.48 183.75 174.05 187.38C167.11 193.11 156.7 195.97 139.63 196.14C138.52 196.15 137.4 196.11 136.3 196.04L134.13 195.92Z" fill="#F85532"/>
<path d="M278.35 73.18C278.35 74.66 278.24 76.82 278.01 79.66C277.78 82.5 277.67 84.66 277.67 86.14V91.94C277.67 92.96 277.73 94.1 277.84 95.35C277.84 96.71 277.84 97.51 277.84 97.74C277.84 106.26 275.57 110.52 271.02 110.52C269.43 110.52 267.04 109.16 263.86 106.43C260.68 103.7 258.23 102.28 256.53 102.17C254.6 102.85 253.63 104.45 253.63 106.95C253.63 113.33 253.69 122.86 253.8 135.56C253.91 148.25 253.97 157.79 253.97 164.16C253.97 166.32 254.34 169.54 255.08 173.81C255.82 178.08 256.19 181.24 256.19 183.29C256.19 190.24 252.72 194.39 245.79 195.76C244.31 196.1 237.95 196.27 226.7 196.27H222.85C221.36 196.27 219.88 195.79 218.79 194.77C216.56 192.67 215.44 189.53 215.44 185.34C215.44 184.89 215.5 183.63 215.61 181.58C215.72 179.53 215.78 178.17 215.78 177.48C215.78 177.25 215.72 176.8 215.61 176.11V174.74C215.61 173.04 215.78 170.13 216.12 166.03C216.57 160.56 216.86 156.52 216.97 153.9C217.49 145.14 218.25 132.61 219.25 116.3C219.38 114.13 219.24 111.96 219.1 109.8C219.04 108.92 219.07 107.79 219.19 106.43C219.3 104.16 218.73 102.56 217.48 101.65C215.32 101.65 212.51 103.21 209.04 106.34C205.57 109.47 202.82 111.03 200.77 111.03C197.47 111.03 195.83 107.05 195.83 99.1C195.83 98.87 195.89 98.14 196 96.88C196 95.63 196 94.49 196 93.47V81.7C196 80.68 196 79.48 196 78.12C195.89 76.76 195.83 75.9 195.83 75.56C195.83 68.29 196.91 63.91 199.07 62.44C200.09 60.73 212.19 59.88 235.38 59.88C257.43 59.88 270.55 60.73 274.76 62.44C277.16 63.46 278.35 67.04 278.35 73.18Z" fill="#F85532"/>
<path d="M363.07 86.98C363.07 95.5 360.36 99.77 354.95 99.77C352.92 99.77 349.62 98.58 345.06 96.19C340.49 93.8 336.8 92.61 333.98 92.61C329.58 92.61 327.1 92.55 326.54 92.44C322.37 93.46 320.28 96.19 320.28 100.62C320.28 102.67 319.71 105.65 321.46 108.29C322.08 109.23 323.26 109.31 324.16 109.31C325.84 109.31 328.99 108.31 333.6 106.32C338.21 104.33 341.52 103.34 343.55 103.34C346.58 103.34 348.66 104.36 349.79 106.41C350.46 107.66 350.8 110.1 350.8 113.74C350.8 115.56 350.69 118.32 350.46 122.01C350.23 125.7 350.12 128.46 350.12 130.28V132.84C349.89 134.55 349.21 136.37 348.07 138.3C346.71 140.57 345.23 141.71 343.64 141.71C340.23 141.71 336.08 140.46 331.2 137.96C328.13 136.37 325.63 135.06 323.7 134.04C321.43 134.04 320.29 137.45 320.29 144.27C320.29 148.59 321.14 151.54 322.85 153.13C323.98 154.15 325.92 154.67 328.65 154.67C332.17 154.67 337.45 153.13 344.5 150.07C351.55 147 355.69 145.47 356.94 145.47C357.96 145.47 359.04 146.32 360.18 148.03C361.31 149.74 362.06 151.44 362.4 153.14C362.74 154.85 362.91 156.44 362.91 157.91C362.91 158.82 362.8 160.81 362.57 163.88C362.34 166.95 362.23 168.94 362.23 169.85C362.23 176.6 361.71 182.16 360.67 186.55C359.35 192.11 354.24 195.92 348.53 195.93H348.43H347.07C346.62 195.93 346.1 195.93 345.53 195.93C340.19 195.93 329.56 195.93 313.65 195.93C304.79 195.93 299.1 195.59 296.6 194.91C291.71 193.55 289.27 189.11 289.27 181.61C289.27 171.72 289.5 157.18 289.95 137.97L290.97 93.48C290.97 91.09 290.17 87.46 288.58 82.57C287.1 78.03 286.36 74.45 286.36 71.83C286.36 71.81 286.36 71.78 286.36 71.76C286.38 67.35 289.48 63.54 293.65 62.14C296.66 61.13 300.36 60.5 304.77 60.24C308.63 60.01 310.11 59.9 309.2 59.9H326.08C326.76 59.9 328.18 59.99 330.34 60.16C332.5 60.33 333.8 60.42 334.26 60.42C339.94 60.42 347.67 60.87 357.44 61.78C359.94 62.69 361.42 66.78 361.87 74.05C361.87 74.73 362.04 75.93 362.38 77.63C362.84 80.23 363.07 83.35 363.07 86.98ZM357.96 31.94C357.96 32.97 356.71 34.69 354.21 37.1C353.07 38.13 351.14 40.02 348.41 42.78C347.16 44.16 344.94 46.34 341.76 49.31C342.1 49.31 340.22 49.31 336.13 49.31H330C326.7 49.31 325.06 48.57 325.06 47.09L328.81 37.03C329.6 34.87 330.35 33.11 331.03 31.75C331.71 30.39 332.79 29.65 334.27 29.53C334.72 29.53 335.97 29.64 338.02 29.87C339.27 29.87 340.35 29.93 341.26 30.04H343.82C344.5 30.15 345.3 30.21 346.21 30.21C346.89 30.21 348.28 30.1 350.39 29.87C352.49 29.64 353.83 29.53 354.4 29.53C355.31 29.3 356.39 29.65 357.64 30.56C357.73 31.14 357.84 31.6 357.96 31.94Z" fill="#F85532"/>
<path d="M457.68 161.54C457.68 170.66 456.15 178.25 453.08 184.29C448.99 192.27 442.85 196.26 434.67 196.26C431.83 196.26 429.5 195.75 427.68 194.72C422 191.64 418.25 186.39 416.43 178.97C415.52 174.63 414.1 168.13 412.17 159.46C412.06 159.35 411.43 158.27 410.29 156.21C409.49 154.84 408.58 154.16 407.56 154.16C405.97 154.16 404.94 155.7 404.49 158.76C404.26 160.12 404.15 162.06 404.15 164.56C404.15 166.61 404.32 169.65 404.66 173.68C405 177.71 405.17 180.75 405.17 182.8C405.17 185.64 405 187.86 404.66 189.45C403.98 192.41 399.66 193.88 391.71 193.88C391.03 193.88 389.29 193.99 386.51 194.22C383.72 194.45 381.93 194.56 381.14 194.56C376.59 194.56 374.09 192.97 373.64 189.79C373.53 189.56 373.47 185.64 373.47 178.03C373.47 168.71 373.73 154.68 374.24 135.92C374.75 117.17 375.01 103.13 375.01 93.81C375.01 92.11 374.35 89.32 373.05 85.46C371.74 81.6 371.09 78.64 371.09 76.6C371.09 74.1 372.06 71.88 373.99 69.95C376.83 67.11 380.7 65.01 385.58 63.64C386.83 63.3 391.26 62.5 398.88 61.25L400.76 60.91C400.77 60.91 400.79 60.91 400.8 60.9C403.52 60.45 406.29 60.14 409.04 60.02C410.94 59.93 412.1 59.89 412.52 59.89C414.22 59.89 417.29 60.23 421.72 60.91C432.52 62.62 440.92 66.37 446.95 72.16C453.54 78.53 456.84 86.88 456.84 97.22C456.84 106.54 454.39 114.89 449.51 122.28C448.03 124.55 445.13 127.51 440.82 131.14C438.2 133.41 436.9 135.12 436.9 136.26C436.9 138.31 437.92 140.12 439.97 141.71C442.02 143.3 444.17 144.1 446.45 144.1C446.9 144.1 447.61 143.96 448.58 143.67C449.54 143.39 450.26 143.24 450.71 143.24C453.21 143.24 455.08 145.75 456.34 150.76C457.23 154.42 457.68 158.01 457.68 161.54ZM422.74 107.1C422.74 100.51 419.73 97.21 413.71 97.21C412.35 97.21 411.49 97.27 411.15 97.38C408.19 98.29 406.72 101.64 406.72 107.44V112.04C406.72 114.88 409.45 116.3 414.9 116.3C417.29 116.3 419.19 115.42 420.61 113.66C422.03 111.9 422.74 109.72 422.74 107.1Z" fill="#F85532"/>
<path d="M540.02 86.98C540.02 95.5 537.31 99.77 531.9 99.77C529.87 99.77 526.57 98.58 522.01 96.19C517.44 93.8 513.75 92.61 510.93 92.61C506.53 92.61 505.83 92.24 503.49 92.44C499.32 93.46 497.23 96.19 497.23 100.62C497.23 102.67 497.62 105.22 498.41 108.29C499.31 108.97 500.21 109.31 501.11 109.31C502.79 109.31 505.94 108.31 510.55 106.32C515.16 104.33 518.47 103.34 520.5 103.34C523.53 103.34 525.61 104.36 526.74 106.41C527.41 107.66 527.75 110.1 527.75 113.74C527.75 115.56 527.64 118.32 527.41 122.01C527.18 125.7 527.07 128.46 527.07 130.28C527.07 133.04 526.47 135.8 525.09 138.19C525.07 138.23 525.05 138.26 525.03 138.3C523.67 140.57 522.19 141.71 520.6 141.71C517.19 141.71 513.04 140.46 508.16 137.96C505.09 136.37 502.59 135.06 500.66 134.04C498.39 134.04 497.25 137.45 497.25 144.27C497.25 148.59 498.1 151.54 499.81 153.13C500.94 154.15 502.88 154.67 505.61 154.67C509.13 154.67 514.41 153.13 521.46 150.07C528.51 147 532.65 145.47 533.9 145.47C534.92 145.47 536 146.32 537.14 148.03C538.27 149.74 539.02 151.44 539.36 153.14C539.7 154.85 539.87 156.44 539.87 157.91C539.87 158.82 539.76 160.81 539.53 163.88C539.3 166.95 539.19 168.94 539.19 169.85C539.19 176.07 538.75 181.29 537.86 185.51C536.62 191.41 531.51 195.91 525.48 195.93C525.45 195.93 525.41 195.93 525.38 195.93H524.02C523.57 195.93 523.05 195.93 522.48 195.93C517.14 195.93 506.51 195.93 490.6 195.93C481.74 195.93 476.05 195.59 473.55 194.91C468.66 193.55 466.22 189.11 466.22 181.61C466.22 171.72 466.45 157.18 466.9 137.97L467.92 93.48C467.92 91.09 467.12 87.46 465.53 82.57C464.05 78.03 463.31 74.45 463.31 71.83C463.31 71.81 463.31 71.78 463.31 71.76C463.33 67.35 466.43 63.54 470.6 62.14C473.61 61.13 477.31 60.5 481.72 60.24C485.58 60.01 487.06 59.9 486.15 59.9H503.03C503.71 59.9 505.13 59.99 507.29 60.16C509.45 60.33 510.75 60.42 511.21 60.42C516.89 60.42 524.62 60.87 534.39 61.78C536.89 62.69 538.37 66.78 538.82 74.05C538.82 74.73 538.99 75.93 539.33 77.63C539.79 80.23 540.02 83.35 540.02 86.98Z" fill="#F85532"/>
<path d="M630.88 126.36C630.88 158.98 622.94 180.63 607.06 191.31C602.18 194.61 595.32 196.25 586.48 196.25C578.99 196.25 572.98 194.6 568.45 191.31C557.33 183.36 550.76 169.04 548.72 148.35C548.15 142.55 547.87 138.63 547.87 136.59C547.87 117.27 551.16 99.77 557.74 84.08C564.54 67.94 576.06 59.87 592.28 59.87C601.46 59.87 608.44 62.31 613.2 67.2C620.57 74.82 625.56 83.96 628.17 94.64C629.97 102.16 630.88 112.73 630.88 126.36ZM599.85 132.67V120.06C599.85 107.1 596.27 100.63 589.11 100.63C587.06 100.63 585.19 101.71 583.48 103.87C581.21 106.83 580.07 114.84 580.07 127.91C580.07 134.05 580.47 138.54 581.26 141.38C582.74 146.84 585.69 149.56 590.12 149.56C594.32 149.56 597.11 147.63 598.47 143.76C599.4 141.25 599.85 137.56 599.85 132.67Z" fill="#F85532"/>
<path d="M110.51 286.09V257.75H129.78V261.49H115.3V270.07H128.15V273.77H115.3V286.09H110.51Z" fill="white"/>
<path d="M133.57 286.09V257.75H153.33V261.49H138.37V270.07H151.7V273.77H138.37V282.39H153.33V286.09H133.57Z" fill="white"/>
<path d="M165.47 286.53C161.8 286.53 158.85 286.06 156.63 285.12V280.9C157.89 281.37 159.25 281.75 160.7 282.04C162.15 282.33 163.6 282.48 165.03 282.48C167.29 282.48 168.98 282.22 170.11 281.69C171.24 281.16 171.8 280.11 171.8 278.52C171.8 277.55 171.56 276.78 171.1 276.19C170.63 275.6 169.85 275.1 168.77 274.67C167.68 274.25 166.19 273.8 164.28 273.33C161.23 272.54 159.09 271.53 157.86 270.32C156.63 269.1 156.01 267.42 156.01 265.28C156.01 262.79 156.92 260.84 158.74 259.43C160.56 258.02 163.27 257.32 166.88 257.32C168.52 257.32 170.07 257.44 171.52 257.67C172.97 257.91 174.11 258.17 174.93 258.46V262.68C172.7 261.83 170.24 261.4 167.54 261.4C165.43 261.4 163.79 261.68 162.61 262.24C161.44 262.8 160.85 263.81 160.85 265.28C160.85 266.13 161.06 266.82 161.47 267.35C161.88 267.88 162.59 268.33 163.6 268.71C164.61 269.09 166.01 269.52 167.8 269.99C170.12 270.58 171.91 271.27 173.19 272.08C174.47 272.89 175.36 273.83 175.87 274.9C176.38 275.97 176.64 277.18 176.64 278.53C176.64 281.02 175.72 282.98 173.87 284.4C172.03 285.82 169.22 286.53 165.47 286.53Z" fill="white"/>
<path d="M186.9 286.09V261.49H177.84V257.75H200.72V261.49H191.7V286.09H186.9Z" fill="white"/>
<path d="M204.54 286.09V257.75H209.34V286.09H204.54Z" fill="white"/>
<path d="M224.21 286.09L213.39 257.75H218.36L226.85 280.94L235.34 257.75H240.31L229.57 286.09H224.21Z" fill="white"/>
<path d="M238.25 286.09L249.07 257.75H254.44L265.18 286.09H260.25L257.43 278.79H246.03L243.21 286.09H238.25ZM246.78 275.09H256.64L251.71 262.11L246.78 275.09Z" fill="white"/>
<path d="M269.88 286.09V257.75H274.68V282.39H289.2V286.09H269.88Z" fill="white"/>
<path d="M303.1 286.09V257.75H314.58C318.77 257.75 321.88 258.86 323.91 261.07C325.94 263.28 326.95 266.96 326.95 272.09C326.95 276.93 325.95 280.47 323.96 282.72C321.96 284.96 318.84 286.09 314.59 286.09H303.1ZM307.9 282.39H313.84C315.69 282.39 317.23 282.12 318.46 281.58C319.69 281.04 320.62 280.02 321.23 278.52C321.85 277.02 322.15 274.88 322.15 272.1C322.15 269.31 321.87 267.16 321.31 265.63C320.75 264.1 319.87 263.03 318.65 262.42C317.43 261.8 315.83 261.5 313.83 261.5H307.89V282.39H307.9Z" fill="white"/>
<path d="M331.66 286.09V257.75H351.42V261.49H336.46V270.07H349.79V273.77H336.46V282.39H351.42V286.09H331.66Z" fill="white"/>
<path d="M365.98 286.09V257.75H378.61C380.78 257.75 382.57 258.16 383.98 258.98C385.39 259.8 386.43 260.92 387.1 262.35C387.77 263.77 388.11 265.39 388.11 267.21C388.11 270.03 387.24 272.29 385.49 273.99C383.74 275.69 381.39 276.54 378.43 276.54H370.77V286.09H365.98ZM370.77 272.76H377.55C379.46 272.76 380.89 272.26 381.86 271.26C382.83 270.26 383.31 268.91 383.31 267.21C383.31 265.39 382.85 263.98 381.92 262.99C381 261.99 379.61 261.49 377.76 261.49H370.76V272.76H370.77Z" fill="white"/>
<path d="M404.48 286.53C399.99 286.53 396.63 285.35 394.4 282.99C392.17 280.63 391.06 276.97 391.06 272.01C391.06 266.85 392.18 263.11 394.4 260.79C396.63 258.47 399.99 257.31 404.48 257.31C409 257.31 412.36 258.47 414.58 260.79C416.79 263.11 417.9 266.85 417.9 272.01C417.9 276.97 416.79 280.63 414.58 282.99C412.36 285.35 408.99 286.53 404.48 286.53ZM404.48 282.48C407.44 282.48 409.62 281.67 411.01 280.04C412.4 278.41 413.1 275.74 413.1 272.01C413.1 268.08 412.4 265.33 411.01 263.76C409.62 262.19 407.44 261.41 404.48 261.41C401.55 261.41 399.38 262.2 397.99 263.76C396.6 265.33 395.9 268.08 395.9 272.01C395.9 275.74 396.6 278.41 397.99 280.04C399.38 281.67 401.54 282.48 404.48 282.48Z" fill="white"/>
<path d="M422.56 286.09V257.75H434.04C438.23 257.75 441.34 258.86 443.37 261.07C445.4 263.28 446.41 266.96 446.41 272.09C446.41 276.93 445.41 280.47 443.42 282.72C441.42 284.96 438.3 286.09 434.05 286.09H422.56ZM427.36 282.39H433.3C435.15 282.39 436.69 282.12 437.92 281.58C439.15 281.04 440.08 280.02 440.69 278.52C441.31 277.02 441.61 274.88 441.61 272.1C441.61 269.31 441.33 267.16 440.77 265.63C440.21 264.1 439.32 263.03 438.11 262.42C436.89 261.8 435.29 261.5 433.29 261.5H427.35V282.39H427.36Z" fill="white"/>
<path d="M464.4 286.53C459.74 286.53 456.21 285.25 453.82 282.7C451.43 280.15 450.23 276.7 450.23 272.36C450.23 269.25 450.74 266.57 451.75 264.33C452.76 262.09 454.31 260.36 456.39 259.14C458.47 257.92 461.13 257.31 464.35 257.31C465.99 257.31 467.5 257.44 468.86 257.68C470.22 257.93 471.49 258.26 472.67 258.67V262.85C471.5 262.38 470.24 262.02 468.91 261.77C467.58 261.52 466.17 261.4 464.71 261.4C461.19 261.4 458.7 262.34 457.25 264.22C455.8 266.1 455.07 268.81 455.07 272.36C455.07 275.67 455.86 278.19 457.45 279.91C459.03 281.63 461.48 282.48 464.8 282.48C466.15 282.48 467.51 282.37 468.87 282.15C470.23 281.93 471.52 281.59 472.72 281.12V285.34C471.55 285.72 470.28 286.01 468.91 286.22C467.55 286.42 466.04 286.53 464.4 286.53Z" fill="white"/>
<path d="M474.79 286.09L485.61 257.75H490.98L501.72 286.09H496.79L493.97 278.79H482.57L479.75 286.09H474.79ZM483.32 275.09H493.18L488.25 262.11L483.32 275.09Z" fill="white"/>
<path d="M512.58 286.53C508.91 286.53 505.97 286.06 503.74 285.12V280.9C505 281.37 506.36 281.75 507.81 282.04C509.26 282.33 510.71 282.48 512.14 282.48C514.4 282.48 516.09 282.22 517.22 281.69C518.35 281.16 518.91 280.11 518.91 278.52C518.91 277.55 518.67 276.78 518.21 276.19C517.74 275.6 516.96 275.1 515.88 274.67C514.79 274.25 513.3 273.8 511.39 273.33C508.34 272.54 506.2 271.53 504.97 270.32C503.74 269.1 503.12 267.42 503.12 265.28C503.12 262.79 504.03 260.84 505.85 259.43C507.67 258.02 510.38 257.32 513.99 257.32C515.63 257.32 517.18 257.44 518.63 257.67C520.08 257.91 521.22 258.17 522.04 258.46V262.68C519.81 261.83 517.35 261.4 514.65 261.4C512.54 261.4 510.9 261.68 509.72 262.24C508.55 262.8 507.96 263.81 507.96 265.28C507.96 266.13 508.16 266.82 508.58 267.35C509 267.88 509.7 268.33 510.71 268.71C511.72 269.09 513.12 269.52 514.91 269.99C517.23 270.58 519.02 271.27 520.3 272.08C521.58 272.89 522.47 273.83 522.98 274.9C523.49 275.97 523.75 277.18 523.75 278.53C523.75 281.02 522.83 282.98 520.98 284.4C519.14 285.82 516.34 286.53 512.58 286.53Z" fill="white"/>
<path d="M534.01 286.09V261.49H524.95V257.75H547.83V261.49H538.81V286.09H534.01Z" fill="white"/>
</g>
<defs>
<clipPath id="clip0_11_38">
<rect width="649.51" height="319.06" fill="white"/>
</clipPath>
</defs>
</svg>
