<svg width="643" height="205" viewBox="0 0 643 205" fill="none" xmlns="http://www.w3.org/2000/svg">
<path d="M80.66 203.691H45.88C32.02 203.691 27.15 202.882 23.95 202.012C18.91 200.602 2.89 194.302 2.89 170.752C2.89 160.672 3.12 145.831 3.58 126.661L4.53 85.2615C4.57 83.4515 4.36 81.6315 3.87 79.8915C3.68 79.2115 3.43 78.4115 3.13 77.4715C1 70.9015 0 65.6615 0 60.9715C0 55.6715 1.18 50.6415 3.5 45.9915C4.65 43.6915 6.26 41.6615 8.23 40.0215C14.85 34.5115 23.91 31.4915 35.95 30.7915L36.72 30.7615L58.33 30.4115C59.36 30.4115 60.72 30.4615 64.04 30.7215C65.36 30.8315 66.26 30.8915 66.8 30.9215C73.06 30.9315 81.13 31.4115 91.43 32.3715L93.83 32.5915L96.09 33.4215C111.28 38.9615 112.36 56.3215 112.72 62.0215L112.73 62.1715C112.77 62.4415 112.84 62.7615 112.91 63.1315L112.99 63.5915C113.63 67.3015 113.95 71.4115 113.95 76.1415C113.95 86.3315 110.98 93.8815 106.46 99.0215C103.57 102.312 101.64 106.321 101.4 110.691C101.37 111.211 101.34 111.742 101.3 112.301C101.03 116.621 100.99 118.622 100.99 119.432V119.661C103.36 121.271 105.75 123.572 107.92 126.822C110.42 130.591 112.09 134.551 112.91 138.632C113.49 141.511 113.78 144.352 113.78 147.051C113.78 148.081 113.73 149.762 113.39 154.402C113.22 156.702 113.11 158.251 113.1 159.051C113.1 174.292 110.77 185.102 105.78 192.982V192.992C103.91 195.941 101.25 198.302 98.11 199.812H98.1C92.72 202.392 86.86 203.691 80.66 203.691Z" fill="#14162D"/>
<path d="M40.1399 166.392C41.7099 166.432 43.5999 166.452 45.8799 166.452H75.5499C75.7199 164.622 75.8399 162.342 75.8499 159.542C70.0699 161.502 65.1999 162.442 60.8899 162.442C53.4199 162.442 47.2699 160.312 42.6099 156.102C41.7699 155.322 40.9999 154.502 40.2799 153.632C40.2099 158.402 40.1599 162.662 40.1399 166.392Z" fill="#14162D"/>
<path d="M152.44 30.5715C166.91 30.5715 171.29 31.5015 174.54 32.2315C176.82 32.7415 178.98 33.6715 180.92 34.9715C190.88 41.7015 195.94 53.4915 195.94 70.0015C195.94 76.5615 195.33 82.6215 194.13 88.0215C192.43 95.6015 188.91 100.832 184.66 104.232C184.91 104.532 185.13 104.812 185.34 105.072C194.6 116.692 199.36 129.372 199.36 142.632C199.36 151.112 197.81 159.512 194.75 167.622C191.12 177.352 185.73 185.222 178.74 190.952C171.15 197.212 157.72 204.272 135.83 204.272C133.36 204.272 130.79 204.182 128.11 203.992C127.8 203.972 127.05 203.922 125.41 203.672C125.01 203.612 124.61 203.562 124.2 203.532C121.63 203.332 118.14 203.092 113.74 202.812C102.6 201.982 93.54 196.082 88.66 186.622C87.55 184.462 86.87 182.112 86.66 179.692C86.34 175.982 85.9099 171.912 85.3699 167.622C84.5899 161.802 84.2 156.862 84.2 152.702C84.2 144.312 85.89 136.252 89.21 128.772V128.762C90.33 126.232 92.01 123.992 94.11 122.192C95.06 121.382 96.06 120.632 97.09 119.972C90.01 109.952 86.41 98.8915 86.41 87.0715C86.41 74.8115 89.55 64.2615 95.74 55.7015C104.81 43.3315 117.54 35.3515 133.67 31.8815C138.6 30.8315 141.37 30.6515 143.78 30.6515L152.44 30.5715Z" fill="#14162D"/>
<path d="M131.09 166.862C146.81 167.902 153.42 163.561 155.07 162.191C156.95 160.651 158.55 158.082 159.87 154.532C161.38 150.522 162.11 146.652 162.11 142.622C162.11 137.942 160.15 133.212 156.11 128.142C156.06 128.082 155.98 127.992 155.86 127.852C157.92 131.652 159.29 135.952 159.29 140.742C159.29 150.142 155.07 158.072 147.71 162.492L145.9 163.581L143.9 164.232C140.91 165.212 138.1 165.322 136.25 165.322C131.66 165.322 127.06 164.242 122.2 161.972C122.23 162.252 122.27 162.532 122.31 162.812C122.45 163.912 122.58 164.991 122.7 166.051C125.06 166.211 127.03 166.361 128.6 166.492L130.08 166.682C130.12 166.712 130.64 166.802 131.09 166.862Z" fill="#14162D"/>
<path d="M219.59 204.032H213.79C210.74 204.032 207.74 203.281 205.05 201.852C195.3 196.672 189.71 186.692 189.71 174.482C189.71 173.902 189.76 172.301 189.91 169.682C189.95 168.852 189.99 168.152 190.02 167.602L189.92 167.002L189.88 163.892C189.88 161.602 190.06 158.352 190.45 153.642C190.88 148.452 191.15 144.612 191.26 142.242L191.27 141.952C191.54 137.432 191.87 131.912 192.27 125.392C192.48 121.872 190.19 118.761 186.83 117.691C179.71 115.422 170.1 108.591 170.1 88.2415C170.1 87.9215 170.13 87.0215 170.25 85.5415C170.26 85.3515 170.27 85.1415 170.27 84.9515V68.2615C170.27 68.0915 170.26 67.8915 170.25 67.7215C170.14 66.1715 170.1 65.1615 170.1 64.7115C170.1 59.6615 170.1 47.1415 178.14 38.9815C184.66 31.3215 195.96 30.4115 228.27 30.4115C262.14 30.4115 269.75 32.3515 274.65 34.3315L274.97 34.4615C281.76 37.3615 289.85 44.5515 289.85 62.3215C289.85 64.3115 289.72 66.8415 289.45 70.2715C289.19 73.4515 289.17 74.8315 289.17 75.2715V81.0715C289.17 81.5815 289.21 82.1515 289.26 82.7715L289.34 84.4715V86.8615C289.34 108.032 278.35 114.941 270.75 117.191C267.5 118.151 265.27 121.122 265.3 124.512C265.41 137.282 265.47 146.872 265.47 153.282C265.47 153.352 265.48 154.982 266.3 159.752C267.24 165.222 267.68 169.232 267.68 172.411C267.68 188.182 258.06 199.912 242.55 203.092C240.04 203.672 236.55 204.032 219.59 204.032Z" fill="#14162D"/>
<path d="M227.13 163.952C227.24 164.832 227.3 165.692 227.3 166.632C227.3 166.672 227.3 166.722 227.3 166.762C228.2 166.752 229.01 166.742 229.73 166.732C229.7 166.532 229.66 166.332 229.63 166.132C228.69 160.702 228.25 156.622 228.25 153.312C228.25 151.752 228.25 150.002 228.24 148.062C228.08 150.432 227.86 153.312 227.58 156.732C227.17 161.712 227.13 163.472 227.13 163.902V163.952Z" fill="#14162D"/>
<path d="M341.31 203.692H306.53C292.67 203.692 287.8 202.882 284.6 202.012C279.57 200.612 263.54 194.302 263.54 170.752C263.54 160.672 263.77 145.832 264.23 126.662L265.18 85.1515C265.22 83.4115 265.02 81.6715 264.54 79.9915C264.34 79.2915 264.09 78.4515 263.76 77.4615C261.62 70.8915 260.63 65.6415 260.63 60.9615C260.63 55.6615 261.81 50.6315 264.13 45.9815L264.2 45.8415C265.3 43.6415 266.85 41.6815 268.74 40.1115L268.86 40.0115C275.48 34.5015 284.54 31.4815 296.58 30.7815L300.13 30.7115L304.24 19.6815C305.25 16.9415 306.24 14.5915 307.25 12.5715C310.85 5.39152 317.75 0.741523 325.7 0.121523L327.14 0.0615222C328.29 0.0615222 329.53 0.151523 332 0.411523C333.08 0.431523 334.1 0.481522 335.07 0.571522H338.24L339.12 0.721522C339.64 0.681522 340.34 0.611522 341.22 0.511522C343.2 0.301522 344.56 0.171522 345.63 0.111522C349.62 -0.298478 355.41 0.251522 361.47 4.68152L361.7 4.85152C365.33 7.50152 367.82 11.4215 368.69 15.8215L369.44 18.0715V21.0915C369.44 23.9415 368.84 26.5115 367.92 28.7815C365.95 33.6715 366.26 39.2915 368.82 43.9015C372.61 50.7215 373.1 58.5415 373.32 62.0215L373.33 62.1615C373.37 62.4315 373.44 62.7415 373.51 63.1115L373.6 63.5815C374.24 67.2915 374.56 71.4015 374.56 76.1315C374.56 86.4515 371.52 94.0615 366.9 99.2015C364.08 102.332 362.26 106.232 362.02 110.442C361.99 111.032 361.95 111.652 361.91 112.302C361.64 116.592 361.6 118.612 361.6 119.432V119.662C363.97 121.272 366.35 123.572 368.52 126.812C371.03 130.592 372.7 134.542 373.51 138.612C374.09 141.522 374.38 144.362 374.38 147.042C374.38 148.062 374.33 149.732 373.99 154.392C373.82 156.692 373.71 158.242 373.7 159.042C373.7 174.282 371.37 185.082 366.38 192.972L366.26 193.152C364.47 195.982 361.91 198.252 358.89 199.712L358.69 199.802C353.37 202.392 347.5 203.692 341.31 203.692Z" fill="#14162D"/>
<path d="M300.79 166.392C302.36 166.432 304.25 166.452 306.54 166.452H336.2C336.37 164.622 336.49 162.342 336.5 159.542C330.72 161.502 325.85 162.441 321.54 162.441C314.07 162.441 307.92 160.312 303.27 156.112L303.05 155.911C302.29 155.211 301.59 154.462 300.93 153.672C300.85 158.432 300.81 162.672 300.79 166.392Z" fill="#14162D"/>
<path d="M427.57 204.032C421.56 204.032 416.18 202.732 411.58 200.172C409.81 199.202 407.92 198.002 406.01 196.492C401.32 199.512 394.51 201.652 384.61 201.652C384.17 201.672 382.86 201.772 380.92 201.932C376.62 202.292 375.07 202.332 374.04 202.332C359.86 202.332 351.5 194.012 348.82 184.872C347.75 181.852 347.75 178.492 347.75 167.182C347.75 157.742 348.01 143.402 348.52 124.562C349.01 106.612 349.26 92.9215 349.28 83.8515C349.16 83.3515 348.89 82.3315 348.3 80.5715C346.3 74.6515 345.36 69.9415 345.36 65.7515C345.36 58.3615 348.33 51.3215 353.71 45.9415C358.83 40.8215 365.48 37.0915 373.46 34.8615C375.02 34.4315 377.27 33.9215 388.58 32.0615L390.58 31.7015C391.85 31.4915 393.07 31.2815 394.23 31.0715L395.41 30.8615L396.61 30.8015C403.34 30.4615 404.6 30.4315 405.39 30.4315C408.16 30.4315 411.75 30.8015 417.42 31.6715C432.08 33.9815 443.94 39.4415 452.74 47.9115C462.95 57.7815 468.34 71.0715 468.34 86.3915C468.34 98.6815 465.2 109.992 459 120.042C462.38 123.262 465.45 128.122 467.28 135.442C468.55 140.562 469.2 145.692 469.2 150.722C469.2 162.762 466.97 173.252 462.58 181.902C455.24 196.182 442.82 204.032 427.57 204.032Z" fill="#14162D"/>
<path d="M427.47 163.941C427.79 165.191 428.14 165.991 428.46 166.511C428.65 166.251 429 165.741 429.41 164.951C431.05 161.721 431.94 156.841 431.96 150.891C429.13 150.121 426.4 148.911 423.84 147.271C425.44 154.481 426.65 160.031 427.47 163.941Z" fill="#14162D"/>
<path d="M518.25 203.692H483.48C469.62 203.692 464.75 202.882 461.55 202.012C456.52 200.612 440.49 194.302 440.49 170.752C440.49 160.722 440.72 145.892 441.18 126.662L442.13 85.2715C442.17 83.3315 441.92 81.4215 441.37 79.5615C441.19 78.9515 440.98 78.2615 440.72 77.4715C438.58 70.8915 437.59 65.6515 437.59 60.9715C437.59 55.6715 438.77 50.6415 441.09 45.9915C442.24 43.6915 443.85 41.6615 445.82 40.0215C452.4 34.5415 461.41 31.5215 473.34 30.8115C476.26 30.5815 488.53 29.7115 496.98 30.4415C497.94 30.4715 499.3 30.5515 501.62 30.7315C502.94 30.8415 503.85 30.9015 504.38 30.9315C510.64 30.9415 518.71 31.4215 529.01 32.3815C529.01 32.3815 530.8 32.6015 531.39 32.7315C531.98 32.8615 533.67 33.4315 533.67 33.4315C548.85 38.9715 549.94 56.3315 550.3 62.0315L550.31 62.1815C550.35 62.4515 550.42 62.7715 550.49 63.1415L550.57 63.6015C551.21 67.3115 551.53 71.4215 551.53 76.1515C551.53 86.3315 548.57 93.8815 544.05 99.0215C541.15 102.322 539.22 106.342 538.97 110.732C538.94 111.242 538.91 111.772 538.88 112.322C538.61 116.642 538.57 118.642 538.57 119.452V119.682C540.94 121.292 543.33 123.592 545.5 126.842C548.01 130.612 549.68 134.572 550.49 138.652C551.07 141.552 551.36 144.382 551.36 147.072C551.36 148.142 551.31 149.762 550.97 154.412C550.8 156.722 550.69 158.272 550.68 159.072C550.68 174.312 548.35 185.112 543.36 193.002C541.49 195.952 538.83 198.322 535.68 199.832C530.31 202.392 524.45 203.692 518.25 203.692Z" fill="#14162D"/>
<path d="M477.73 166.392C479.3 166.432 481.19 166.452 483.47 166.452H513.13C513.3 164.622 513.42 162.342 513.43 159.542C507.65 161.502 502.78 162.441 498.47 162.441C491 162.441 484.85 160.312 480.2 156.112L479.98 155.911C479.22 155.211 478.52 154.462 477.86 153.672C477.8 158.432 477.75 162.682 477.73 166.392Z" fill="#14162D"/>
<path d="M579.37 204.032C567.9 204.032 558.15 201.172 550.39 195.532C534.88 184.442 525.66 165.502 523.08 139.342C522.25 130.832 522.14 127.612 522.14 125.752C522.14 104.032 525.95 83.9415 533.46 66.0415C543.15 43.0615 561.51 30.4215 585.17 30.4215C599.52 30.4215 611.05 34.7815 619.43 43.3715C629.15 53.4115 635.76 65.5115 639.16 79.4015C641.35 88.4715 642.42 100.282 642.42 115.522C642.42 154.562 631.64 181.612 610.37 195.922C602.4 201.292 591.97 204.032 579.37 204.032Z" fill="#14162D"/>
<path d="M562.06 147.322C563.85 154.582 566.92 161.572 572.17 165.332C572.73 165.742 574.56 166.802 579.37 166.802C586.58 166.802 589.09 165.352 589.53 165.052C593.87 162.132 597.06 157.602 599.38 152.192C594.84 155.492 589.22 157.332 583.04 157.332C575.98 157.322 567.83 154.512 562.06 147.322Z" fill="#14162D"/>
<path d="M95.3101 77.1315C95.3101 85.6515 92.6001 89.9215 87.1901 89.9215C85.1601 89.9215 81.8601 88.7315 77.3001 86.3415C72.7301 83.9515 69.0401 82.7615 66.2201 82.7615C61.8201 82.7615 59.3601 82.5815 58.7801 82.5915C54.4901 82.6815 52.5201 86.3415 52.5201 90.7715C52.5201 92.8215 51.9501 95.8015 53.7001 98.4415C54.3201 99.3815 55.5001 99.4615 56.4001 99.4615C58.0801 99.4615 61.2301 98.4615 65.8401 96.4715C70.4501 94.4815 73.7601 93.4915 75.7901 93.4915C78.8201 93.4915 80.9001 94.5115 82.0301 96.5615C82.7001 97.8115 83.0401 100.252 83.0401 103.892C83.0401 105.712 82.9301 108.472 82.7001 112.162C82.4701 115.852 82.3601 118.612 82.3601 120.432V122.992C82.1301 124.702 81.4501 126.522 80.3101 128.452C78.9501 130.722 77.4701 131.862 75.8801 131.862C72.4701 131.862 68.3201 130.612 63.4401 128.112C60.6601 126.672 58.3501 125.462 56.5001 124.492C56.1201 124.292 55.6901 124.162 55.2901 124.292C53.4501 124.902 52.5301 128.282 52.5301 134.422C52.5301 138.742 53.3801 141.692 55.0901 143.282C56.2201 144.302 58.1601 144.822 60.8901 144.822C64.4101 144.822 69.6901 143.282 76.7401 140.222C83.7901 137.152 87.9301 135.622 89.1801 135.622C90.2001 135.622 91.2801 136.472 92.4201 138.182C93.5501 139.892 94.3001 141.592 94.6401 143.292C94.9801 145.002 95.1501 146.592 95.1501 148.062C95.1501 148.972 95.0401 150.962 94.8101 154.032C94.5801 157.102 94.4701 159.092 94.4701 160.002C94.4701 166.752 93.9501 172.312 92.9101 176.702C91.5901 182.262 86.4801 186.072 80.7701 186.082H80.6701H79.2801C78.8301 186.082 78.3101 186.082 77.7401 186.082C72.4001 186.082 61.7701 186.082 45.8601 186.082C37.0001 186.082 31.3101 185.742 28.8101 185.062C23.9201 183.702 21.4801 179.262 21.4801 171.762C21.4801 161.872 21.7101 147.332 22.1601 128.122L23.1801 83.6315C23.1801 81.2415 22.3801 77.6115 20.7901 72.7215C19.3101 68.1815 18.5701 64.6015 18.5701 61.9815V61.9115C18.5801 57.8315 21.0301 54.1215 24.8401 52.6615C28.0201 51.4415 32.0601 50.6815 36.9801 50.3915C40.8401 50.1615 42.3201 50.0515 41.4101 50.0515H58.2901C58.9701 50.0515 60.3901 50.1415 62.5501 50.3115C64.7101 50.4815 66.0101 50.5715 66.4701 50.5715C71.7901 50.5715 78.9001 50.9715 87.8101 51.7615C89.8301 51.9415 91.6201 53.2115 92.4001 55.0815C93.2701 57.1615 93.8301 60.2015 94.0801 64.2015C94.0801 64.8815 94.2501 66.0815 94.5901 67.7815C95.0801 70.3815 95.3101 73.5015 95.3101 77.1315Z" fill="#F85532"/>
<path d="M127.01 186.072C124.28 185.842 120.25 185.562 114.91 185.222C114.82 185.212 114.74 185.212 114.65 185.202C109.37 184.722 105.34 180.292 104.81 175.012C104.53 172.232 104.2 169.332 103.83 166.302C103.15 161.192 102.81 156.982 102.81 153.692C102.81 148.862 103.6 144.272 105.18 139.912C106.2 137.102 108.96 135.292 111.95 135.282H112.02C113.5 135.282 117.02 137.362 122.59 141.502C128.16 145.652 132.7 147.722 136.23 147.722C137.14 147.722 137.76 147.662 138.11 147.552C139.81 146.532 140.67 144.592 140.67 141.752C140.67 138.342 137.6 134.022 131.47 128.792C122.26 120.952 116.52 115.612 114.25 112.772C108.11 105.162 105.04 96.9215 105.04 88.0515C105.04 79.7615 106.97 72.9415 110.84 67.5915C116.75 59.5315 125.04 54.1715 135.72 51.4915C136.96 51.1815 138.24 51.0115 139.52 50.9215L146.43 50.4415C147.08 50.4015 147.74 50.4015 148.4 50.4115C149.86 50.4515 150.86 50.3715 151.24 50.3715C157.81 50.3715 162.87 50.5215 166.41 50.8315C169.97 51.1415 173.15 53.2215 174.72 56.4315C176.45 59.9615 177.32 64.8215 177.32 70.9915C177.32 76.2215 176.87 80.8815 175.96 84.9715C174.94 89.5215 172.83 91.7915 169.65 91.7915C167.03 91.7915 163.23 90.1415 158.23 86.8415C153.23 83.5515 149.59 81.9015 147.32 81.9015C145.61 81.9015 143.64 81.9315 142.38 83.2615C141.68 84.0015 141.7 85.1915 141.7 86.3315C141.7 89.4015 145.05 93.8915 151.76 99.8015C162.33 109.012 168.64 114.912 170.68 117.532C177.39 125.942 180.74 134.642 180.74 143.612C180.74 149.862 179.6 156.002 177.33 162.022C174.83 168.732 171.36 173.902 166.93 177.532C159.99 183.262 149.58 186.122 132.51 186.292C131.4 186.302 130.28 186.262 129.18 186.192L127.01 186.072Z" fill="#F85532"/>
<path d="M271.23 63.3316C271.23 64.8116 271.12 66.9716 270.89 69.8116C270.66 72.6516 270.55 74.8116 270.55 76.2916V82.0916C270.55 83.1116 270.61 84.2516 270.72 85.5016C270.72 86.8616 270.72 87.6616 270.72 87.8916C270.72 96.4116 268.45 100.672 263.9 100.672C262.31 100.672 259.92 99.3116 256.74 96.5816C253.56 93.8516 251.11 92.4316 249.41 92.3216C247.48 93.0016 246.51 94.6016 246.51 97.1016C246.51 103.482 246.57 113.012 246.68 125.712C246.79 138.402 246.85 147.942 246.85 154.312C246.85 156.472 247.22 159.692 247.96 163.962C248.7 168.232 249.07 171.392 249.07 173.442C249.07 180.392 245.6 184.542 238.67 185.912C237.19 186.252 230.83 186.422 219.58 186.422H215.73C214.24 186.422 212.76 185.942 211.67 184.922C209.44 182.822 208.32 179.682 208.32 175.492C208.32 175.042 208.38 173.782 208.49 171.732C208.6 169.682 208.66 168.322 208.66 167.632C208.66 167.402 208.6 166.952 208.49 166.262V164.892C208.49 163.192 208.66 160.282 209 156.182C209.45 150.712 209.74 146.672 209.85 144.052C210.37 135.292 211.13 122.762 212.13 106.452C212.26 104.282 212.12 102.112 211.98 99.9516C211.92 99.0716 211.95 97.9416 212.07 96.5816C212.18 94.3116 211.61 92.7116 210.36 91.8016C208.2 91.8016 205.39 93.3615 201.92 96.4916C198.45 99.6216 195.7 101.182 193.65 101.182C190.35 101.182 188.71 97.2016 188.71 89.2516C188.71 89.0216 188.77 88.2915 188.88 87.0316C188.88 85.7816 188.88 84.6416 188.88 83.6216V71.8516C188.88 70.8316 188.88 69.6316 188.88 68.2716C188.77 66.9116 188.71 66.0516 188.71 65.7116C188.71 58.4416 189.79 54.0616 191.95 52.5916C192.97 50.8816 205.07 50.0316 228.26 50.0316C250.31 50.0316 263.43 50.8816 267.64 52.5916C270.04 53.6116 271.23 57.1916 271.23 63.3316Z" fill="#F85532"/>
<path d="M355.95 77.1315C355.95 85.6515 353.24 89.9215 347.83 89.9215C345.8 89.9215 342.5 88.7315 337.94 86.3415C333.37 83.9515 329.68 82.7615 326.86 82.7615C322.46 82.7615 319.98 82.7015 319.42 82.5915C315.25 83.6115 313.16 86.3415 313.16 90.7715C313.16 92.8215 312.59 95.8015 314.34 98.4415C314.96 99.3815 316.14 99.4615 317.04 99.4615C318.72 99.4615 321.87 98.4615 326.48 96.4715C331.09 94.4815 334.4 93.4915 336.43 93.4915C339.46 93.4915 341.54 94.5115 342.67 96.5615C343.34 97.8115 343.68 100.252 343.68 103.892C343.68 105.712 343.57 108.472 343.34 112.162C343.11 115.852 343 118.612 343 120.432V122.992C342.77 124.702 342.09 126.522 340.95 128.452C339.59 130.722 338.11 131.862 336.52 131.862C333.11 131.862 328.96 130.612 324.08 128.112C321.01 126.522 318.51 125.212 316.58 124.192C314.31 124.192 313.17 127.602 313.17 134.422C313.17 138.742 314.02 141.692 315.73 143.282C316.86 144.302 318.8 144.822 321.53 144.822C325.05 144.822 330.33 143.282 337.38 140.222C344.43 137.152 348.57 135.622 349.82 135.622C350.84 135.622 351.92 136.472 353.06 138.182C354.19 139.892 354.94 141.592 355.28 143.292C355.62 145.002 355.79 146.592 355.79 148.062C355.79 148.972 355.68 150.962 355.45 154.032C355.22 157.102 355.11 159.092 355.11 160.002C355.11 166.752 354.59 172.312 353.55 176.702C352.23 182.262 347.12 186.072 341.41 186.082H341.31H339.95C339.5 186.082 338.98 186.082 338.41 186.082C333.07 186.082 322.44 186.082 306.53 186.082C297.67 186.082 291.98 185.742 289.48 185.062C284.59 183.702 282.15 179.262 282.15 171.762C282.15 161.872 282.38 147.332 282.83 128.122L283.85 83.6315C283.85 81.2415 283.05 77.6115 281.46 72.7215C279.98 68.1815 279.24 64.6015 279.24 61.9815C279.24 61.9615 279.24 61.9315 279.24 61.9115C279.26 57.5015 282.36 53.6915 286.53 52.2915C289.54 51.2815 293.24 50.6515 297.65 50.3915C301.51 50.1615 302.99 50.0515 302.08 50.0515H318.96C319.64 50.0515 321.06 50.1415 323.22 50.3115C325.38 50.4815 326.68 50.5715 327.14 50.5715C332.82 50.5715 340.55 51.0215 350.32 51.9315C352.82 52.8415 354.3 56.9315 354.75 64.2015C354.75 64.8815 354.92 66.0815 355.26 67.7815C355.72 70.3815 355.95 73.5015 355.95 77.1315ZM350.84 22.0915C350.84 23.1215 349.59 24.8415 347.09 27.2515C345.95 28.2815 344.02 30.1715 341.29 32.9315C340.04 34.3115 337.82 36.4915 334.64 39.4615C334.98 39.4615 333.1 39.4615 329.01 39.4615H322.88C319.58 39.4615 317.94 38.7215 317.94 37.2415L321.69 27.1815C322.48 25.0215 323.23 23.2615 323.91 21.9015C324.59 20.5415 325.67 19.8015 327.15 19.6815C327.6 19.6815 328.85 19.7915 330.9 20.0215C332.15 20.0215 333.23 20.0815 334.14 20.1915H336.7C337.38 20.3015 338.18 20.3615 339.09 20.3615C339.77 20.3615 341.16 20.2515 343.27 20.0215C345.37 19.7915 346.71 19.6815 347.28 19.6815C348.19 19.4515 349.27 19.8015 350.52 20.7115C350.61 21.2915 350.72 21.7515 350.84 22.0915Z" fill="#F85532"/>
<path d="M450.56 151.692C450.56 160.812 449.03 168.402 445.96 174.442C441.87 182.422 435.73 186.412 427.55 186.412C424.71 186.412 422.38 185.902 420.56 184.872C414.88 181.792 411.13 176.542 409.31 169.122C408.4 164.782 406.98 158.282 405.05 149.612C404.94 149.502 404.31 148.422 403.17 146.362C402.37 144.992 401.46 144.312 400.44 144.312C398.85 144.312 397.82 145.852 397.37 148.912C397.14 150.272 397.03 152.212 397.03 154.712C397.03 156.762 397.2 159.802 397.54 163.832C397.88 167.862 398.05 170.902 398.05 172.952C398.05 175.792 397.88 178.012 397.54 179.602C396.86 182.562 392.54 184.032 384.59 184.032C383.91 184.032 382.17 184.142 379.39 184.372C376.6 184.602 374.81 184.712 374.02 184.712C369.47 184.712 366.97 183.122 366.52 179.942C366.41 179.712 366.35 175.792 366.35 168.182C366.35 158.862 366.61 144.832 367.12 126.072C367.63 107.322 367.89 93.2816 367.89 83.9616C367.89 82.2616 367.23 79.4716 365.93 75.6116C364.62 71.7516 363.97 68.7916 363.97 66.7516C363.97 64.2516 364.94 62.0316 366.87 60.1016C369.71 57.2616 373.58 55.1616 378.46 53.7916C379.71 53.4516 384.14 52.6516 391.76 51.4016L393.64 51.0616C393.65 51.0616 393.67 51.0616 393.68 51.0516C396.4 50.6016 399.17 50.2916 401.92 50.1716C403.82 50.0816 404.98 50.0416 405.4 50.0416C407.1 50.0416 410.17 50.3816 414.6 51.0616C425.4 52.7716 433.8 56.5216 439.83 62.3116C446.42 68.6816 449.72 77.0316 449.72 87.3716C449.72 96.6916 447.27 105.042 442.39 112.432C440.91 114.702 438.01 117.662 433.7 121.292C431.08 123.562 429.78 125.272 429.78 126.412C429.78 128.462 430.8 130.272 432.85 131.862C434.9 133.452 437.05 134.252 439.33 134.252C439.78 134.252 440.49 134.112 441.46 133.822C442.42 133.542 443.14 133.392 443.59 133.392C446.09 133.392 447.96 135.902 449.22 140.912C450.11 144.572 450.56 148.162 450.56 151.692ZM415.62 97.2516C415.62 90.6616 412.61 87.3616 406.59 87.3616C405.23 87.3616 404.37 87.4216 404.03 87.5316C401.07 88.4416 399.6 91.7916 399.6 97.5916V102.192C399.6 105.032 402.33 106.452 407.78 106.452C410.17 106.452 412.07 105.572 413.49 103.812C414.91 102.052 415.62 99.8716 415.62 97.2516Z" fill="#F85532"/>
<path d="M532.9 77.1315C532.9 85.6515 530.19 89.9215 524.78 89.9215C522.75 89.9215 519.45 88.7315 514.89 86.3415C510.32 83.9515 506.63 82.7615 503.81 82.7615C499.41 82.7615 498.71 82.3915 496.37 82.5915C492.2 83.6115 490.11 86.3415 490.11 90.7715C490.11 92.8215 490.5 95.3715 491.29 98.4415C492.19 99.1215 493.09 99.4615 493.99 99.4615C495.67 99.4615 498.82 98.4615 503.43 96.4715C508.04 94.4815 511.35 93.4915 513.38 93.4915C516.41 93.4915 518.49 94.5115 519.62 96.5615C520.29 97.8115 520.63 100.252 520.63 103.892C520.63 105.712 520.52 108.472 520.29 112.162C520.06 115.852 519.95 118.612 519.95 120.432C519.95 123.192 519.35 125.952 517.97 128.342C517.95 128.382 517.93 128.412 517.91 128.452C516.55 130.722 515.07 131.862 513.48 131.862C510.07 131.862 505.92 130.612 501.04 128.112C497.97 126.522 495.47 125.212 493.54 124.192C491.27 124.192 490.13 127.602 490.13 134.422C490.13 138.742 490.98 141.692 492.69 143.282C493.82 144.302 495.76 144.822 498.49 144.822C502.01 144.822 507.29 143.282 514.34 140.222C521.39 137.152 525.53 135.622 526.78 135.622C527.8 135.622 528.88 136.472 530.02 138.182C531.15 139.892 531.9 141.592 532.24 143.292C532.58 145.002 532.75 146.592 532.75 148.062C532.75 148.972 532.64 150.962 532.41 154.032C532.18 157.102 532.07 159.092 532.07 160.002C532.07 166.222 531.63 171.442 530.74 175.662C529.5 181.562 524.39 186.062 518.36 186.082C518.33 186.082 518.29 186.082 518.26 186.082H516.9C516.45 186.082 515.93 186.082 515.36 186.082C510.02 186.082 499.39 186.082 483.48 186.082C474.62 186.082 468.93 185.742 466.43 185.062C461.54 183.702 459.1 179.262 459.1 171.762C459.1 161.872 459.33 147.332 459.78 128.122L460.8 83.6315C460.8 81.2415 460 77.6115 458.41 72.7215C456.93 68.1815 456.19 64.6015 456.19 61.9815C456.19 61.9615 456.19 61.9315 456.19 61.9115C456.21 57.5015 459.31 53.6915 463.48 52.2915C466.49 51.2815 470.19 50.6515 474.6 50.3915C478.46 50.1615 479.94 50.0515 479.03 50.0515H495.91C496.59 50.0515 498.01 50.1415 500.17 50.3115C502.33 50.4815 503.63 50.5715 504.09 50.5715C509.77 50.5715 517.5 51.0215 527.27 51.9315C529.77 52.8415 531.25 56.9315 531.7 64.2015C531.7 64.8815 531.87 66.0815 532.21 67.7815C532.67 70.3815 532.9 73.5015 532.9 77.1315Z" fill="#F85532"/>
<path d="M623.76 116.512C623.76 149.132 615.82 170.782 599.94 181.462C595.06 184.762 588.2 186.402 579.36 186.402C571.87 186.402 565.86 184.752 561.33 181.462C550.21 173.512 543.64 159.192 541.6 138.502C541.03 132.702 540.75 128.782 540.75 126.742C540.75 107.422 544.04 89.9215 550.62 74.2315C557.42 58.0915 568.94 50.0215 585.16 50.0215C594.34 50.0215 601.32 52.4615 606.08 57.3515C613.45 64.9715 618.44 74.1115 621.05 84.7915C622.85 92.3115 623.76 102.882 623.76 116.512ZM592.73 122.822V110.212C592.73 97.2515 589.15 90.7815 581.99 90.7815C579.94 90.7815 578.07 91.8615 576.36 94.0215C574.09 96.9815 572.95 104.992 572.95 118.062C572.95 124.202 573.35 128.692 574.14 131.532C575.62 136.992 578.57 139.712 583 139.712C587.2 139.712 589.99 137.782 591.35 133.912C592.28 131.402 592.73 127.712 592.73 122.822Z" fill="#F85532"/>
</svg>
